<?xml version="1.0" standalone="no"?>
<!DOCTYPE svg PUBLIC "-//W3C//DTD SVG 1.1//EN" "http://www.w3.org/Graphics/SVG/1.1/DTD/svg11.dtd" >
<svg xmlns="http://www.w3.org/2000/svg">
<metadata></metadata>
<defs>
<font id="yanone_kaffeesatzregular" horiz-adv-x="854" >
<font-face units-per-em="2048" ascent="1638" descent="-410" />
<missing-glyph horiz-adv-x="321" />
<glyph horiz-adv-x="0" />
<glyph horiz-adv-x="682" />
<glyph unicode="&#xd;" horiz-adv-x="321" />
<glyph unicode=" "  horiz-adv-x="321" />
<glyph unicode="&#x09;" horiz-adv-x="321" />
<glyph unicode="&#xa0;" horiz-adv-x="321" />
<glyph unicode="!" horiz-adv-x="399" d="M86 102q0 50 30.5 84.5t82.5 34.5q114 0 114 -119q0 -49 -31 -82.5t-83 -33.5q-62 0 -87.5 29.5t-25.5 86.5zM92 1397q-1 34 37.5 41.5t189.5 7.5l-32 -930q-3 -53 -34 -65.5t-132 -12.5z" />
<glyph unicode="&#x22;" horiz-adv-x="540" d="M70 1602q23 9 71.5 8.5t85.5 -6.5q0 -86 -16.5 -240.5t-26.5 -163.5l-92 -6q-44 396 -22 408zM319 1602q25 9 74 8.5t86 -6.5q0 -86 -16.5 -240.5t-26.5 -163.5l-92 -6q-7 30 -22.5 215t-2.5 193z" />
<glyph unicode="#" d="M55 389q0 85 5 108t30 23h86l10 217h-131q0 85 5 108t30 23h105l6 129q1 23 30.5 28t116.5 5l-8 -162h195l6 129q1 23 30.5 28t116.5 5l-8 -162h119q0 -101 -9 -118q-6 -13 -24 -13h-94l-10 -217h137q0 -101 -9 -118q-6 -13 -24 -13h-111l-8 -137q-1 -23 -30 -28t-117 -5 l8 170h-193l-8 -137q-1 -23 -30 -28t-117 -5l8 170h-113zM322 520h194l10 217h-194z" />
<glyph unicode="$" d="M106 76q0 19 14 65.5t32 67.5q73 -59 217 -59q94 0 142 45t48 129q0 57 -24 102t-89 113l-229 233q-108 114 -108 227q0 110 67.5 177t192.5 84v182q0 40 35.5 53.5t115.5 13.5v-247q72 -5 122.5 -19t69.5 -27.5t19 -25.5q0 -24 -10 -58t-31 -59q-24 16 -80 29.5 t-121 13.5q-198 0 -198 -115q0 -41 20.5 -77t67.5 -86l248 -248q61 -61 88.5 -124.5t27.5 -143.5q0 -282 -258 -330v-176q0 -40 -34 -53t-117 -13v236q-56 3 -101.5 13.5t-72 24t-40.5 27t-14 25.5z" />
<glyph unicode="%" horiz-adv-x="1415" d="M90 1075q0 190 75 282.5t216 92.5q95 0 152.5 -32t88.5 -115t31 -226q0 -383 -284 -383q-74 0 -121.5 14.5t-85.5 55t-55 116.5t-17 195zM238 47l825 1405q11 -3 26.5 -9.5t41.5 -25.5t26 -37q0 -12 -204.5 -361t-408.5 -692l-204 -343q-4 1 -11 3t-24.5 8.5t-31 13.5 t-24.5 17.5t-11 20.5zM250 1071q0 -102 15 -157.5t40 -73t68 -17.5q127 0 127 252q0 99 -14 154t-38 73.5t-67 18.5q-65 0 -98 -55t-33 -195zM762 362q0 190 75 282.5t216 92.5q95 0 152.5 -32t88.5 -114.5t31 -225.5q0 -383 -285 -383q-74 0 -121.5 14.5t-85 54.5 t-54.5 116t-17 195zM920 354q0 -102 14.5 -157t39.5 -73t68 -18q129 0 129 252q0 100 -13.5 154t-38 73t-68.5 19q-65 0 -98 -54.5t-33 -195.5z" />
<glyph unicode="&#x26;" horiz-adv-x="1028" d="M53 348q0 121 65 221t165 164q-160 279 -160 430q0 137 89.5 210t252.5 73q132 0 219.5 -29t87.5 -67q0 -30 -11.5 -65t-29.5 -58q-104 71 -246 71q-43 0 -73 -5.5t-57.5 -20.5t-41.5 -47.5t-14 -81.5q0 -102 121 -313t282 -416q15 88 15 182q0 272 -123 420 q85 16 235 16q87 0 158 -6q6 -12 6 -61q0 -36 -17 -55t-69 -19h-100q22 -38 33.5 -63.5t25 -94.5t13.5 -158q0 -174 -52 -311q114 -124 170 -151q-4 -49 -40.5 -91t-67.5 -42t-150 129q-112 -129 -305 -129q-108 0 -185.5 30t-118.5 83.5t-59 116t-18 138.5zM225 344 q0 -89 47 -148t152 -59q132 0 207 99q-155 188 -275 376q-131 -96 -131 -268z" />
<glyph unicode="'" horiz-adv-x="288" d="M70 1602q23 9 71.5 8.5t85.5 -6.5q0 -86 -16.5 -240.5t-26.5 -163.5l-92 -6q-44 396 -22 408z" />
<glyph unicode="(" horiz-adv-x="598" d="M133 655q0 140 16.5 269.5t43.5 226.5t60.5 180.5t67 139.5t63.5 96.5t50.5 59t28.5 18.5q40 0 59 -22.5t33 -84.5q-108 -143 -180 -361.5t-72 -514.5q-1 -323 78 -576t174 -362q-11 -61 -32 -92t-60 -31q-9 0 -30 19t-51.5 61.5t-64 102t-66.5 148.5t-59 192 t-42.5 241.5t-16.5 289.5z" />
<glyph unicode=")" horiz-adv-x="598" d="M43 -276q46 61 87 143t80.5 197t62.5 270t22 328q0 285 -72 515.5t-180 360.5q14 62 33 84.5t59 22.5q8 0 28 -17.5t50.5 -57t64 -95t67 -138.5t60.5 -180t43.5 -228t16.5 -274q0 -142 -16.5 -276t-42.5 -236.5t-59 -192.5t-66.5 -152.5t-64 -108t-51.5 -67t-30 -21.5 q-39 0 -60 31t-32 92z" />
<glyph unicode="*" horiz-adv-x="962" d="M33 1030q-1 70 37 110t71 25l267 -168q3 -35 -11.5 -50t-38.5 -7zM135 614l248 252q37 37 76 -16l-180 -320q-25 -37 -71 -2.5t-73 86.5zM406 1366q-1 22 15.5 33t42 11t53.5 -6.5t52 -17.5l-41 -323q-5 -26 -17.5 -32.5t-57.5 1.5zM508 860.5q9 14.5 47 28.5l236 -277 q27 -32 -19 -66.5t-102 -43.5l-160 323q-11 21 -2 35.5zM550.5 984q2.5 17 27.5 30l303 164q40 -33 48 -95t-30 -73l-326 -78q-25 35 -22.5 52z" />
<glyph unicode="+" d="M70 504v8q0 83 5 110t29 27h252v252q0 24 28.5 29.5t117.5 5.5v-287h284q0 -109 -9 -129q-7 -16 -23 -16h-252v-252q0 -23 -29 -28t-117 -5v285h-286z" />
<glyph unicode="," horiz-adv-x="374" d="M78 -164q33 56 43.5 91t13.5 85q-47 27 -47 101q0 45 30 75.5t75 30.5q112 0 112 -123q0 -53 -20 -111t-47 -99.5t-54 -69t-41 -27.5q-54 0 -65 47z" />
<glyph unicode="-" horiz-adv-x="569" d="M76 504q0 88 5 116.5t28 28.5h385q0 -87 -5.5 -116t-29.5 -29h-383z" />
<glyph unicode="." horiz-adv-x="374" d="M76 104q0 50 30.5 84.5t83.5 34.5q115 0 115 -119q0 -51 -31 -83.5t-84 -32.5q-62 0 -88 29t-26 87z" />
<glyph unicode="/" horiz-adv-x="686" d="M20 -41l461 1563q5 17 10 24.5t25.5 13t51.5 6.5t98 1l-461 -1567q-4 -16 -9 -23t-27 -12t-51 -5.5t-98 -0.5z" />
<glyph unicode="0" d="M59 606q0 311 89.5 467t283.5 156t279.5 -140t85.5 -434q0 -172 -18.5 -293.5t-62 -208.5t-116 -129t-178.5 -42q-84 0 -146.5 26.5t-103.5 75.5t-66.5 127.5t-36 173.5t-10.5 221zM238 594q0 -255 41.5 -358t146.5 -103q104 0 150.5 123.5t46.5 400.5q0 219 -40.5 321.5 t-142.5 102.5q-57 0 -97 -32.5t-62.5 -97.5t-32.5 -151.5t-10 -205.5z" />
<glyph unicode="1" d="M57 115q0 43 295 43l23 899q-30 -1 -88.5 -10t-102.5 -18l-43 -9q-24 50 -24 108q0 21 164.5 61t224.5 40q34 0 47 -10l-27 -1061h152l119 6q0 -98 -5.5 -131t-29.5 -33h-701q-4 66 -4 115z" />
<glyph unicode="2" d="M59 51q0 40 9 65.5t41 80.5q47 79 116.5 168t127 156t111 136.5t84 138t30.5 132.5q0 141 -158 141q-81 0 -164.5 -21t-134.5 -51q-21 50 -21 123q0 39 110 74t253 35q169 0 236 -68.5t67 -210.5q0 -81 -30.5 -160t-85 -155t-113 -144.5t-133 -161t-125.5 -171.5h274 q49 0 109.5 3.5t96.5 6.5l36 4q0 -106 -5.5 -139t-29.5 -33h-694q-7 28 -7 51z" />
<glyph unicode="3" d="M86 1118q0 42 99.5 76.5t254.5 34.5q152 0 218.5 -67.5t66.5 -176.5q0 -210 -223 -369q122 -11 196 -86t74 -219q0 -247 -128 -381.5t-335 -134.5q-108 0 -163.5 29t-55.5 72q0 21 3 41t5.5 30.5t8 28.5t6.5 22q72 -63 200 -63q132 0 206.5 97t74.5 255q0 63 -26.5 106 t-74.5 65t-102 31t-123 9l-4 107q130 61 201.5 143t71.5 168q0 133 -148 133q-159 0 -280 -72v-2q-23 47 -23 123z" />
<glyph unicode="4" d="M57 414q0 51 72.5 217t176.5 342.5t177 238.5q37 29 76 29q60 0 88 -24v-795l152 6q8 -16 8 -59q-4 -103 -55 -103h-105v-213q0 -40 -20.5 -46.5t-145.5 -6.5v266h-370q-54 51 -54 148zM201 422h280l23 590q-79 -90 -175 -273.5t-128 -316.5z" />
<glyph unicode="5" d="M70 -121q0 82 18 135q69 -63 199 -63q81 0 143 34.5t98 93.5t54 130.5t18 152.5q0 86 -21.5 144t-65.5 89t-98.5 43.5t-131.5 12.5q-101 0 -197 -26l59 604h627q0 -96 -15 -123t-73 -27l-397 8l-31 -307q66 11 119 11q401 5 401 -394q0 -283 -118 -442.5t-355 -159.5 q-77 0 -133 15.5t-78 34t-22 34.5z" />
<glyph unicode="6" d="M63 631q0 807 465 807q224 0 224 -70q0 -64 -17 -119q-88 31 -192 31q-298 0 -320 -528q95 147 281 147q138 0 217.5 -96.5t79.5 -300.5q0 -518 -389 -518q-58 0 -105 11t-82.5 35t-61.5 54t-43.5 76t-29 92.5t-17.5 111.5t-8 125.5t-2 141.5zM223 582 q-4 -236 44.5 -343.5t152.5 -107.5q103 0 160 94t57 242q0 135 -46.5 206.5t-135.5 71.5q-136 0 -232 -151v-12z" />
<glyph unicode="7" d="M90 1229h737q-207 -404 -330.5 -743t-162.5 -666q-99 0 -134.5 8.5t-35.5 36.5q39 304 171.5 659t264.5 561q-117 -6 -463 -6q-47 0 -47 150z" />
<glyph unicode="8" d="M63 377q0 126 65 228.5t169 164.5q-92 63 -133 109q-86 83 -86 215q0 169 100 260.5t250 91.5q365 0 365 -332q0 -64 -18 -119.5t-52 -99t-69.5 -75.5t-82.5 -64q82 -65 109 -94q121 -124 121 -289q0 -110 -38.5 -196.5t-120.5 -139.5t-198 -53q-193 0 -287 109t-94 284z M219 385q0 -111 58 -176.5t157 -65.5q94 0 149.5 63t55.5 171q0 76 -24 122.5t-68 84.5q-34 36 -117 96q-96 -50 -153.5 -124t-57.5 -171zM246 1104q0 -101 80 -166q31 -31 123 -94q190 121 190 264q0 89 -54.5 134.5t-133.5 45.5q-90 0 -147.5 -46t-57.5 -138z" />
<glyph unicode="9" d="M55 733q0 514 389 514q74 0 127.5 -13.5t92.5 -47t63.5 -79.5t39.5 -122t21.5 -163t8.5 -214q-3 -421 -126.5 -621t-387.5 -200q-82 0 -133.5 16.5t-51.5 51.5q0 39 15 112q70 -20 149 -20q77 0 137 25.5t101 70t69 110.5t42 142t20 170q-95 -143 -277 -143 q-132 0 -215.5 108t-83.5 303zM219 754q0 -133 49 -206t135 -73q134 0 234 150v10q0 123 -7 202.5t-27.5 142.5t-58.5 91.5t-98 28.5q-107 0 -167 -88t-60 -258z" />
<glyph unicode=":" horiz-adv-x="374" d="M76 104q0 49 31 84t83 35q115 0 115 -119q0 -51 -31 -83.5t-84 -32.5q-62 0 -88 29t-26 87zM76 791q0 49 31 83.5t83 34.5q115 0 115 -118q0 -51 -31 -84t-84 -33q-62 0 -88 29.5t-26 87.5z" />
<glyph unicode=";" horiz-adv-x="374" d="M70 -164q32 57 43 92.5t14 83.5q-47 27 -47 101q0 45 29 75.5t73 30.5q113 0 113 -123q0 -53 -19.5 -111t-46.5 -99.5t-53.5 -69t-40.5 -27.5q-54 0 -65 47zM72 791q0 49 31 83.5t83 34.5q115 0 115 -118q0 -51 -31 -84t-84 -33q-62 0 -88 29.5t-26 87.5z" />
<glyph unicode="&#x3c;" horiz-adv-x="819" d="M80 528q0 64 53 90l541 265q55 -52 59 -113q0 -36 -31 -49l-405 -199l440 -196q-1 -52 -24 -91.5t-49 -39.5q-18 0 -58 16l-500 221q-26 47 -26 96z" />
<glyph unicode="=" d="M70 313v8q0 84 5 111t29 27h682q0 -110 -9 -130q-7 -16 -23 -16h-684zM70 694v8q0 84 5 111t29 27h682q0 -110 -9 -130q-7 -16 -23 -16h-684z" />
<glyph unicode="&#x3e;" horiz-adv-x="819" d="M88 731q3 51 27 90t49 39q20 0 55 -14l500 -221q29 -47 29 -97q0 -63 -56 -90l-540 -264q-55 55 -58 111q0 37 29 51l407 199z" />
<glyph unicode="?" horiz-adv-x="604" d="M39 1366q0 35 81.5 61.5t174.5 26.5q132 0 208.5 -73t76.5 -212q0 -86 -26.5 -163.5t-58 -123t-77.5 -107t-66 -97.5q-27 -55 -24 -99.5t11 -85t1 -49.5q-12 -16 -64 -19.5t-86 3.5q-3 6 -7.5 17t-12.5 44t-10.5 66.5t6.5 79t31 86.5q29 55 87.5 136t87.5 141.5t29 129.5 q0 158 -168 158q-90 0 -170 -51q-24 70 -24 131zM152 104q0 49 31 84t83 35q115 0 115 -119q0 -51 -31 -83.5t-84 -32.5q-62 0 -88 29t-26 87z" />
<glyph unicode="@" horiz-adv-x="1511" d="M96 541q0 179 33 322t94 242.5t149.5 165t196.5 96t238 30.5q153 0 264.5 -35t190.5 -112.5t118 -205t39 -309.5q0 -731 -329 -731q-71 0 -125 47q-61 -49 -224 -49q-61 -1 -102.5 9.5t-79.5 42t-56.5 97t-17.5 166.5q5 334 260 334q79 0 119 -22q4 72 4 125q3 66 -28 92 t-95 26q-112 0 -204 -51q-19 37 -19 97q3 24 19 40q92 54 260 54q118 0 173 -53t52 -185l-10 -412q-3 -114 -10 -200q34 -15 65 -15t60 29t56 89t43.5 170.5t16.5 256.5q0 313 -96 435t-348 122q-136 0 -232.5 -35.5t-166.5 -119t-104 -226t-34 -350.5q0 -182 21 -313 t59 -214.5t100 -132t134.5 -67t173.5 -18.5q268 0 477 88q45 -58 45 -119q0 -31 -59.5 -61t-179 -50t-269.5 -20q-69 0 -123 4t-113.5 16.5t-105.5 34t-93 57.5t-81 85.5t-65 119.5t-50 158t-30 202.5t-11 252.5zM643 311q-1 -105 25.5 -144.5t85.5 -39.5q99 0 102 109 l8 292q-49 7 -71 7q-71 0 -110 -49.5t-40 -174.5z" />
<glyph unicode="A" horiz-adv-x="894" d="M10 2l365 1409q6 29 63 29q48 0 78 -6l367 -1403q1 -3 1 -6q0 -14 -12 -21q-14 -8 -61 -8q-57 0 -98 4l-86 365h-355l-79 -336q-5 -19 -18.5 -26t-59.5 -7q-47 0 -105 6zM307 516h283l-70 291q-53 217 -71 393q-20 -163 -72 -393z" />
<glyph unicode="B" horiz-adv-x="770" d="M88 0v1395q0 20 12 29.5t43 9.5h203q344 0 344 -318q0 -80 -18 -144t-47.5 -101.5t-62.5 -58.5t-68 -26q32 -2 61.5 -9.5t63.5 -28t58.5 -51.5t41 -85.5t16.5 -124.5q0 -125 -30.5 -220.5t-84.5 -152.5t-123 -85.5t-151 -28.5h-258zM258 145h92q83 0 137 81.5t54 246.5 q0 77 -13 125t-41 70.5t-57.5 29.5t-77.5 7h-94v-560zM258 848h100q68 0 109 59t41 176q0 115 -41.5 159t-110.5 44h-98v-438z" />
<glyph unicode="C" horiz-adv-x="696" d="M61 657q0 146 13 264.5t34.5 201t54 144t66 98t76 58.5t80 29.5t80.5 7.5q104 0 148 -32.5t44 -79.5t-26 -101q-57 51 -133 51q-43 0 -78 -13.5t-70.5 -54t-59.5 -108t-39 -183.5t-15 -273q0 -152 14.5 -254.5t43 -156.5t63 -75.5t83.5 -21.5q56 0 107 18.5t82 44.5 q24 -46 24 -100q0 -62 -70.5 -105t-181.5 -43q-45 0 -80.5 6.5t-72 25t-63.5 50t-51.5 83.5t-39.5 123t-24 171t-9 225z" />
<glyph unicode="D" horiz-adv-x="792" d="M90 0v1395q0 20 11.5 29.5t43.5 9.5h199q83 0 145 -19t111.5 -64t80.5 -118.5t47.5 -183t16.5 -258.5q0 -221 -26.5 -376t-79 -245t-124 -130t-169.5 -40h-256zM256 158h92q35 0 62.5 12.5t56 53t46.5 109.5t30 189.5t12 284.5q0 186 -23.5 291t-66.5 143.5t-115 38.5 h-94v-1122z" />
<glyph unicode="E" horiz-adv-x="655" d="M90 0v1399q0 4 1.5 10t10 15.5t23.5 9.5h489v-12q0 -97 -4 -117.5t-26 -20.5h-326v-428h307q0 -104 -4 -129t-26 -25h-277v-552h350q0 -107 -4.5 -128.5t-28.5 -21.5h-485z" />
<glyph unicode="F" horiz-adv-x="638" d="M90 0v1399q0 4 1.5 10t10 15.5t23.5 9.5h489q0 -105 -3.5 -124.5t-26.5 -19.5h-326v-434h307q0 -102 -4 -126.5t-26 -24.5h-277v-672q0 -4 -0.5 -9.5t-8.5 -14.5t-24 -9h-135z" />
<glyph unicode="G" horiz-adv-x="788" d="M61 684q0 189 20.5 326t56 221.5t93 134.5t121 68t150.5 18q97 0 157 -30t60 -72q0 -51 -21 -105q-63 49 -163 49q-108 0 -170.5 -54.5t-93.5 -185.5t-31 -360q0 -143 9.5 -243.5t26 -160t44.5 -93t57.5 -44t73.5 -10.5q48 0 78.5 16.5t41.5 33.5v507h-151v107 q0 35 39 35h268v-770q-108 -90 -281 -90q-86 0 -145 18t-107.5 63.5t-76 125.5t-42 201t-14.5 294z" />
<glyph unicode="H" horiz-adv-x="837" d="M90 0v1399v1q0 26 20.5 30t145.5 4v-584h326v549v2q0 25 20.5 29t145.5 4v-1401v-1q0 -24 -20.5 -28t-145.5 -4v696h-326v-663v-1q0 -24 -20.5 -28t-145.5 -4z" />
<glyph unicode="I" horiz-adv-x="346" d="M88 0v1358q0 57 22 66.5t148 9.5v-1401q0 -25 -21.5 -29t-148.5 -4z" />
<glyph unicode="J" horiz-adv-x="614" d="M29 102q0 47 24 95q76 -68 168 -68q44 0 71.5 15t41.5 49.5t18 74.5t4 107v983q0 57 21 66.5t147 9.5v-1096q0 -64 -7.5 -115t-26.5 -97.5t-50 -77t-80.5 -48.5t-115.5 -18q-115 0 -165 34.5t-50 85.5z" />
<glyph unicode="K" horiz-adv-x="796" d="M86 0v1399q0 26 21 30.5t147 4.5v-617l326 606q63 13 106 13q73 0 73 -31q0 -8 -5 -19l-330 -571q248 -188 328 -778q2 -24 -12 -32.5t-56 -8.5q-56 0 -117 6q-48 262 -98 411.5t-131 237.5q-34 37 -84 56v-674q0 -25 -21 -29t-147 -4z" />
<glyph unicode="L" horiz-adv-x="643" d="M88 0v1386q0 35 22.5 41.5t145.5 6.5v-1278h352v-123q0 -33 -35 -33h-485z" />
<glyph unicode="M" horiz-adv-x="1001" d="M88 0v1399q0 22 9 28.5t26 6.5h121l194 -619l66 -229q34 145 59 223l180 590q10 35 33 35h135v-1401q0 -25 -21 -29t-149 -4l7 498q4 131 18 342t20 266q-112 -402 -133 -463l-108 -311q-5 -17 -23 -17h-71l-107 328q-21 60 -131 463l-2 -2q37 -379 43 -598v-473 q0 -24 -23 -28.5t-143 -4.5z" />
<glyph unicode="N" horiz-adv-x="909" d="M88 0v1399q0 19 8 27t27 8h127l229 -553q63 -162 195 -578v6q-9 81 -15 291.5t-6 317.5v481q0 26 22 30.5t146 4.5v-1401q0 -33 -35 -33h-124l-234 563q-50 127 -195 582q8 -87 14.5 -306.5t6.5 -308.5v-497q0 -25 -21 -29t-145 -4z" />
<glyph unicode="O" horiz-adv-x="878" d="M61 725q0 270 44 431t128 228.5t220 67.5t213.5 -65.5t114 -221.5t36.5 -434q0 -281 -41.5 -445t-124 -234t-221.5 -70q-137 0 -214.5 62.5t-116 224.5t-38.5 456zM248 684q0 -291 41.5 -411.5t148.5 -120.5q110 0 154.5 130t44.5 445q0 312 -39.5 433.5t-148.5 121.5 q-73 0 -116 -57.5t-64 -188t-21 -352.5z" />
<glyph unicode="P" horiz-adv-x="737" d="M88 0v1399q0 19 7.5 27t27.5 8h203q195 0 285.5 -96.5t90.5 -309.5q0 -123 -29.5 -212t-82.5 -138.5t-118 -72.5t-146 -23h-72v-549q0 -25 -21 -29t-145 -4zM254 735h90q89 0 131.5 73t42.5 239q0 241 -162 241h-102v-553z" />
<glyph unicode="Q" horiz-adv-x="878" d="M61 725q0 270 44 431t128 228.5t220 67.5t213.5 -65.5t114 -221.5t36.5 -434q0 -334 -57 -504t-182 -221q13 -81 38.5 -115t71.5 -34q78 0 127 34q25 -39 25 -90q0 -31 -33.5 -50.5t-71.5 -25.5t-80 -6q-105 0 -168.5 63.5t-97.5 201.5q-121 8 -190 76t-103.5 227 t-34.5 438zM248 684q0 -291 41.5 -411.5t148.5 -120.5q110 0 154.5 130t44.5 445q0 312 -39.5 433.5t-148.5 121.5q-73 0 -116 -57.5t-64 -188t-21 -352.5z" />
<glyph unicode="R" horiz-adv-x="761" d="M88 0v1399q0 4 1 10t9.5 15.5t24.5 9.5h98h105q195 0 285.5 -96.5t90.5 -309.5q0 -302 -178 -401q29 -38 56 -86.5t57 -121t51.5 -172t28.5 -210.5q0 -25 -14 -33t-70 -8q-24 0 -98 4q-7 121 -26.5 224.5t-46.5 173.5t-49.5 112.5t-45.5 73.5q-14 -2 -41 -2h-72v-549 q0 -25 -21 -29t-145 -4zM254 735h90q88 0 131 71t43 230q0 123 -37.5 187.5t-124.5 64.5h-102v-553z" />
<glyph unicode="S" horiz-adv-x="733" d="M51 102q0 64 43 119q78 -71 211 -71q201 0 201 208q0 71 -26 130.5t-93 136.5l-207 239q-69 86 -98 154t-29 141q0 133 92.5 214t260.5 81q138 0 203 -28t65 -74q0 -53 -41 -97q-25 20 -80.5 36t-120.5 16q-91 0 -145 -38t-54 -104q0 -53 22 -97t73 -105l221 -252 q78 -93 107.5 -170.5t29.5 -175.5q0 -82 -18.5 -148.5t-59.5 -121t-114.5 -85t-174.5 -30.5q-130 0 -199 37t-69 85z" />
<glyph unicode="T" horiz-adv-x="763" d="M16 1278v121q0 19 8 27t27 8h697v-123q0 -18 -8 -25.5t-27 -7.5h-252v-1245q0 -25 -21.5 -29t-144.5 -4v1278h-279z" />
<glyph unicode="U" horiz-adv-x="894" d="M88 418v981q0 26 21.5 30.5t150.5 4.5v-1020q0 -69 7 -115t27 -86.5t60 -60t103 -19.5q108 0 180 37v1229q0 26 21.5 30.5t146.5 4.5v-1381q-43 -28 -139 -50.5t-209 -22.5q-69 0 -123.5 12t-93 32.5t-66.5 53t-44.5 67.5t-26 82.5t-12.5 91t-3 99.5z" />
<glyph unicode="V" horiz-adv-x="860" d="M12 1422q6 12 39 12h135l170 -793q27 -143 82 -500q35 289 74 500l152 743q5 28 13 39t30 11h145l-315 -1440q-60 -8 -140 -8q-71 0 -98 118q-36 148 -107.5 468t-124.5 566l-53 246q-4 14 -4 24q-1 9 2 14z" />
<glyph unicode="W" horiz-adv-x="1339" d="M14 1384q-2 12 -2 21q0 11 4 17q6 12 33 12h137l148 -793q29 -158 61 -461h13q8 215 53 461l125 674q5 29 12.5 39t30.5 10h119l143 -723q10 -53 18 -102.5t15 -104.5t10.5 -83.5t10 -92t7.5 -76.5h13q21 273 51 459l131 743q5 28 13 39t30 11h141l-268 -1440 q-98 -10 -139 -10q-67 0 -90 116l-105 459q-26 143 -63 471q-30 -265 -60 -469l-112 -567q-68 -8 -152 -8q-61 0 -84 127q-32 151 -93 469t-106 560z" />
<glyph unicode="X" horiz-adv-x="868" d="M18 0l314 741l-258 664q-6 18 7 22q18 7 189 7l82 -232q71 -192 101 -307q47 160 102 307l78 205q5 17 15 21q17 6 165 6l-264 -680l293 -725q4 -8 4 -14q0 -4 -2 -7q-4 -8 -19 -8h-182l-111 276q-42 105 -108 302q-62 -184 -113 -302l-110 -256q-13 -20 -39 -20h-144z " />
<glyph unicode="Y" horiz-adv-x="745" d="M12 1407q-2 5 -2 9q0 9 8 12q17 6 183 6l82 -281q30 -97 63.5 -240t36.5 -188q4 44 38.5 186.5t63.5 241.5l72 250q7 23 30 27t150 4l-276 -842v-559v-1q0 -24 -20.5 -28t-145.5 -4v582z" />
<glyph unicode="Z" horiz-adv-x="788" d="M39 66q0 34 16 73l490 1145h-381q-72 0 -90 -6v121q0 15 10 25t25 10h612q16 -26 16 -56q0 -33 -16 -73l-498 -1155h395q83 0 121 14v-131q0 -33 -34 -33h-642q-24 24 -24 66z" />
<glyph unicode="[" horiz-adv-x="788" d="M248 -408v2038q0 24 6 33t31.5 13.5t89.5 4.5h395q0 -104 -8 -128.5t-47 -24.5h-299v-1780h352q0 -79 -5 -110t-14 -38.5t-36 -7.5h-465z" />
<glyph unicode="\" horiz-adv-x="675" d="M25 1522q-9 27 5 35q20 10 156 10l465 -1587q7 -29 -17.5 -35t-148.5 -6z" />
<glyph unicode="]" horiz-adv-x="788" d="M18 -410q0 104 8.5 129t47.5 25h299v1784h-353q0 78 5 109.5t14.5 38.5t36.5 7h465v-2041q0 -25 -6 -33.5t-32.5 -13.5t-90.5 -5h-394z" />
<glyph unicode="^" horiz-adv-x="880" d="M98 512l355 303l297 -260q28 -25 28 -55q0 -29 -23 -51t-57 -27l-264 178l-209 -154q-34 -20 -51 -20q-33 0 -53.5 25.5t-22.5 60.5z" />
<glyph unicode="_" horiz-adv-x="772" d="M27 -215q0 82 5 109.5t29 27.5h682q0 -109 -8 -129q-7 -16 -24 -16h-684v8z" />
<glyph unicode="`" horiz-adv-x="350" d="M0 1376q7 44 29 85.5t49 41.5q12 0 126.5 -99.5t145.5 -141.5q-1 -4 -3 -10t-8 -22t-13 -28.5t-17.5 -22.5t-21.5 -10t-137.5 89.5t-149.5 117.5z" />
<glyph unicode="a" horiz-adv-x="724" d="M59 291q0 69 10.5 123.5t30 90.5t44 60.5t57 37.5t63.5 18.5t68 5.5q94 0 149 -27v162q0 69 -31 95t-96 26q-75 0 -149.5 -13t-120.5 -32q-23 42 -23 94q0 40 23 57q31 20 117.5 37.5t193.5 17.5q134 0 194 -56.5t60 -192.5v-109q0 -450 -12 -637q-115 -69 -285 -69h-17 q-41 0 -71 4q-38 5 -79 24t-66.5 51.5t-42.5 91.5t-17 140zM233 295q0 -72 18 -112t45 -52t71 -12q32 0 63 10.5t45 24.5q6 68 6 329q-43 19 -96 19q-34 0 -59 -7.5t-47.5 -28.5t-34 -64t-11.5 -107z" />
<glyph unicode="b" horiz-adv-x="788" d="M96 41v1386q0 56 28 67t138 11v-532q87 71 219 71q127 0 188.5 -92.5t61.5 -310.5q0 -123 -13.5 -222.5t-35 -167.5t-54 -118.5t-65.5 -79t-74.5 -45.5t-76.5 -22.5t-76 -5.5q-163 0 -240 61zM262 154q35 -27 96 -27q25 0 47.5 9t49 39.5t45.5 80.5t32 139.5t13 208.5 q0 160 -33 225.5t-106 65.5q-81 0 -144 -57v-684z" />
<glyph unicode="c" horiz-adv-x="638" d="M61 489q0 119 15 211.5t43.5 151.5t62.5 98.5t78.5 59t83.5 27t86 7.5q72 0 121 -26t49 -66q0 -45 -16 -92q-68 37 -146 37q-32 0 -57.5 -7t-54 -32t-47 -67.5t-31 -119.5t-12.5 -182q0 -142 20.5 -222.5t58.5 -110t103 -29.5q46 0 90.5 14t71.5 33q16 -49 16 -90 q0 -42 -64.5 -73t-162.5 -31q-63 0 -108 11.5t-85 43.5t-64 88t-37.5 147t-13.5 219z" />
<glyph unicode="d" horiz-adv-x="778" d="M61 475q0 289 87 429t229 140q93 0 145 -40v426q0 54 28 64.5t138 10.5v-1464q-126 -61 -293 -61q-61 0 -104 8.5t-89.5 38t-75 82t-47 145t-18.5 221.5zM248 494q0 -113 10 -186.5t31 -111.5t47 -52.5t65 -14.5q77 0 121 31v712q-36 27 -94 27q-29 0 -53.5 -9.5 t-48.5 -36.5t-40.5 -71t-27 -117.5t-10.5 -170.5z" />
<glyph unicode="e" horiz-adv-x="737" d="M59 459q0 148 21.5 257t54.5 170.5t83.5 98.5t97.5 48t108 11q260 0 260 -329q0 -150 -25 -266q-134 -27 -428 -33q6 -158 50 -216.5t143 -58.5q119 0 231 64q17 -44 17 -113q0 -47 -83.5 -79.5t-201.5 -32.5q-61 0 -107.5 11.5t-89.5 42.5t-70.5 83.5t-44 138.5 t-16.5 203zM233 551q202 0 279 22q10 46 10 123q-2 112 -27.5 157.5t-91.5 45.5q-155 0 -170 -348z" />
<glyph unicode="f" horiz-adv-x="522" d="M25 883q0 101 5.5 121t37.5 20h98v123q0 77 14 137t40.5 99t58.5 65.5t73 40t78 19t80 5.5q92 0 141 -22t49 -61q0 -50 -18 -93q-61 25 -145 25q-45 0 -77.5 -7t-64 -27t-47.5 -62t-16 -105v-137h184q0 -99 -5 -120t-30 -21h-149v-850q0 -5 -1.5 -11t-9.5 -14t-22 -8 h-133v883h-141z" />
<glyph unicode="g" horiz-adv-x="804" d="M45 -178q0 71 43.5 135t114.5 111q-127 36 -127 107q0 85 131 187q-127 82 -127 308q0 195 90 284.5t250 89.5q46 0 102 -16h246q16 -28 16 -80q0 -63 -57 -63q-29 0 -74 10q78 -81 78 -221q0 -359 -332 -359q-49 0 -92 9q-53 -53 -53 -91q0 -22 45.5 -33t147.5 -24 q32 -4 49 -6q134 -21 202 -73.5t68 -166.5q0 -68 -23.5 -126.5t-70 -105.5t-123.5 -74t-176 -27q-328 0 -328 225zM217 -141q0 -53 37 -81t135 -28q101 0 155 48.5t54 111.5q0 67 -48.5 93.5t-184.5 35.5q-6 1 -18.5 2t-18.5 2q-47 -36 -79 -86t-32 -98zM256 674 q0 -119 31.5 -175.5t120.5 -56.5q80 0 117.5 67.5t37.5 203.5q0 110 -37 159.5t-112 49.5q-71 0 -114.5 -60t-43.5 -188z" />
<glyph unicode="h" horiz-adv-x="778" d="M92 0v1430q0 54 27.5 64.5t138.5 10.5v-540q90 79 229 79q125 0 169 -65t44 -205v-741q0 -24 -23.5 -28.5t-148.5 -4.5v727q0 38 -4.5 64.5t-16 50.5t-35.5 36.5t-60 12.5q-89 0 -154 -57v-801q0 -25 -21 -29t-145 -4z" />
<glyph unicode="i" horiz-adv-x="358" d="M94 0v948q0 54 30 65t140 11v-991q0 -25 -22 -29t-148 -4zM96 1350q3 123 97 123q47 0 65 -27q16 -24 16 -79v-13q0 -133 -94 -133q-42 0 -63 30t-21 99z" />
<glyph unicode="j" horiz-adv-x="376" d="M-209 -293q0 51 25 86q68 -41 172 -41q75 0 99 44t24 157v995q0 54 28 65t137 11v-1098q0 -73 -11.5 -128t-39.5 -102t-82.5 -72t-134.5 -25q-217 0 -217 108zM106 1350q3 123 97 123q47 0 65 -27q17 -24 17 -80v-12q0 -64 -24 -98.5t-71 -34.5q-42 0 -63 30t-21 99z" />
<glyph unicode="k" horiz-adv-x="770" d="M94 0v1430q0 54 28.5 64.5t139.5 10.5v-555q51 43 120.5 68.5t135.5 25.5q174 0 174 -176q0 -180 -170 -317q79 -35 135.5 -123.5t67.5 -222.5q3 -35 3 -68q0 -53 -7 -104q-3 -25 -27 -29t-162 -4q7 71 7 131q0 68 -9 121q-18 118 -67 171q-39 43 -87 43q-12 0 -24 -3 q-16 -4 -38.5 -13.5t-37.5 -17.5l-14 -8v-391v-1q0 -24 -21 -28t-147 -4zM262 543q246 99 246 268q0 84 -76 84q-91 0 -170 -98v-254z" />
<glyph unicode="l" horiz-adv-x="354" d="M94 0v1430q0 54 28.5 64.5t137.5 10.5v-1472q0 -25 -21 -29t-145 -4z" />
<glyph unicode="m" horiz-adv-x="1153" d="M94 0v977q147 67 309 67q124 0 187 -63q113 63 250 63q75 0 122 -18t70 -58.5t30 -87.5t7 -124v-723q0 -24 -22.5 -28.5t-143.5 -4.5v758q0 77 -20.5 108t-79.5 31q-76 0 -137 -39v-825v-1q0 -24 -20.5 -28t-143.5 -4h-2v762q0 81 -17 109t-84 28q-73 0 -139 -35v-831 q0 -24 -22 -28.5t-144 -4.5z" />
<glyph unicode="n" horiz-adv-x="782" d="M92 0v975q64 28 155 48.5t169 20.5q160 0 224.5 -62t64.5 -212v-737q0 -25 -23 -29t-150 -4v721q0 101 -24 139.5t-98 38.5q-85 0 -152 -37v-829q0 -25 -22 -29t-144 -4z" />
<glyph unicode="o" horiz-adv-x="770" d="M55 512q0 532 340 532q113 0 180 -44t103.5 -160.5t36.5 -321.5q0 -280 -85 -409t-253 -129q-68 0 -114.5 11t-88.5 43.5t-66.5 91t-38.5 154t-14 232.5zM236 508q0 -124 9 -202.5t29.5 -118t44.5 -53t62 -13.5q35 0 61 17.5t47 60t32 122t11 195.5q0 160 -16.5 244.5 t-45 111.5t-81.5 27q-29 0 -51 -10t-41.5 -36t-32.5 -69.5t-20.5 -112.5t-7.5 -163z" />
<glyph unicode="p" horiz-adv-x="782" d="M94 -332v1295q128 81 299 81q80 0 138.5 -20t104 -66.5t68.5 -131.5t23 -208q0 -115 -10 -208.5t-26 -159t-40.5 -114.5t-50 -78.5t-57.5 -47.5t-60.5 -24t-60.5 -6q-105 0 -162 57v-426q-38 -14 -86 -14q-44 0 -62 15.5t-18 55.5zM260 197q42 -68 111 -68q172 0 172 471 q0 119 -18.5 186t-51.5 90t-88 23q-70 0 -125 -39v-663z" />
<glyph unicode="q" horiz-adv-x="790" d="M61 446q0 164 32.5 283.5t91.5 186.5t132 97.5t164 30.5q130 0 219 -63v-1315q0 -47 -17 -58.5t-81 -13.5q-35 0 -70 7v469q-62 -90 -194 -90q-43 0 -78.5 9.5t-74 39.5t-64.5 79.5t-43 135.5t-17 202zM250 451q0 -81 9 -141t22.5 -94t34 -55t39.5 -28t42 -8q42 0 79 27 t56 77v641q-32 29 -94 29q-94 0 -141 -103t-47 -345z" />
<glyph unicode="r" horiz-adv-x="538" d="M92 0v952q134 92 279 92q143 0 143 -86q0 -53 -18 -98q-48 25 -99 25q-79 0 -137 -47v-805q0 -25 -21.5 -29t-146.5 -4z" />
<glyph unicode="s" horiz-adv-x="706" d="M61 84q0 49 29 96q86 -51 205 -51q79 0 122.5 33t43.5 94q0 86 -82 160l-199 170q-117 97 -117 217q0 111 84 176t250 65q74 0 128.5 -11.5t80.5 -30.5t37.5 -36.5t11.5 -35.5q0 -44 -37 -84q-87 53 -200 53q-74 0 -118 -26t-44 -72q0 -31 16.5 -59t65.5 -68l190 -154 q66 -65 93.5 -122.5t27.5 -133.5q0 -135 -90 -209.5t-248 -74.5q-114 0 -182 26t-68 78z" />
<glyph unicode="t" horiz-adv-x="595" d="M37 881q0 97 5.5 120t31.5 23h102v311q0 41 29 49.5t139 8.5v-369h209q0 -100 -4.5 -121.5t-28.5 -21.5h-176v-596q0 -29 0.5 -43.5t2.5 -37t6.5 -34t12.5 -24.5t21 -18t31 -5q55 0 119 31q12 -46 12 -82q0 -92 -176 -92q-51 0 -87 15t-57.5 39t-33.5 65t-15.5 83 t-3.5 103v596h-139z" />
<glyph unicode="u" horiz-adv-x="794" d="M90 319v670q0 26 21.5 30.5t150.5 4.5v-719q0 -102 28 -141t109 -39q83 0 138 37v827q0 26 21 30.5t144 4.5v-971q-60 -33 -141.5 -53t-163.5 -20q-91 0 -151 20t-94 64t-48 104.5t-14 150.5z" />
<glyph unicode="v" horiz-adv-x="704" d="M37 973q-2 9 -2 16q1 25 19 29q24 6 161 6l66 -328q19 -95 39 -224.5t30 -211.5l10 -82h5q34 305 75 520l56 289q4 28 27 32.5t149 4.5l-236 -1030q-31 -6 -117 -6q-48 0 -73 100z" />
<glyph unicode="w" horiz-adv-x="1105" d="M31 989v5q0 22 23 26q26 4 159 4l61 -334q19 -101 37 -225t27 -198l8 -74h12q37 270 58 374l63 394q3 22 13.5 28t42.5 6h108l80 -430q16 -68 31.5 -161t23.5 -152l8 -59h11q15 230 63 497l53 297q3 27 25 32t139 5q-213 -1030 -221 -1030q-36 -6 -106 -6q-26 0 -52 27.5 t-36 78.5l-27 137q-47 228 -74 510q-37 -335 -74 -510l-47 -237q-86 -6 -139 -6q-47 0 -72 100z" />
<glyph unicode="x" horiz-adv-x="839" d="M31 0l288 537l-247 460q-9 17 1 21q14 6 173 6l76 -139q24 -46 64.5 -135.5t45.5 -98.5q51 120 111 234l61 110q10 22 34 25.5t153 3.5l-263 -479l273 -506q6 -14 6 -22q0 -6 -3 -8q-12 -9 -131 -9h-1h-1h-1h-1h-1h-1h-1h-1h-1h-1h-1h-1h-1h-1h-1h-1h-1h-1h-1h-1h-1h-1 h-1h-1h-1h-1h-1h-1h-2h-1h-1h-1h-1h-1h-1h-1h-1h-1h-1h-1h-1h-1h-1h-1h-1h-1h-1h-9l-75 133q-32 60 -133 275q-71 -162 -129 -275l-58 -100q-10 -24 -39.5 -28.5t-150.5 -4.5z" />
<glyph unicode="y" horiz-adv-x="729" d="M-8 -315q0 59 24 94q47 -31 129 -31q110 0 150 219l-246 1012q-9 34 11 39.5t151 5.5l111 -487q15 -73 28.5 -164t19.5 -146l7 -55q20 199 49 367l90 436q6 37 29 43t151 6l-252 -1079q-45 -193 -108.5 -266.5t-177.5 -73.5q-166 0 -166 80z" />
<glyph unicode="z" horiz-adv-x="684" d="M41 82q0 31 14 63l398 738h-209q-108 0 -187 -11q-6 37 -6 80q0 38 12 55t41 17h521q18 -16 18 -51q0 -33 -20 -82l-385 -737h180q125 0 215 22q6 -27 6 -74q-2 -56 -15.5 -79t-52.5 -23h-501q-29 25 -29 82z" />
<glyph unicode="{" horiz-adv-x="565" d="M84 600q0 56 35 84q27 17 37.5 25.5t26.5 30t22 53.5t6 81q0 76 -14.5 213t-14.5 195q0 123 85.5 181.5t232.5 60.5q30 -40 30 -103q0 -53 -28 -59q-150 -12 -150 -164q0 -44 10.5 -170.5t10.5 -204.5q0 -93 -28 -139t-83 -70q57 -22 84 -64.5t27 -129.5 q0 -77 -10.5 -201t-10.5 -174q0 -110 37.5 -149t126.5 -50q6 -41 6 -63q0 -41 -15 -65.5t-42 -24.5q-150 0 -216.5 68.5t-66.5 207.5q0 69 14.5 198t14.5 206q0 78 -28 113t-87 46q-12 28 -12 68z" />
<glyph unicode="|" horiz-adv-x="661" d="M248 -410v2034q0 33 22.5 39t145.5 6v-2038q0 -30 -22.5 -35.5t-145.5 -5.5z" />
<glyph unicode="}" horiz-adv-x="565" d="M37 -203q0 52 31 58q147 12 147 163q0 44 -10 169.5t-10 203.5q0 95 27 142t81 69q-55 22 -81.5 65t-26.5 130q0 77 10 200.5t10 173.5q0 57 -10 94.5t-33 58.5t-50 30.5t-71 15.5q-8 36 -8 64q0 41 16 65.5t45 24.5q148 0 214.5 -69t66.5 -208q0 -69 -14.5 -197.5 t-14.5 -205.5q0 -78 27 -113.5t86 -46.5q14 -35 14 -68q0 -58 -37 -81q-25 -17 -36.5 -27t-26.5 -31.5t-21 -54t-6 -80.5q0 -77 14.5 -214t14.5 -194q0 -123 -85.5 -182t-231.5 -59q-31 48 -31 104z" />
<glyph unicode="~" horiz-adv-x="819" d="M23 545q30 48 103.5 88.5t160.5 40.5q47 0 84 -14t58 -30t53.5 -30t70.5 -14q83 0 143 71q37 24 68.5 -5.5t36.5 -86.5q-36 -51 -104 -91t-158 -40q-49 0 -89 14t-62 31t-53 31t-65 14q-46 0 -103 -38t-73 -40q-28 -2 -48 25t-23 74z" />
<glyph unicode="&#xa2;" d="M170 467q0 498 264 565v178q0 41 36.5 55.5t115.5 14.5v-240q50 -9 85.5 -28.5t35.5 -38.5q0 -72 -19 -121q-65 37 -137 37q-35 0 -62 -6.5t-57.5 -31.5t-50 -68t-32.5 -122t-13 -188q0 -94 8 -156.5t21 -99t39 -55.5t52 -24t70 -5q40 0 84.5 13.5t75.5 33.5 q16 -50 16 -104q0 -30 -49 -59t-114 -35v-189q0 -40 -35 -52.5t-117 -12.5v258q-54 9 -91.5 33.5t-67 76.5t-44 144t-14.5 227z" />
<glyph unicode="&#xa3;" horiz-adv-x="749" d="M31 567q0 110 9 130q7 16 23 16h95q9 272 92 389t237 117q86 0 144.5 -28t58.5 -81q0 -46 -20 -102q-67 43 -146 43q-45 0 -78.5 -14.5t-61 -50.5t-43 -104t-17.5 -169h266q0 -89 -5 -117.5t-28 -28.5h-233q3 -236 16 -401l319 -14q13 -35 13 -76q0 -39 -29.5 -57.5 t-75.5 -18.5h-387q-18 244 -22 567h-127z" />
<glyph unicode="&#xa5;" d="M61 1407q-5 17 6 21q17 6 183 6l80 -281q34 -108 64.5 -227t33.5 -162q4 44 36.5 165.5t65.5 223.5l76 250q8 23 30 27t150 4l-196 -596h184q0 -81 -11.5 -110.5t-51.5 -29.5h-166l-35 -106v-92h266q0 -80 -12 -110t-53 -30h-201v-327v-2q0 -23 -20.5 -27t-145.5 -4v360 h-266q0 80 12 110t53 30h201v82l-41 116h-225q0 80 12 110t53 30h113z" />
<glyph unicode="&#xa8;" horiz-adv-x="493" d="M0 1309q0 43 27 73.5t73 30.5q103 0 103 -104q0 -45 -28.5 -75t-74.5 -30q-53 0 -76.5 26.5t-23.5 78.5zM293 1309q0 43 27 73.5t71 30.5q103 0 103 -104q0 -46 -27.5 -75.5t-75.5 -29.5q-53 0 -75.5 26.5t-22.5 78.5z" />
<glyph unicode="&#xa9;" horiz-adv-x="966" d="M72 1108q0 227 109.5 337.5t314.5 110.5q206 0 301.5 -101.5t95.5 -342.5q0 -220 -106.5 -338.5t-307.5 -118.5q-207 0 -307 104.5t-100 348.5zM199 1108q0 -182 68.5 -257t207.5 -75q131 0 211 82t80 256q0 170 -67 249t-205 79q-295 0 -295 -334zM322 1087q0 72 12 125 t29.5 82t44.5 46.5t50 22.5t52 5q30 0 61 -11t31 -22q0 -23 -12 -65q-47 14 -70 14q-22 0 -37 -6t-31.5 -24.5t-25 -61t-8.5 -107.5q0 -50 5.5 -80.5t18 -45.5t27 -19t39.5 -4q28 0 78 20q14 -28 14 -59q0 -15 -33 -29t-69 -14q-50 0 -78.5 7t-53 30.5t-34.5 71t-10 124.5z " />
<glyph unicode="&#xab;" horiz-adv-x="851" d="M37 516q0 32 74.5 159t148.5 238l74 111q29 0 54 -21t36 -42l10 -21q0 -35 -60 -141t-120 -195l-61 -88q27 -39 68 -98t109 -173.5t68 -148.5q-1 -4 -4 -10.5t-12.5 -23t-20 -29t-27 -23t-34.5 -10.5q-12 18 -32.5 48t-73 110.5t-92.5 145.5t-72.5 128t-32.5 84zM389 514 q0 30 73.5 146t147.5 216l74 101q27 0 51 -19.5t35 -39.5l10 -19q0 -33 -58 -129t-116 -176l-59 -80q10 -12 26 -33t56.5 -76.5t72 -102t57 -94t25.5 -67.5q-1 -4 -4 -10t-12 -21.5t-19.5 -27.5t-26 -21.5t-32.5 -9.5q-12 16 -32.5 42.5t-72.5 98t-91.5 130t-72 115.5 t-32.5 77z" />
<glyph unicode="&#xad;" horiz-adv-x="569" d="M76 504q0 88 5 116.5t28 28.5h385q0 -87 -5.5 -116t-29.5 -29h-383z" />
<glyph unicode="&#xae;" horiz-adv-x="966" d="M72 1108q0 227 109.5 337.5t314.5 110.5q206 0 301.5 -101.5t95.5 -342.5q0 -220 -106.5 -338.5t-307.5 -118.5q-207 0 -307 104.5t-100 348.5zM199 1108q0 -182 68.5 -257t207.5 -75q131 0 211 82t80 256q0 170 -67 249t-205 79q-295 0 -295 -334zM360 854v508 q1 10 15 10h41h49q166 0 166 -149q0 -96 -70 -140q72 -67 84 -211q0 -11 -6 -15.5t-27 -4.5q-37 0 -51 2q-12 157 -74 207q-6 -2 -20 -2h-29v-189q0 -12 -12 -14t-66 -2zM438 1130q6 0 19 -1t14 -1q78 0 78 101q0 76 -74 76h-37v-175z" />
<glyph unicode="&#xb4;" horiz-adv-x="350" d="M0 1260q43 49 107 107.5t111.5 95t55.5 36.5q27 0 49 -41t27 -84q-24 -28 -128 -103t-159 -106q-16 0 -32 23.5t-23 47.5z" />
<glyph unicode="&#xb8;" horiz-adv-x="278" d="M0 -397q13 72 27 84q10 5 19 0.5t31 -13t40 -8.5q65 0 65 70q0 37 -15 52t-46 15q-24 0 -45 -2.5t-30 -4.5l-9 -3l39 211h92l-25 -125q2 2 35 2q41 0 71 -33t30 -98q0 -78 -46 -125t-118 -47q-28 0 -56.5 6t-43.5 12z" />
<glyph unicode="&#xbb;" horiz-adv-x="847" d="M66 141q0 34 59 126.5t119 168.5l59 76q4 0 -52.5 79.5t-117.5 176.5t-61 131q0 25 22.5 46t45.5 29l22 9q12 -16 32 -43.5t71.5 -100.5t90.5 -132.5t71 -117t32 -77.5q0 -33 -75.5 -149.5t-151.5 -216.5l-76 -101q-4 1 -10 3t-21.5 10.5t-27.5 18.5t-21.5 27t-9.5 37z M410 96q0 34 61 139t123 193l61 88q-27 39 -67 98.5t-107 175t-67 150.5q0 25 25 46t50 30l25 8q12 -18 32 -47.5t71.5 -109t90.5 -143.5t71 -126t32 -82q0 -33 -75.5 -162t-151.5 -242l-76 -112q-4 1 -10.5 3t-23.5 10.5t-30 18.5t-23.5 27t-10.5 37z" />
<glyph unicode="&#x2c6;" horiz-adv-x="516" d="M0 1219l231 251q14 7 35 7q26 0 51 -25q4 -4 11 -11.5t28 -29t39.5 -41.5t41.5 -45.5t39.5 -46t28 -37.5t11.5 -24q0 -22 -36 -36t-83 -14q-106 109 -133 160q-5 -6 -13 -17t-30 -38t-40.5 -48t-39 -38t-30.5 -17q-80 0 -111 50z" />
<glyph unicode="&#x2da;" horiz-adv-x="395" d="M0 1350q0 100 53.5 150t151.5 50q100 0 145 -43.5t45 -154.5q0 -99 -51.5 -150t-150.5 -51q-98 0 -145.5 44.5t-47.5 154.5zM119 1348q0 -40 19.5 -62t56.5 -22q84 0 84 88q0 84 -72 84q-88 0 -88 -88z" />
<glyph unicode="&#x2dc;" horiz-adv-x="602" d="M0 1278q94 154 231 154q29 0 53 -15t38 -33.5t37 -33.5t51 -15q33 0 56.5 12t33.5 27t21.5 27t21.5 12q16 0 30.5 -23t21.5 -46l7 -23q-6 -11 -22.5 -31.5t-45 -48t-70.5 -46.5t-85 -19q-37 0 -63.5 15.5t-38.5 33.5t-31.5 33.5t-44.5 15.5q-24 0 -45 -12.5t-32.5 -27.5 t-23 -27.5t-20.5 -12.5q-20 0 -40 21t-30 42z" />
<glyph unicode="&#x401;" horiz-adv-x="655" d="M90 0v1399q0 4 1.5 10t10 15.5t23.5 9.5h489v-12q0 -97 -4 -117.5t-26 -20.5h-326v-428h307q0 -104 -4 -129t-26 -25h-277v-552h350q0 -107 -4.5 -128.5t-28.5 -21.5h-485zM131 1718q0 43 27.5 74t72.5 31q103 0 103 -105q0 -45 -28.5 -74.5t-74.5 -29.5q-54 0 -77 26 t-23 78zM424 1718q0 43 27 74t71 31q103 0 103 -105q0 -46 -27.5 -75t-75.5 -29q-53 0 -75.5 26t-22.5 78z" />
<glyph unicode="&#x410;" horiz-adv-x="894" d="M10 2l365 1409q6 29 63 29q48 0 78 -6l367 -1403q3 -19 -11 -27t-61 -8q-57 0 -98 4l-86 365h-355l-79 -336q-5 -19 -18.5 -26t-59.5 -7q-47 0 -105 6zM307 516h283l-70 291q-53 217 -71 393q-20 -163 -72 -393z" />
<glyph unicode="&#x411;" horiz-adv-x="768" d="M88 0v1399q0 4 1.5 10t10 15.5t23.5 9.5h536q0 -105 -3.5 -124.5t-26.5 -19.5h-371v-424h111q187 0 275.5 -100.5t88.5 -306.5q0 -227 -105 -343t-274 -116h-266zM258 150q75 -5 98 -5q81 0 133 79.5t52 244.5q0 244 -181 244l-102 -4v-559z" />
<glyph unicode="&#x412;" horiz-adv-x="770" d="M88 0v1395q0 20 12 29.5t43 9.5h203q344 0 344 -318q0 -80 -18 -144t-47.5 -101.5t-62.5 -58.5t-68 -26q32 -2 61.5 -9.5t63.5 -28t58.5 -51.5t41 -85.5t16.5 -124.5q0 -125 -30.5 -220.5t-84.5 -152.5t-123 -85.5t-151 -28.5h-258zM258 145h92q83 0 137 81.5t54 246.5 q0 77 -13 125t-41 70.5t-57.5 29.5t-77.5 7h-94v-560zM258 848h100q68 0 109 59t41 176q0 115 -41.5 159t-110.5 44h-98v-438z" />
<glyph unicode="&#x413;" horiz-adv-x="663" d="M90 0v1399q0 4 1.5 10t10 15.5t23.5 9.5h522q0 -104 -4 -124t-27 -20h-358v-1257q0 -4 -1 -9.5t-9 -14.5t-23 -9h-135z" />
<glyph unicode="&#x414;" horiz-adv-x="997" d="M27 123v-432q63 0 90 7.5t37 33.5q19 59 36 268h582q10 -127 51 -309q34 0 49.5 1t34 5t25 13.5t6.5 25.5v422h-96v1276h-371q-137 0 -161.5 -4.5t-24.5 -30.5q-14 -539 -47 -812t-113 -429q-69 -2 -83 -9q-15 -8 -15 -26zM291 158q73 177 106 429.5t49 690.5h234v-1120 h-389z" />
<glyph unicode="&#x415;" horiz-adv-x="655" d="M90 0v1399q0 4 1.5 10t10 15.5t23.5 9.5h489v-12q0 -97 -4 -117.5t-26 -20.5h-326v-428h307q0 -104 -4 -129t-26 -25h-277v-552h350q0 -107 -4.5 -128.5t-28.5 -21.5h-485z" />
<glyph unicode="&#x416;" horiz-adv-x="1204" d="M43 1386q-10 24 3 35t46 11q80 0 119 -9l307 -592v568q0 26 21 30.5t147 4.5v-603l309 592q37 9 117 9q35 0 48 -11t1 -35l-305 -577q72 -65 129.5 -168t88.5 -204.5t51 -193.5t26 -149l6 -57q2 -24 -7 -32.5t-38 -8.5q-90 0 -131 4q-1 53 -10 124.5t-31 162t-54 171 t-84.5 148.5t-115.5 96v-669q0 -25 -21 -29t-147 -4v702q-79 -35 -139.5 -127.5t-92 -204.5t-46.5 -205.5t-17 -164.5q-39 -4 -131 -4q-28 0 -38 9t-9 32q1 11 3 31t11.5 81t22.5 120t37.5 138.5t54.5 148t75.5 137.5t98.5 116z" />
<glyph unicode="&#x417;" horiz-adv-x="669" d="M37 117q0 49 31 127q78 -94 184 -94q85 0 144 70t59 220q0 71 -25 119t-71.5 72t-97.5 33.5t-118 9.5v131q51 4 89.5 12.5t76 29t61 51.5t38 83t14.5 121q0 101 -43.5 149.5t-120.5 48.5q-109 0 -184 -67q-35 61 -35 115q0 19 24.5 43.5t85.5 46.5t142 22 q145 0 226 -83.5t81 -235.5q0 -250 -133 -344q-1 0 -10.5 -7t-13.5 -9l-13 -6.5t-18.5 -7t-20.5 -3.5q41 -3 68 -12q25 -10 51 -28t57 -52t50.5 -93t19.5 -133q0 -126 -31 -220.5t-84.5 -148t-117 -79t-136.5 -25.5q-99 0 -164 44.5t-65 99.5z" />
<glyph unicode="&#x418;" horiz-adv-x="911" d="M90 0v1399v1q0 26 20.5 30t145.5 4v-676q0 -127 -18 -426q87 297 188 538l217 521q14 33 38.5 38t139.5 5v-1401v-2q0 -23 -20.5 -27t-145.5 -4v526q0 311 25 604q-125 -405 -197 -567l-217 -520q-13 -33 -36 -38t-140 -5z" />
<glyph unicode="&#x419;" horiz-adv-x="911" d="M90 0v1399v1q0 26 20.5 30t145.5 4v-676q0 -127 -18 -426q87 297 188 538l217 521q14 33 38.5 38t139.5 5v-1401v-2q0 -23 -20.5 -27t-145.5 -4v526q0 311 25 604q-125 -405 -197 -567l-217 -520q-13 -33 -36 -38t-140 -5zM219 1798q0 34 19.5 54.5t66.5 37.5 q24 -63 66 -112t104 -49q33 0 58 11t44.5 36t28.5 40.5t25 47.5q26 36 66.5 8.5t50.5 -74.5q-82 -227 -275 -227q-99 0 -176.5 77t-77.5 150z" />
<glyph unicode="&#x41a;" horiz-adv-x="796" d="M86 0v1399q0 26 21 30.5t147 4.5v-617l326 606q63 13 106 13q92 0 68 -50l-330 -571q248 -188 328 -778q2 -24 -12 -32.5t-56 -8.5q-56 0 -117 6q-48 262 -98 411.5t-131 237.5q-34 37 -84 56v-674q0 -25 -21 -29t-147 -4z" />
<glyph unicode="&#x41b;" horiz-adv-x="954" d="M8 51q0 -28 46 -44.5t100 -16.5q169 0 222.5 272t88.5 1014h235v-1276q124 0 145 4t21 29v1401h-397q-125 0 -145.5 -4t-20.5 -30v-1q-4 -185 -9.5 -329t-15 -293.5t-22.5 -257t-31 -194.5t-43.5 -131t-56.5 -44q-55 0 -92 18q-25 -52 -25 -117z" />
<glyph unicode="&#x41c;" horiz-adv-x="1001" d="M88 0v1399q0 22 9 28.5t26 6.5h121l194 -619l66 -229q34 145 59 223l180 590q10 35 33 35h135v-1401q0 -25 -21 -29t-149 -4l7 498q4 131 18 342t20 266q-112 -402 -133 -463l-108 -311q-5 -17 -23 -17h-71l-107 328q-21 60 -131 463l-2 -2q37 -379 43 -598v-473 q0 -24 -23 -28.5t-143 -4.5z" />
<glyph unicode="&#x41d;" horiz-adv-x="837" d="M90 0v1399v1q0 26 20.5 30t145.5 4v-584h326v549v2q0 25 20.5 29t145.5 4v-1401v-1q0 -24 -20.5 -28t-145.5 -4v696h-326v-663v-1q0 -24 -20.5 -28t-145.5 -4z" />
<glyph unicode="&#x41e;" horiz-adv-x="878" d="M61 725q0 270 44 431t128 228.5t220 67.5t213.5 -65.5t114 -221.5t36.5 -434q0 -281 -41.5 -445t-124 -234t-221.5 -70q-137 0 -214.5 62.5t-116 224.5t-38.5 456zM248 684q0 -291 41.5 -411.5t148.5 -120.5q110 0 154.5 130t44.5 445q0 312 -39.5 433.5t-148.5 121.5 q-73 0 -116 -57.5t-64 -188t-21 -352.5z" />
<glyph unicode="&#x41f;" horiz-adv-x="827" d="M90 0v1399q0 26 22 30.5t144 4.5h481v-1401q0 -25 -21 -29t-145 -4v1276h-315v-1243q0 -25 -21 -29t-145 -4z" />
<glyph unicode="&#x420;" horiz-adv-x="737" d="M88 0v1399q0 19 7.5 27t27.5 8h203q195 0 285.5 -96.5t90.5 -309.5q0 -123 -29.5 -212t-82.5 -138.5t-118 -72.5t-146 -23h-72v-549q0 -25 -21 -29t-145 -4zM254 735h90q89 0 131.5 73t42.5 239q0 241 -162 241h-102v-553z" />
<glyph unicode="&#x421;" horiz-adv-x="696" d="M61 657q0 146 13 264.5t34.5 201t54 144t66 98t76 58.5t80 29.5t80.5 7.5q104 0 148 -32.5t44 -79.5t-26 -101q-57 51 -133 51q-43 0 -78 -13.5t-70.5 -54t-59.5 -108t-39 -183.5t-15 -273q0 -152 14.5 -254.5t43 -156.5t63 -75.5t83.5 -21.5q56 0 107 18.5t82 44.5 q24 -46 24 -100q0 -62 -70.5 -105t-181.5 -43q-45 0 -80.5 6.5t-72 25t-63.5 50t-51.5 83.5t-39.5 123t-24 171t-9 225z" />
<glyph unicode="&#x422;" horiz-adv-x="763" d="M16 1278v121q0 19 8 27t27 8h697v-123q0 -18 -8 -25.5t-27 -7.5h-252v-1245q0 -25 -21.5 -29t-144.5 -4v1278h-279z" />
<glyph unicode="&#x423;" horiz-adv-x="759" d="M16 1405q0 -14 25 -98q226 -816 303 -1033q-17 -133 -76 -133q-32 0 -96 31q-40 -72 -29 -121q5 -26 49 -43t105 -16q24 0 44 5.5t36 12.5t30.5 24.5t24 29t20.5 39.5t16.5 43.5t14.5 52.5t13 54t13 61q2 9 3 14q29 119 131 596.5t109 509.5h-129q-28 -20 -43 -52 t-27 -84l-61 -315q-55 -302 -82 -522q-22 115 -63 299t-58 268l-107 406h-116q-26 0 -38 -6t-12 -23z" />
<glyph unicode="&#x424;" horiz-adv-x="1163" d="M49 725q0 116 27 216t81 180t141 131.5t200 64.5v61q0 57 21.5 66.5t146.5 9.5v-135q116 -12 203 -61t140 -128t79 -178.5t26 -220.5q0 -120 -26.5 -222.5t-79.5 -185t-140.5 -134.5t-201.5 -64v-113v-1q0 -23 -19 -27t-133 -4h-14v139q-120 10 -207.5 57.5t-140.5 128.5 t-78 185t-25 235zM219 700q0 -80 15 -148t46.5 -127t87.5 -97t132 -49v880q-72 -11 -127.5 -53t-88 -105.5t-49 -139.5t-16.5 -161zM664 285q72 11 126 52t85 103t46 133.5t15 153.5q0 397 -272 434v-876z" />
<glyph unicode="&#x425;" horiz-adv-x="868" d="M18 0l314 741l-258 664q-6 18 7 22q18 7 189 7l82 -232q71 -192 101 -307q47 160 102 307l78 205q5 17 15 21q17 6 165 6l-264 -680l293 -725q7 -13 2.5 -21t-19.5 -8h-182l-111 276q-42 105 -108 302q-62 -184 -113 -302l-110 -256q-13 -20 -39 -20h-144z" />
<glyph unicode="&#x426;" horiz-adv-x="882" d="M90 0v1399q0 26 21 30.5t145 4.5v-1276h313v1241q0 26 22 30.5t146 4.5v-1276h92v-420q0 -12 -2.5 -20t-10.5 -13t-14.5 -8t-23 -4.5t-27.5 -1.5h-36q-40 175 -49 309h-576z" />
<glyph unicode="&#x427;" horiz-adv-x="765" d="M37 920v479q0 26 20.5 30.5t141.5 4.5v-484q0 -245 166 -245q76 0 147 36v658q0 26 21 30.5t143 4.5v-1401q0 -25 -21 -29t-143 -4v588q-90 -35 -184 -35q-144 0 -217.5 93t-73.5 274z" />
<glyph unicode="&#x428;" horiz-adv-x="1150" d="M90 0v1399v2q0 25 20.5 29t143.5 4v-1276h240v1241v4q0 20 10 24q15 7 153 7v-1276h242v1241v3q0 24 20 28t142 4v-1352q0 -61 -24.5 -71.5t-157.5 -10.5h-789z" />
<glyph unicode="&#x429;" horiz-adv-x="1204" d="M90 0v1399v2q0 25 20.5 29t143.5 4v-1276h240v1241v4q0 20 10 24q15 7 153 7v-1276h242v1241v3q0 24 20 28t142 4v-1276h92v-420q0 -31 -24 -39t-91 -8q-39 151 -49 309h-899z" />
<glyph unicode="&#x42a;" horiz-adv-x="950" d="M31 1288v98q0 48 41 48h368v-568h111q187 0 275.5 -100.5t88.5 -306.5q0 -228 -104.5 -343.5t-273.5 -115.5h-267v1288h-239zM440 150q76 -5 99 -5q80 0 132 80t52 244q0 244 -180 244l-103 -4v-559z" />
<glyph unicode="&#x42b;" horiz-adv-x="1083" d="M88 0v1393q0 31 22 36t148 5v-568h111q183 0 269.5 -100.5t86.5 -306.5q0 -227 -103 -343t-268 -116h-266zM258 150q76 -5 96 -5q77 0 126.5 79.5t49.5 244.5q0 244 -172 244l-100 -4v-559zM827 0q2 353 2 717l-2 641q0 57 21.5 66.5t146.5 9.5q-4 -407 -4 -717l4 -684 q0 -25 -21.5 -29t-146.5 -4z" />
<glyph unicode="&#x42c;" horiz-adv-x="765" d="M88 0v1393q0 31 22 36t148 5v-568h111q187 0 275.5 -100.5t88.5 -306.5q0 -227 -105 -343t-274 -116h-266zM258 150q75 -5 98 -5q81 0 133 79.5t52 244.5q0 244 -181 244l-102 -4v-559z" />
<glyph unicode="&#x42d;" horiz-adv-x="698" d="M51 106q0 69 27 121q75 -63 180 -63q47 0 83 24.5t64 79t44 149.5t18 230h-287q-22 0 -26 25t-4 127h317q-2 98 -10.5 174.5t-21 127.5t-31.5 87.5t-37 56.5t-44 31t-46.5 13.5t-49.5 2.5q-84 0 -143 -51q-25 45 -25 100q0 43 57 77t165 34q61 0 108 -13.5t97.5 -59.5 t83 -123.5t54 -214.5t21.5 -324t-19.5 -322.5t-50.5 -214.5t-81 -125t-100 -60.5t-118 -14.5q-90 0 -157.5 39t-67.5 87z" />
<glyph unicode="&#x42e;" horiz-adv-x="1191" d="M94 0v1399v1q0 26 20.5 30t145.5 4v-629h129q5 240 48.5 383.5t123.5 204.5t207 61q135 0 212.5 -65.5t115 -223t37.5 -434.5q0 -280 -41 -445.5t-123 -235.5t-217 -70q-130 0 -205.5 57t-115.5 204t-44 410h-127v-618v-1q0 -24 -20.5 -28t-145.5 -4zM569 684 q0 -290 41.5 -411t145.5 -121q107 0 149.5 129.5t42.5 445.5q0 312 -39 434.5t-145 122.5q-69 0 -111 -58t-63 -190t-21 -352z" />
<glyph unicode="&#x42f;" horiz-adv-x="768" d="M49 1028q0 210 98 308t295 98h203q16 0 24.5 -9t9.5 -17l1 -9v-1399q-125 0 -145.5 4t-20.5 27v2v528h-88q-23 0 -33 2q-23 -31 -38.5 -59.5t-41 -89t-44.5 -157t-31 -220.5q0 -25 -13.5 -33t-62.5 -8q-35 0 -109 4q8 221 64 376t119 236q-85 44 -136 152.5t-51 263.5z M233 1047q0 -152 42 -235.5t122 -92.5q16 -2 54 -2q17 0 38 2t25 2v563q-2 0 -15 1t-36.5 2t-50.5 1q-90 0 -134.5 -64t-44.5 -177z" />
<glyph unicode="&#x430;" horiz-adv-x="724" d="M59 291q0 69 10.5 123.5t30 90.5t44 60.5t57 37.5t63.5 18.5t68 5.5q94 0 149 -27v162q0 69 -31 95t-96 26q-75 0 -149.5 -13t-120.5 -32q-23 42 -23 94q0 40 23 57q31 20 117.5 37.5t193.5 17.5q134 0 194 -56.5t60 -192.5v-109q0 -450 -12 -637q-115 -69 -285 -69 q-51 -1 -88.5 4t-78.5 24t-66.5 51.5t-42.5 91.5t-17 140zM233 295q0 -72 18 -112t45 -52t71 -12q32 0 63 10.5t45 24.5q6 68 6 329q-43 19 -96 19q-34 0 -59 -7.5t-47.5 -28.5t-34 -64t-11.5 -107z" />
<glyph unicode="&#x431;" horiz-adv-x="755" d="M47 557v74q2 176 21 319q51 357 215 422l309 121q38 -96 26 -141q-6 -22 -51 -39l-209 -84q-84 -34 -124 -146.5t-58 -289.5q46 141 112.5 196t157.5 55q136 0 204.5 -126.5t68.5 -409.5q0 -270 -83 -399t-251 -129q-81 0 -140.5 26.5t-97 73t-60 120.5t-31.5 159t-9 198 zM209 582q0 -246 40 -347.5t136 -101.5q84 0 127 91t43 249q0 197 -37 299t-121 102q-79 0 -133.5 -81.5t-54.5 -210.5z" />
<glyph unicode="&#x432;" horiz-adv-x="749" d="M92 0v989q0 18 11 26.5t42 8.5h191q52 0 94 -5t86 -20.5t73.5 -41t48.5 -69t19 -102.5q0 -51 -13.5 -93t-33.5 -68.5t-45 -45.5t-45 -27.5t-37 -10.5q37 -3 66 -13q149 -38 149 -202q0 -145 -91 -235.5t-269 -90.5h-246zM252 133h88q83 0 127.5 51t44.5 152 q0 75 -35.5 107t-124.5 32q-24 0 -57 -2t-43 -2v-338zM252 588q29 -2 86 -2q63 0 104 41.5t41 130.5q0 47 -11.5 76.5t-36 42.5t-47 16.5t-58.5 3.5l-78 -2v-307z" />
<glyph unicode="&#x433;" horiz-adv-x="587" d="M78 0v881q0 97 5.5 120t31.5 23h454q0 -99 -5 -121t-29 -22h-291v-848v-2q0 -23 -20.5 -27t-145.5 -4z" />
<glyph unicode="&#x434;" horiz-adv-x="882" d="M14 121v-400q65 0 91 6t34 31q21 68 37 242h504q6 -110 47 -279q33 0 49 1t33.5 5t24 14t6.5 26v389h-90v868h-312h-30q-133 0 -155 -4.5t-22 -30.5q-11 -319 -34.5 -514t-85.5 -319q-75 -2 -87 -11q-10 -6 -10 -24zM272 156q37 86 60.5 205.5t31 201.5t19.5 262 q3 37 4 56h193v-725h-308z" />
<glyph unicode="&#x435;" horiz-adv-x="737" d="M59 459q0 148 21.5 257t54.5 170.5t83.5 98.5t97.5 48t108 11q260 0 260 -329q0 -150 -25 -266q-134 -27 -428 -33q6 -158 50 -216.5t143 -58.5q119 0 231 64q17 -44 17 -113q0 -47 -83.5 -79.5t-201.5 -32.5q-61 0 -107.5 11.5t-89.5 42.5t-70.5 83.5t-44 138.5 t-16.5 203zM233 551q202 0 279 22q10 46 10 123q-2 112 -27.5 157.5t-91.5 45.5q-155 0 -170 -348z" />
<glyph unicode="&#x436;" horiz-adv-x="1067" d="M52 1010.5q11 13.5 50 13.5q76 0 101 -6l248 -428v366q0 43 4 54q6 10 35 12t126 2v-434l250 428q23 6 101 6q37 0 48 -13.5t-3 -45.5l-248 -387q59 -44 108 -122t77.5 -161t43.5 -142.5t21 -101.5q3 -51 -53 -51h-109q-6 55 -22 120.5t-43 140t-72 132t-99 76.5v-438 q0 -23 -21.5 -27t-143.5 -4v469q-55 -17 -100.5 -75t-72.5 -134t-42 -140t-21 -120q-6 0 -30.5 -1.5t-37 -1.5h-31t-30 3t-16.5 8q-16 13 -13 41q8 46 23 104.5t43.5 144.5t76 162.5t103.5 117.5l-246 387q-16 32 -5 45.5z" />
<glyph unicode="&#x437;" horiz-adv-x="686" d="M47 922q0 41 68 81.5t194 40.5q145 0 220 -62t75 -185q0 -55 -17.5 -101t-43.5 -73.5t-56.5 -47t-55.5 -27t-42 -7.5q44 -1 85 -13.5t79 -37.5t61 -72t23 -109q0 -161 -94.5 -245t-247.5 -84q-108 0 -177 32.5t-69 75.5q0 48 29 107q103 -66 203 -66q81 0 134.5 46 t53.5 140q0 37 -15 63.5t-39 42t-63 24.5t-77 11.5t-91 2.5v116q38 0 72.5 6t68.5 21t59 38t40.5 59.5t15.5 82.5q0 115 -153 115q-101 0 -201 -72q-39 60 -39 97z" />
<glyph unicode="&#x438;" horiz-adv-x="802" d="M90 0v993q0 23 22.5 27t127.5 4v-463q0 -38 -4.5 -96t-11.5 -125t-9 -88q16 39 56.5 126t77.5 164t40 85l182 358q13 29 32 34t110 5v-993q0 -22 -20 -26.5t-128 -4.5v383q0 17 12.5 185t14.5 220q-23 -54 -99 -216.5t-77 -165.5l-185 -367q-9 -17 -13 -23t-21.5 -10.5 t-36 -5t-70.5 -0.5z" />
<glyph unicode="&#x439;" horiz-adv-x="802" d="M90 0v993q0 23 22.5 27t127.5 4v-463q0 -38 -4.5 -96t-11.5 -125t-9 -88q16 39 56.5 126t77.5 164t40 85l182 358q13 29 32 34t110 5v-993q0 -22 -20 -26.5t-128 -4.5v383q0 17 12.5 185t14.5 220q-23 -54 -99 -216.5t-77 -165.5l-185 -367q-9 -17 -13 -23t-21.5 -10.5 t-36 -5t-70.5 -0.5zM156 1389q0 34 19.5 54.5t66.5 37.5q24 -63 66 -112.5t104 -49.5q26 0 49 9.5t36.5 20t29.5 34t21 34t19 37.5q26 36 66.5 9t50.5 -74q-82 -228 -274 -228q-99 0 -176.5 77.5t-77.5 150.5z" />
<glyph unicode="&#x43a;" horiz-adv-x="741" d="M96 0v993v1q0 23 20.5 26.5t143.5 3.5v-434l266 428q25 6 105 6q41 0 52 -13.5t-5 -45.5l-266 -387q70 -50 125.5 -126.5t86 -153.5t46 -142t16.5 -109q0 -27 -14 -37t-43 -10h-111q-7 50 -26.5 116t-51 138.5t-79.5 132.5t-101 82v-399q0 -40 -4 -56q-7 -10 -36.5 -12 t-123.5 -2z" />
<glyph unicode="&#x43b;" horiz-adv-x="862" d="M8 59q0 53 25 95q34 -17 76 -17q49 0 73 107q48 211 62 745q0 26 22 30.5t155 4.5h30h319v-991q0 -25 -22 -29t-152 -4v881h-199q-10 -186 -17 -285.5t-23 -224.5t-38 -201q-52 -178 -180 -178q-131 0 -131 67z" />
<glyph unicode="&#x43c;" horiz-adv-x="978" d="M92 0v1001q0 3 1 6.5t9 10t23 6.5h117l190 -442l60 -158q2 6 27 76.5t42 113.5l160 387q10 18 17 20q7 3 18 3h129v-999q0 -16 -9 -19q-15 -6 -153 -6l6 362q0 62 19 213t20 211q-28 -43 -124 -301l-9 -24l-103 -221q-8 -11 -22 -11h-70l-100 232q-6 12 -27.5 66.5 t-52 133t-47.5 119.5h-2q0 -54 16.5 -202t16.5 -207l4 -346q0 -19 -21 -22t-135 -3z" />
<glyph unicode="&#x43d;" horiz-adv-x="800" d="M94 0v989v3q0 24 20.5 28t145.5 4v-440h275v405q0 26 22 30.5t150 4.5v-991v-1q0 -24 -21.5 -28t-150.5 -4v440h-275v-407v-2q0 -23 -20.5 -27t-145.5 -4z" />
<glyph unicode="&#x43e;" horiz-adv-x="770" d="M55 512q0 532 340 532q113 0 180 -44t103.5 -160.5t36.5 -321.5q0 -280 -85 -409t-253 -129q-68 0 -114.5 11t-88.5 43.5t-66.5 91t-38.5 154t-14 232.5zM236 508q0 -124 9 -202.5t29.5 -118t44.5 -53t62 -13.5q35 0 61 17.5t47 60t32 122t11 195.5q0 160 -16.5 244.5 t-45 111.5t-81.5 27q-29 0 -51 -10t-41.5 -36t-32.5 -69.5t-20.5 -112.5t-7.5 -163z" />
<glyph unicode="&#x43f;" horiz-adv-x="796" d="M94 0v989v4q0 23 20.5 27t145.5 4h445v-991v-1q0 -20 -10 -25q-24 -7 -163 -7v881h-272v-848v-2q0 -23 -20.5 -27t-145.5 -4z" />
<glyph unicode="&#x440;" horiz-adv-x="782" d="M94 -332v1295q128 81 299 81q80 0 138.5 -20t104 -66.5t68.5 -131.5t23 -208q0 -115 -10 -208.5t-26 -159t-40.5 -114.5t-50 -78.5t-57.5 -47.5t-60.5 -24t-60.5 -6q-105 0 -162 57v-426q-38 -14 -86 -14q-44 0 -62 15.5t-18 55.5zM260 197q42 -68 111 -68q172 0 172 471 q0 119 -18.5 186t-51.5 90t-88 23q-70 0 -125 -39v-663z" />
<glyph unicode="&#x441;" horiz-adv-x="638" d="M61 489q0 119 15 211.5t43.5 151.5t62.5 98.5t78.5 59t83.5 27t86 7.5q72 0 121 -26t49 -66q0 -45 -16 -92q-68 37 -146 37q-32 0 -57.5 -7t-54 -32t-47 -67.5t-31 -119.5t-12.5 -182q0 -142 20.5 -222.5t58.5 -110t103 -29.5q46 0 90.5 14t71.5 33q16 -49 16 -90 q0 -42 -64.5 -73t-162.5 -31q-63 0 -108 11.5t-85 43.5t-64 88t-37.5 147t-13.5 219z" />
<glyph unicode="&#x442;" horiz-adv-x="686" d="M37 879q0 101 5 123t32 22h575q0 -100 -5.5 -122.5t-31.5 -22.5h-186v-846v-2q0 -23 -20.5 -27t-145.5 -4v879h-223z" />
<glyph unicode="&#x443;" horiz-adv-x="729" d="M-8 -315q0 59 24 94q47 -31 129 -31q110 0 150 219l-246 1012q-9 34 11 39.5t151 5.5l111 -487q15 -73 28.5 -164t19.5 -146l7 -55q20 199 49 367l90 436q6 37 29 43t151 6l-252 -1079q-45 -193 -108.5 -266.5t-177.5 -73.5q-166 0 -166 80z" />
<glyph unicode="&#x444;" horiz-adv-x="1110" d="M47 467q0 143 17.5 250t45 168t67 98t76 49t79.5 12q74 0 141 -45v385q0 55 25.5 65.5t136.5 10.5v-463q70 45 145 45q66 0 116.5 -25t88.5 -78.5t58 -145t20 -218.5q0 -140 -22 -249.5t-54.5 -172t-75.5 -102.5t-79.5 -53.5t-71.5 -13.5q-76 0 -125 39v-418 q-43 -15 -96 -15q-41 0 -53.5 14.5t-12.5 57.5v365q-57 -43 -125 -43q-132 0 -216.5 133t-84.5 350zM221 487q0 -162 46.5 -252t119.5 -90q46 0 86 29v682q-47 29 -90 29q-23 0 -43.5 -8.5t-43 -34.5t-38.5 -68t-26.5 -115.5t-10.5 -171.5zM635 178q34 -31 80 -31 q18 0 37 7.5t44 33.5t43.5 68t32 119.5t13.5 179.5q0 164 -38.5 247t-109.5 83q-61 0 -102 -29v-678z" />
<glyph unicode="&#x445;" horiz-adv-x="839" d="M31 0l288 537l-247 460q-9 17 1 21q14 6 173 6l76 -139q24 -46 64.5 -135.5t45.5 -98.5q51 120 111 234l61 110q10 22 34 25.5t153 3.5l-263 -479l273 -506q11 -24 3 -30q-12 -9 -131 -9h-1h-1h-1h-1h-1h-1h-1h-1h-1h-1h-1h-1h-1h-1h-1h-1h-1h-1h-1h-1h-1h-1h-1h-1h-1h-1 h-1h-1h-2h-1h-1h-1h-1h-1h-1h-1h-1h-1h-1h-1h-1h-1h-1h-1h-1h-1h-1h-9l-75 133q-32 60 -133 275q-71 -162 -129 -275l-58 -100q-10 -24 -39.5 -28.5t-150.5 -4.5z" />
<glyph unicode="&#x446;" horiz-adv-x="843" d="M94 0v989v1q0 26 21 30t149 4v-868h271v833v2q0 21 10 26q22 7 157 7v-868h86v-389q0 -31 -24.5 -38.5t-87.5 -7.5q-40 153 -47 279h-535z" />
<glyph unicode="&#x447;" horiz-adv-x="751" d="M53 645v344v3q0 24 20.5 28t145.5 4v-354q0 -91 29 -133.5t90 -42.5q80 0 149 34v461q0 26 22 30.5t150 4.5v-991q0 -25 -21.5 -29t-150.5 -4v387q-101 -39 -186 -39q-123 0 -185.5 81.5t-62.5 215.5z" />
<glyph unicode="&#x448;" horiz-adv-x="1173" d="M94 0v989v1q0 26 21 30t149 4v-868h238v833q0 26 21 30.5t149 4.5v-868h237v833q0 26 21.5 30.5t148.5 4.5v-991v-4q0 -22 -20.5 -25.5t-145.5 -3.5h-819z" />
<glyph unicode="&#x449;" horiz-adv-x="1220" d="M94 0v989v1q0 26 21 30t149 4v-868h238v833q0 26 21 30.5t149 4.5v-868h237v833q0 26 21.5 30.5t148.5 4.5v-868h86v-389q0 -31 -25 -38.5t-87 -7.5q-40 153 -47 279h-912z" />
<glyph unicode="&#x44a;" horiz-adv-x="899" d="M27 879v30q0 80 4 97.5t26 17.5h351v-401h112q83 0 139.5 -12t102.5 -42.5t68 -88.5t22 -146q0 -75 -20 -133.5t-53 -95.5t-78 -61.5t-92 -34t-99 -9.5h-262v879h-221zM408 133h90q81 0 124.5 43.5t43.5 151.5q0 57 -11 92t-36 51.5t-51.5 21.5t-71.5 5q-22 0 -51 -1 t-37 -1v-363z" />
<glyph unicode="&#x44b;" horiz-adv-x="1040" d="M92 0v946q0 21 0.5 32t7.5 21.5t14 14t29.5 6.5t43.5 3.5t65 0.5v-401h110q63 0 110 -7t88 -25t67 -49t40.5 -79.5t14.5 -114.5q0 -98 -28.5 -168.5t-77.5 -108t-104 -54.5t-120 -17h-260zM252 133h88q77 0 117.5 45.5t40.5 163.5q0 52 -10 84.5t-33.5 47.5t-49 19.5 t-69.5 4.5l-84 -2v-363zM780 0v948q0 54 28.5 65t137.5 11v-991v-1q0 -24 -20.5 -28t-145.5 -4z" />
<glyph unicode="&#x44c;" horiz-adv-x="743" d="M92 0v909q0 55 8 86q10 20 39 24.5t113 4.5v-401h113q81 0 138 -11.5t102.5 -41t68 -85t22.5 -137.5q0 -65 -12 -116.5t-32.5 -87.5t-51.5 -62.5t-63.5 -42t-75.5 -24.5t-80.5 -12t-83.5 -3h-205zM252 133h88q83 0 126.5 45.5t43.5 163.5q0 52 -11 84.5t-36 47.5 t-52 19.5t-73 4.5l-86 -2v-363z" />
<glyph unicode="&#x44d;" horiz-adv-x="630" d="M43 975q0 25 61 50.5t134 25.5q39 0 68.5 -3t67 -15t65.5 -33t57 -60t47 -92t29.5 -133t11.5 -180q0 -138 -13 -236t-38 -161.5t-67.5 -100t-93.5 -50.5t-124 -14q-75 0 -136 30t-61 63q0 41 17 104q30 -21 75.5 -35t85.5 -14q90 0 131.5 69.5t47.5 249.5h-281 q0 97 5.5 119.5t31.5 22.5h246q-2 87 -15 149t-30 94.5t-44.5 51t-48.5 22.5t-51 4q-88 0 -160 -41q-18 53 -18 113z" />
<glyph unicode="&#x44e;" horiz-adv-x="1077" d="M94 0v989v3q0 24 20.5 28t145.5 4v-444h123q20 471 332 471q111 0 177.5 -46t102 -164t35.5 -323q0 -281 -82.5 -415t-245.5 -134q-64 0 -109 10.5t-85.5 40.5t-65.5 82t-40.5 136t-18.5 202h-123v-407v-2q0 -23 -20.5 -27t-145.5 -4zM561 508q0 -164 17.5 -253 t46 -116.5t77.5 -27.5q46 0 77 33.5t51 126.5t20 245q0 160 -16 246t-44.5 114.5t-78.5 28.5q-34 0 -60 -18t-47 -60.5t-32 -122.5t-11 -196z" />
<glyph unicode="&#x44f;" horiz-adv-x="731" d="M59 719q0 152 87 228.5t251 76.5h244v-985q0 -29 -20.5 -34t-141.5 -5v408h-125q-52 -62 -77.5 -148.5t-34.5 -216.5q-6 -47 -70 -47q-58 0 -104 4q4 173 48 286.5t101 172.5q-158 71 -158 260zM236 723q0 -93 37.5 -137.5t95.5 -44.5q43 0 76 1t34 1v348l-6 1 q-6 0 -16 0.5t-22.5 1t-28.5 1t-31 0.5q-64 0 -101.5 -44.5t-37.5 -127.5z" />
<glyph unicode="&#x451;" horiz-adv-x="737" d="M59 459q0 148 21.5 257t54.5 170.5t83.5 98.5t97.5 48t108 11q260 0 260 -329q0 -150 -25 -266q-134 -27 -428 -33q6 -158 50 -216.5t143 -58.5q119 0 231 64q17 -44 17 -113q0 -47 -83.5 -79.5t-201.5 -32.5q-61 0 -107.5 11.5t-89.5 42.5t-70.5 83.5t-44 138.5 t-16.5 203zM164 1309q0 43 27 73.5t73 30.5q103 0 103 -104q0 -45 -28.5 -75t-74.5 -30q-53 0 -76.5 26.5t-23.5 78.5zM233 551q202 0 279 22q10 46 10 123q-2 112 -27.5 157.5t-91.5 45.5q-155 0 -170 -348zM457 1309q0 43 27 73.5t71 30.5q102 0 102 -104q0 -46 -27 -75.5 t-75 -29.5q-53 0 -75.5 26.5t-22.5 78.5z" />
<glyph unicode="&#x49a;" horiz-adv-x="829" d="M86 0v1399q0 26 21 30.5t147 4.5v-617l326 606q63 13 106 13q92 0 68 -50l-330 -571q220 -168 309 -655h103v-422q0 -30 -22.5 -38.5t-92.5 -8.5q-37 140 -51 305q-50 0 -103 6q-48 262 -98 411.5t-131 237.5q-34 37 -84 56v-674q0 -25 -21 -29t-147 -4z" />
<glyph unicode="&#x49b;" horiz-adv-x="770" d="M96 0v993v1q0 23 20.5 26.5t143.5 3.5v-434l266 428q25 6 105 6q41 0 52 -13.5t-5 -45.5l-266 -387q100 -71 164 -185.5t94 -232.5h100v-422q0 -30 -23.5 -38.5t-93.5 -8.5q-40 167 -49 309h-35h-51q-7 50 -26.5 116t-51 138.5t-79.5 132.5t-101 82v-399q0 -40 -4 -56 q-7 -10 -36.5 -12t-123.5 -2z" />
<glyph unicode="&#x4a2;" horiz-adv-x="878" d="M90 0v1399v1q0 26 20.5 30t145.5 4v-584h326v549v2q0 25 20.5 29t145.5 4v-1274h104v-422q0 -30 -22.5 -38.5t-92.5 -8.5q-37 144 -51 309h-35h-69v696h-326v-663v-1q0 -24 -20.5 -28t-145.5 -4z" />
<glyph unicode="&#x4a3;" horiz-adv-x="831" d="M94 0v989v3q0 24 20.5 28t145.5 4v-440h275v405q0 26 22 30.5t150 4.5v-864h100v-422q0 -30 -22.5 -38.5t-92.5 -8.5q-40 167 -49 309h-37h-71v440h-275v-407v-2q0 -23 -20.5 -27t-145.5 -4z" />
<glyph unicode="&#x2000;" horiz-adv-x="945" />
<glyph unicode="&#x2001;" horiz-adv-x="1890" />
<glyph unicode="&#x2002;" horiz-adv-x="945" />
<glyph unicode="&#x2003;" horiz-adv-x="1890" />
<glyph unicode="&#x2004;" horiz-adv-x="630" />
<glyph unicode="&#x2005;" horiz-adv-x="472" />
<glyph unicode="&#x2006;" horiz-adv-x="315" />
<glyph unicode="&#x2007;" horiz-adv-x="315" />
<glyph unicode="&#x2008;" horiz-adv-x="236" />
<glyph unicode="&#x2009;" horiz-adv-x="378" />
<glyph unicode="&#x200a;" horiz-adv-x="105" />
<glyph unicode="&#x2010;" horiz-adv-x="569" d="M76 504q0 88 5 116.5t28 28.5h385q0 -87 -5.5 -116t-29.5 -29h-383z" />
<glyph unicode="&#x2011;" horiz-adv-x="569" d="M76 504q0 88 5 116.5t28 28.5h385q0 -87 -5.5 -116t-29.5 -29h-383z" />
<glyph unicode="&#x2012;" horiz-adv-x="569" d="M76 504q0 88 5 116.5t28 28.5h385q0 -87 -5.5 -116t-29.5 -29h-383z" />
<glyph unicode="&#x2013;" horiz-adv-x="868" d="M76 504q0 88 5 116.5t28 28.5h684q0 -87 -5.5 -116t-29.5 -29h-682z" />
<glyph unicode="&#x2014;" horiz-adv-x="1433" d="M12 504q0 88 5 116.5t28 28.5h1376q0 -87 -5.5 -116t-29.5 -29h-1374z" />
<glyph unicode="&#x2018;" horiz-adv-x="358" d="M70 1298q0 70 30.5 150t66.5 130t56 50q53 0 66 -47q-20 -37 -31.5 -75t-14 -60.5t-5.5 -61.5q47 -27 47 -100q0 -45 -30 -75.5t-75 -30.5q-110 0 -110 120z" />
<glyph unicode="&#x2019;" horiz-adv-x="358" d="M70 1219q20 37 31.5 75.5t14 60.5t5.5 60q-47 27 -47 101q0 46 29 76t73 30q113 0 113 -121q0 -70 -30.5 -150t-67 -130t-56.5 -50q-54 0 -65 48z" />
<glyph unicode="&#x201a;" horiz-adv-x="350" d="M70 -186q20 36 31.5 74t14 60.5t5.5 61.5q-47 27 -47 101q0 45 29 75.5t73 30.5q113 0 113 -121q0 -70 -30.5 -150t-67 -129.5t-56.5 -49.5q-54 0 -65 47z" />
<glyph unicode="&#x201c;" horiz-adv-x="665" d="M70 1298q0 70 30.5 150t66.5 130t56 50q53 0 66 -47q-20 -37 -31.5 -75t-14 -60.5t-5.5 -61.5q47 -27 47 -100q0 -45 -30 -75.5t-75 -30.5q-110 0 -110 120zM377 1298q0 69 31 149.5t67 130.5t55 50q55 0 66 -47q-20 -37 -31.5 -75t-14 -60.5t-5.5 -61.5q47 -27 47 -100 q0 -45 -29.5 -75.5t-73.5 -30.5q-112 0 -112 120z" />
<glyph unicode="&#x201d;" horiz-adv-x="665" d="M70 1219q20 37 31.5 75.5t14 60.5t5.5 60q-47 27 -47 101q0 46 29 76t73 30q113 0 113 -121q0 -70 -30.5 -150t-67 -130t-56.5 -50q-54 0 -65 48zM379 1219q19 37 30 75.5t13.5 60.5t5.5 60q-47 27 -47 101q0 46 29 76t75 30q113 0 113 -121q0 -69 -31 -149.5t-68 -130.5 t-57 -50q-52 0 -63 48z" />
<glyph unicode="&#x201e;" horiz-adv-x="659" d="M70 -186q20 36 31.5 74t14 60.5t5.5 61.5q-47 27 -47 101q0 45 29 75.5t73 30.5q113 0 113 -121q0 -70 -30.5 -150t-67 -129.5t-56.5 -49.5q-54 0 -65 47zM379 -186q19 36 30 74t13.5 60.5t5.5 61.5q-47 27 -47 101q0 45 29.5 75.5t74.5 30.5q113 0 113 -121 q0 -69 -31 -149.5t-68 -130t-57 -49.5q-52 0 -63 47z" />
<glyph unicode="&#x2022;" horiz-adv-x="456" d="M84 582q0 66 40.5 111.5t108.5 45.5q154 0 154 -157q0 -67 -42 -111.5t-112 -44.5q-80 0 -114.5 40t-34.5 116z" />
<glyph unicode="&#x2026;" horiz-adv-x="1069" d="M72 104q0 50 30.5 84.5t83.5 34.5q115 0 115 -119q0 -51 -31 -83.5t-84 -32.5q-62 0 -88 29t-26 87zM420 104q0 50 31 84.5t84 34.5q114 0 114 -119q0 -51 -30.5 -83.5t-83.5 -32.5q-62 0 -88.5 29t-26.5 87zM768 104q0 50 31 84.5t84 34.5q114 0 114 -119 q0 -51 -30.5 -83.5t-83.5 -32.5q-62 0 -88.5 29t-26.5 87z" />
<glyph unicode="&#x202f;" horiz-adv-x="378" />
<glyph unicode="&#x2039;" horiz-adv-x="505" d="M37 512q0 31 74.5 159t148.5 241l74 112q29 0 54 -21t36 -42l10 -21q0 -35 -60 -142t-120 -196l-61 -90q27 -38 68 -96.5t109 -172t68 -147.5q-1 -4 -4 -10.5t-12.5 -23t-20 -29t-27 -23t-34.5 -10.5q-12 18 -32.5 48t-73 109.5t-92.5 144t-72.5 127t-32.5 83.5z" />
<glyph unicode="&#x203a;" horiz-adv-x="505" d="M66 96q0 34 61 138t123 191l61 87q-27 39 -66.5 99.5t-106 177t-66.5 151.5q0 25 24.5 46t49.5 30l24 8l32 -48t72 -110t91 -145t71.5 -127t32.5 -82q0 -33 -75.5 -161t-151.5 -239l-76 -112q-4 1 -11 3t-24 10.5t-30 18.5t-24 27t-11 37z" />
<glyph unicode="&#x205f;" horiz-adv-x="472" />
<glyph unicode="&#x20ac;" d="M33 406q0 79 12 108t53 29h111v18q0 51 4 133h-180q0 80 12 110t53 30h131q16 100 47.5 175.5t67.5 118.5t83.5 69.5t89 35t89.5 8.5q54 0 96 -9t64 -22.5t32.5 -26.5t10.5 -24q0 -73 -27 -112q-21 14 -59 28.5t-76 14.5q-36 0 -66.5 -9.5t-64.5 -35t-61.5 -79 t-44.5 -132.5h292q0 -80 -12 -110t-53 -30h-246q-4 -78 -4 -127v-24h248q0 -78 -12.5 -107.5t-53.5 -29.5h-176q8 -84 25.5 -138t45 -80.5t56.5 -35.5t72 -9q110 0 180 52q25 -48 25 -107q0 -35 -71 -70.5t-167 -35.5q-60 0 -104.5 9t-88 35.5t-72.5 72.5t-50 123t-29 184 h-182z" />
<glyph unicode="&#x2122;" horiz-adv-x="1030" d="M61 1354v61q0 8 4.5 12.5t9.5 5.5l5 1h389v-62q0 -8 -5 -12.5t-10 -5.5h-5h-136v-553q0 -14 -10.5 -16.5t-73.5 -2.5v572h-168zM520 782v633q1 19 21 19h57l90 -258l39 -113q21 73 33 108l82 244q5 19 18 19h66v-633q0 -14 -11 -16.5t-73 -2.5v228q15 228 16 241 q-38 -138 -51 -168l-57 -151q-3 -8 -11 -8h-43l-59 159q-1 6 -51 170q2 -15 9.5 -106.5t8.5 -136.5v-209q0 -14 -12 -16.5t-72 -2.5z" />
<glyph unicode="&#x25fc;" horiz-adv-x="1024" d="M0 0v1024h1024v-1024h-1024z" />
</font>
</defs>
</svg>
