<?xml version="1.0" standalone="no"?>
<!DOCTYPE svg PUBLIC "-//W3C//DTD SVG 1.1//EN" "http://www.w3.org/Graphics/SVG/1.1/DTD/svg11.dtd" >
<svg xmlns="http://www.w3.org/2000/svg">
<metadata></metadata>
<defs>
<font id="yanone_kaffeesatzbold" horiz-adv-x="819" >
<font-face units-per-em="2048" ascent="1638" descent="-410" />
<missing-glyph horiz-adv-x="286" />
<glyph horiz-adv-x="0" />
<glyph horiz-adv-x="682" />
<glyph unicode="&#xd;" horiz-adv-x="286" />
<glyph unicode=" "  horiz-adv-x="286" />
<glyph unicode="&#x09;" horiz-adv-x="286" />
<glyph unicode="&#xa0;" horiz-adv-x="286" />
<glyph unicode="!" horiz-adv-x="413" d="M53 1378q-1 46 53 57t271 11l-51 -846q-4 -73 -45 -89.5t-185 -16.5zM61 129q0 63 39.5 106.5t106.5 43.5q79 0 112 -38.5t33 -111.5q0 -62 -39 -103.5t-106 -41.5q-81 0 -113.5 36t-32.5 109z" />
<glyph unicode="&#x22;" horiz-adv-x="591" d="M57 1599q20 12 90.5 12t122.5 -7q-3 -97 -21.5 -245.5t-31.5 -158.5l-125 -6l-30 222q-20 175 -5 183zM328 1599q20 12 90.5 12t122.5 -7q-3 -96 -22 -245t-32 -159l-125 -6l-29 223q-20 174 -5 182z" />
<glyph unicode="#" d="M31 369q0 111 6 143.5t35 32.5h61l10 172h-112q0 111 6 143.5t35 32.5h80l6 104q1 28 41.5 34.5t156.5 6.5l-8 -145h152l6 104q1 28 41.5 34.5t157.5 6.5l-9 -145h92q0 -113 -5.5 -144.5t-34.5 -31.5h-60l-10 -172h110q0 -113 -5.5 -144.5t-34.5 -31.5h-78l-6 -109 q-1 -28 -41.5 -34.5t-157.5 -6.5l8 150h-151l-7 -109q-1 -28 -41 -34.5t-157 -6.5l8 150h-94zM330 545h151l11 172h-152z" />
<glyph unicode="$" d="M72 979q0 116 64.5 186t185.5 90v168q0 52 49 70t159 18v-251q70 -6 117.5 -19.5t65.5 -28t18 -28.5q0 -31 -13 -76.5t-42 -79.5q-20 12 -73.5 23.5t-108.5 11.5q-83 0 -124.5 -16.5t-41.5 -61.5q0 -41 13 -69.5t54 -75.5l242 -262q94 -108 94 -248q0 -274 -242 -332 v-166q0 -52 -48 -68t-160 -16v238q-98 8 -152.5 36.5t-54.5 57.5q0 25 16 91t37 97q74 -57 209 -57q65 0 102 29.5t37 91.5q0 48 -17 81.5t-69 92.5l-229 254q-88 104 -88 219z" />
<glyph unicode="%" horiz-adv-x="1366" d="M51 1077q0 373 291 373q97 0 154 -31.5t87.5 -113t30.5 -224.5q0 -201 -71.5 -294t-216.5 -93q-74 0 -122 15t-84.5 56.5t-52.5 117.5t-16 194zM217 70l782 1382q14 -5 35 -13.5t55.5 -33.5t34.5 -49q0 -17 -192 -360t-384 -678l-192 -334q-16 5 -39 13t-61.5 31 t-38.5 42zM270 1077q0 -89 8 -135.5t21.5 -60t38.5 -13.5q19 0 32 13t23 61.5t10 134.5q0 127 -12 164t-51 37q-35 0 -52.5 -41.5t-17.5 -159.5zM752 365q0 372 290 372q97 0 154.5 -31.5t88 -112.5t30.5 -224q0 -201 -72 -294t-217 -93q-74 0 -122 15t-84 56.5t-52 117.5 t-16 194zM967 358q0 -90 8 -136t21.5 -59t39.5 -13q19 0 32.5 12.5t24.5 61.5t11 134q0 127 -12.5 164t-53.5 37q-36 0 -53.5 -41t-17.5 -160z" />
<glyph unicode="&#x26;" horiz-adv-x="1001" d="M31 346q0 121 62.5 221t160.5 166q-152 277 -152 430q0 130 84 206.5t258 76.5q142 0 230 -29t88 -78q0 -41 -15 -89t-42 -81q-59 43 -112.5 58.5t-119.5 15.5q-69 0 -98 -19.5t-29 -90.5q0 -79 85 -248t208 -346q2 31 2 84q0 145 -15.5 227t-47.5 164q66 18 253 18 q72 0 136 -6q6 -41 6 -78q0 -25 -2.5 -41t-10.5 -32.5t-27 -24.5t-48 -8h-43q14 -47 18 -90t4 -156q0 -160 -43 -293q110 -120 170 -141q-8 -72 -58.5 -127t-90.5 -55q-36 0 -140 114q-107 -114 -286 -114q-107 0 -184 28.5t-119.5 80t-62 115t-19.5 142.5zM268 342 q0 -69 34.5 -108t100.5 -39q98 0 156 71q-111 147 -207 301q-84 -81 -84 -225z" />
<glyph unicode="'" horiz-adv-x="321" d="M57 1599q20 12 90.5 12t122.5 -7q-3 -97 -21.5 -245.5t-31.5 -158.5l-125 -6l-30 222q-20 175 -5 183z" />
<glyph unicode="(" horiz-adv-x="593" d="M121 651q0 196 28 369t68.5 282.5t85.5 190t77.5 115t45.5 34.5q57 0 84.5 -30.5t44.5 -114.5q-196 -293 -199 -835q-1 -303 54.5 -541.5t144.5 -341.5q-17 -90 -42.5 -132t-80.5 -42q-10 0 -30 17t-49.5 56.5t-60.5 95.5t-61.5 142.5t-55 189.5t-39.5 245t-15 300z" />
<glyph unicode=")" horiz-adv-x="593" d="M39 -221q202 282 199 883q-4 582 -199 835q17 84 44.5 114.5t84.5 30.5q9 0 28.5 -16.5t48 -54.5t59 -92t61 -136.5t54.5 -180t39 -231t15 -280.5q0 -145 -15 -279.5t-39.5 -236.5t-55 -191t-62 -150t-60 -104.5t-49 -64t-30.5 -20.5q-55 0 -80.5 42t-42.5 132z" />
<glyph unicode="*" horiz-adv-x="960" d="M23 1004q-1 40 8.5 74.5t25 55.5t34.5 36t37.5 16.5t33.5 -4.5l244 -176q1 -50 -18 -67.5t-50 -6.5zM115 631l250 227q23 23 47.5 20t52.5 -40l-160 -320q-25 -37 -62.5 -20.5t-71.5 54t-56 79.5zM385 1360q-4 40 35.5 53t89.5 4t92 -28l-55 -306q-4 -23 -11.5 -33 t-29.5 -14.5t-60 6.5zM507.5 849q11.5 17 63.5 38l242 -254q25 -31 -0.5 -64t-72.5 -54.5t-91 -27.5l-139 318q-14 27 -2.5 44zM557.5 989q2.5 18 32.5 37l287 178q34 -30 51 -81t9 -93.5t-40 -50.5l-309 -57q-33 49 -30.5 67z" />
<glyph unicode="+" d="M51 479q0 117 6.5 157t34.5 40h219v219q0 28 40 34.5t157 6.5v-260h260q0 -117 -6.5 -157t-34.5 -40h-219v-219q0 -28 -40 -34.5t-157 -6.5v260h-260z" />
<glyph unicode="," horiz-adv-x="385" d="M59 139q0 56 37.5 94.5t93.5 38.5q71 0 108.5 -38.5t37.5 -110.5q0 -60 -23.5 -121.5t-55 -103.5t-62.5 -68.5t-48 -26.5q-71 0 -86 60q23 38 34 65.5t14 40t8 47.5q-58 35 -58 123z" />
<glyph unicode="-" horiz-adv-x="540" d="M61 479q0 117 6.5 157t34.5 40h377q0 -117 -6.5 -157t-34.5 -40h-377z" />
<glyph unicode="." horiz-adv-x="385" d="M47 131q0 63 39.5 106.5t106.5 43.5q79 0 112 -38.5t33 -111.5q0 -62 -39 -103.5t-106 -41.5q-81 0 -113.5 36t-32.5 109z" />
<glyph unicode="/" horiz-adv-x="753" d="M20 -41l459 1548q9 30 23.5 40t62 15t168.5 5l-459 -1555q-11 -38 -45.5 -45.5t-208.5 -7.5z" />
<glyph unicode="0" d="M41 606q0 313 88.5 468t278.5 155q193 0 281.5 -136.5t88.5 -410.5q0 -145 -10.5 -252.5t-36.5 -195t-68.5 -141.5t-107 -82.5t-152.5 -28.5t-152 28.5t-104.5 78.5t-64 130.5t-32.5 171.5t-9 215zM291 598q0 -243 22.5 -327.5t98.5 -84.5q65 0 95 113t30 383 q0 87 -5 147.5t-18 107t-36 69t-58 22.5q-77 0 -103 -105t-26 -325z" />
<glyph unicode="1" d="M39 152q0 37 56.5 50t203.5 13l18 780q-47 -2 -95.5 -8t-73.5 -11l-25 -5q-35 60 -35 141q0 33 162.5 75t253.5 42q44 0 59 -12l-24 -1002h114q28 0 59.5 2t48.5 4l17 2q0 -143 -7.5 -183t-43.5 -40h-682q-6 76 -6 152z" />
<glyph unicode="2" d="M41 63q0 56 9.5 89.5t43.5 93.5q55 96 134 203.5t134 175t95.5 142.5t40.5 134q0 52 -32.5 80.5t-88.5 28.5q-58 0 -139 -18.5t-129 -45.5q-29 63 -29 168q0 46 114 80.5t255 34.5q168 0 240.5 -72t72.5 -217q0 -86 -41 -177t-94 -160.5t-139 -183t-142 -204.5h152 q76 0 146 5.5t102 11.5l32 6q0 -152 -8.5 -195t-44.5 -43h-676q-8 25 -8 63z" />
<glyph unicode="3" d="M68 1114q0 48 99.5 81.5t256.5 33.5q145 0 215 -68t70 -180q0 -226 -199 -369q112 -13 179 -89.5t67 -213.5q0 -135 -36.5 -236t-102 -160.5t-147 -88.5t-179.5 -29q-211 0 -211 111q0 28 3.5 56t6.5 42t10.5 40t8.5 30q28 -28 78 -44t104 -16q107 0 161 75.5t54 207.5 q0 54 -25.5 93t-70 59.5t-99.5 28.5t-121 5v140q124 49 189 124t65 154q0 53 -20.5 81t-85.5 28q-54 0 -122 -17t-120 -45v-2q-28 61 -28 168z" />
<glyph unicode="4" d="M33 428q0 37 77.5 212t174.5 353t143 213q47 37 98 37q79 0 127 -31v-790q30 0 61.5 2.5t47.5 5.5l16 2q1 -3 3 -8t5 -25.5t2 -44.5q-2 -64 -20.5 -104.5t-54.5 -40.5h-60v-143q0 -49 -29 -57.5t-200 -8.5v209h-313q-78 78 -78 219zM227 422h197l31 506 q-52 -64 -127.5 -236t-100.5 -270z" />
<glyph unicode="5" d="M57 -119q0 111 25 187q63 -60 174 -60q82 0 143 54t88 127.5t27 150.5q0 81 -9.5 128t-39 79.5t-80 44.5t-135.5 12q-90 0 -180 -22l63 647h627q0 -128 -20 -165.5t-95 -37.5q-44 0 -123.5 3t-136.5 6l-57 3l-25 -254q45 9 88 9q37 0 69 -3t71 -13.5t70 -27.5t62 -47 t51.5 -70.5t33 -100.5t12.5 -134q0 -278 -125 -440t-350 -162q-59 0 -105.5 9t-72 23t-38 28t-12.5 26z" />
<glyph unicode="6" d="M45 659q0 178 22.5 313.5t61.5 223.5t98 143.5t127 78t152 22.5q221 0 221 -82q0 -87 -22 -162q-85 29 -168 29q-133 0 -199.5 -99t-75.5 -331q44 57 99.5 82.5t142.5 25.5q130 0 204 -95.5t74 -301.5q0 -269 -98 -395.5t-287 -126.5q-49 0 -90 7t-73.5 23t-58 35.5 t-45 50.5t-33.5 62t-23.5 76.5t-15 87t-8.5 101t-4 110.5t-1 122zM264 596q2 -10 2 -27q-3 -97 5 -169t21.5 -112t35 -64t40.5 -31t42 -7q67 0 107 80.5t40 192.5q0 109 -31.5 171t-93.5 62q-90 0 -168 -96z" />
<glyph unicode="7" d="M74 1229h737q-210 -475 -314.5 -813t-105.5 -604q-101 0 -148.5 5t-67 18t-19.5 40q0 221 118 584.5t238 576.5q-179 -12 -377 -12q-61 0 -61 205z" />
<glyph unicode="8" d="M45 381q0 122 53 220t146 165q-87 71 -131 133q-54 77 -54 186q0 172 98 266.5t249 94.5q374 0 374 -332q0 -123 -52 -208.5t-144 -157.5q52 -49 92 -95q106 -123 106 -278q0 -76 -22.5 -144.5t-65 -123.5t-112 -88t-156.5 -33q-103 0 -179 31.5t-119 88t-63 125 t-20 150.5zM258 397q0 -92 43 -142t109 -50q64 0 105.5 46.5t41.5 129.5q0 63 -15.5 98.5t-43.5 67.5q-27 30 -92 88q-71 -54 -109.5 -109t-38.5 -129zM291 1100q0 -71 43 -125q35 -40 102 -101q64 56 97.5 111t33.5 121q0 47 -35 86t-94 39q-66 0 -106.5 -33t-40.5 -98z " />
<glyph unicode="9" d="M37 735q0 264 98 388t287 124q76 0 128.5 -11.5t92.5 -43t64 -76.5t39.5 -123.5t22 -171t9.5 -231.5q-5 -414 -123 -608.5t-387 -194.5q-196 0 -196 88q0 80 20 152q79 -23 146 -23q70 0 123.5 22.5t87.5 59t56.5 92t33.5 113t16 131.5q-44 -56 -99.5 -81.5t-140.5 -25.5 q-125 0 -201.5 113t-76.5 307zM262 760q0 -109 32 -171.5t93 -62.5q97 0 172 95v12q0 238 -27.5 324.5t-105.5 86.5q-74 0 -119 -72.5t-45 -211.5z" />
<glyph unicode=":" horiz-adv-x="385" d="M49 131q0 63 39.5 106.5t106.5 43.5q79 0 112 -38.5t33 -111.5q0 -62 -39 -103.5t-106 -41.5q-81 0 -113.5 36t-32.5 109zM49 788q0 63 39.5 106.5t106.5 43.5q79 0 112 -38.5t33 -111.5q0 -62 -39 -103.5t-106 -41.5q-81 0 -113.5 36t-32.5 109z" />
<glyph unicode=";" horiz-adv-x="385" d="M39 788q0 63 39 106.5t106 43.5q79 0 112.5 -39t33.5 -111q0 -62 -39.5 -103.5t-106.5 -41.5q-81 0 -113 36t-32 109zM47 139q0 56 37.5 94.5t93.5 38.5q71 0 108.5 -38.5t37.5 -110.5q0 -60 -23.5 -121.5t-55 -103.5t-62.5 -68.5t-48 -26.5q-71 0 -86 60q7 12 13 22.5 t10 18.5t8 17.5t6.5 14.5t5 14t3.5 12t2.5 13t2 12t2.5 14t2 15q-57 34 -57 123z" />
<glyph unicode="&#x3c;" d="M68 524q0 87 71 123l529 254q36 -32 58 -73.5t24 -77.5q0 -50 -39 -66l-346 -168l389 -180q-3 -68 -35 -122t-68 -54q-20 0 -63 16l-484 215q-36 61 -36 133z" />
<glyph unicode="=" d="M51 274q0 117 6.5 157t34.5 40h676q0 -117 -6.5 -157t-34.5 -40h-676zM51 684q0 117 6.5 157t34.5 40h676q0 -117 -6.5 -157t-34.5 -40h-676z" />
<glyph unicode="&#x3e;" d="M78 696q3 67 35 121.5t67 54.5q21 0 64 -16l483 -215q37 -63 37 -133q0 -87 -74 -123l-528 -256q-35 33 -56.5 75.5t-23.5 76.5q0 51 37 67l348 168z" />
<glyph unicode="?" horiz-adv-x="602" d="M27 1364q0 41 85.5 65.5t184.5 24.5q143 0 214 -77t71 -203q0 -90 -23.5 -166t-52 -119t-72 -104.5t-65.5 -102.5q-16 -30 -9 -76t16.5 -74.5t-3.5 -52.5q-18 -21 -88.5 -26.5t-118.5 2.5q-3 6 -8 17t-15.5 44t-14.5 65t1 75t23 79q33 66 84.5 146t73.5 128.5t22 102.5 q0 55 -29.5 83t-99.5 28q-42 0 -77 -10.5t-49 -21.5l-14 -11q-36 95 -36 184zM123 131q0 63 39.5 106.5t105.5 43.5q79 0 112.5 -39t33.5 -111q0 -62 -39.5 -103.5t-106.5 -41.5q-81 0 -113 36t-32 109z" />
<glyph unicode="@" horiz-adv-x="1472" d="M82 539q0 430 184 642t514 212q150 0 259.5 -32t191.5 -105.5t123 -200.5t41 -310q0 -189 -21.5 -329t-53.5 -217.5t-78.5 -123.5t-87 -59.5t-89.5 -13.5q-76 0 -125 43q-49 -43 -213 -43q-41 0 -70.5 4t-61 15.5t-52.5 34t-38 57.5t-25.5 88.5t-8.5 124.5q0 96 17 164.5 t48 105t65.5 52.5t76.5 16q75 0 113 -29q2 68 2 119q1 38 -17.5 54.5t-58.5 16.5q-57 0 -97.5 -11t-89.5 -38q-24 45 -24 131q3 32 18 47q31 23 98 41.5t169 18.5q115 0 168.5 -51.5t50.5 -180.5l-6 -376q-3 -121 -9 -201q28 -4 41 -4q119 0 119 475q0 103 -6.5 176.5 t-24 132.5t-44.5 96t-70 62t-99 35t-133 10q-127 0 -210.5 -31t-141.5 -108.5t-83.5 -208.5t-25.5 -332q0 -258 38.5 -402.5t124.5 -208t239 -63.5q285 0 475 66q61 -86 61 -156q0 -64 -136.5 -99.5t-381.5 -35.5q-67 0 -122 5t-112.5 18.5t-103 36t-90.5 59.5t-78.5 87 t-62.5 120t-47 157t-28.5 200t-10.5 247zM690 317q2 -102 9 -121q10 -24 38 -24q27 0 36.5 23.5t10.5 105.5l4 203q-9 4 -34 4q-35 0 -50 -40.5t-14 -150.5z" />
<glyph unicode="A" horiz-adv-x="894" d="M4 4l342 1391q8 43 92 43q70 0 109 -8l342 -1393q1 -4 1 -8q0 -15 -17 -23q-21 -10 -87 -10q-74 0 -133 4l-67 326h-273l-59 -287q-5 -25 -22.5 -34t-81.5 -9q-75 0 -146 8zM356 532h187l-39 191q-30 144 -53 387q-27 -250 -56 -387z" />
<glyph unicode="B" horiz-adv-x="733" d="M61 0v1393q0 21 13 31t45 10h200q347 0 347 -322q0 -146 -57 -232t-132 -96q236 -24 236 -297q0 -105 -21.5 -191t-66 -153.5t-120 -105t-175.5 -37.5h-269zM295 199h41q47 0 74.5 71t27.5 197q0 89 -12.5 136t-31.5 60t-54 13h-45v-477zM295 868h39q36 0 57 53t21 142 q0 68 -10.5 107t-24.5 51t-35 12h-47v-365z" />
<glyph unicode="C" horiz-adv-x="665" d="M41 670q0 194 25.5 340t65 230.5t96 136.5t109.5 69.5t114 17.5q62 0 103 -9.5t59.5 -28.5t25 -37.5t6.5 -45.5q0 -65 -33 -137q-49 35 -106 35q-223 0 -223 -553q0 -179 16 -279.5t50 -142t93 -41.5q100 0 160 31q31 -68 31 -135q0 -72 -66.5 -112t-183.5 -40 q-73 0 -125 18t-95 64t-68.5 125t-39.5 201t-14 293z" />
<glyph unicode="D" horiz-adv-x="737" d="M61 0v1393q0 21 13 31t45 10h196q86 0 147 -16.5t111.5 -59t81 -116t46.5 -185.5t16 -269q0 -412 -92.5 -600t-298.5 -188h-265zM291 217h41q21 0 37 11.5t32.5 49t27 101t17.5 173.5t7 261q0 134 -8 218.5t-26 125.5t-38 54.5t-51 13.5h-39v-1008z" />
<glyph unicode="E" horiz-adv-x="614" d="M61 0v1393q0 5 1.5 11.5t12 18t27.5 11.5h492q0 -143 -5.5 -174t-35.5 -31h-262v-348h248q0 -138 -5.5 -173.5t-33.5 -35.5h-209v-467h289q0 -148 -5.5 -176.5t-35.5 -28.5h-478z" />
<glyph unicode="F" horiz-adv-x="604" d="M61 0v1393q0 5 1.5 11.5t12 18t27.5 11.5h492q0 -141 -5.5 -168t-35.5 -27h-262v-358h248q0 -138 -5.5 -173.5t-33.5 -35.5h-209v-631v-11.5t-9.5 -18t-27.5 -11.5h-193z" />
<glyph unicode="G" horiz-adv-x="755" d="M41 670q0 163 13 286.5t41 209t64.5 142.5t89.5 88t110 43.5t133 12.5q105 0 164 -34t59 -83q0 -56 -29 -141q-23 18 -63.5 29.5t-81.5 11.5q-62 0 -105.5 -20t-72.5 -58.5t-45 -107t-22.5 -153t-6.5 -208.5q0 -210 14 -312.5t43 -136.5t88 -34q48 0 66 18v459h-94v147 q0 41 49 41h258v-827q-94 -61 -283 -61q-80 0 -136.5 12.5t-101.5 44.5t-72.5 81t-46 128t-25.5 180t-7 242z" />
<glyph unicode="H" horiz-adv-x="782" d="M63 0v1393q0 24 10 30q17 11 152 11h68v-564h196v523q0 24 10 30q17 11 152 11h68v-1393q0 -24 -10 -30q-17 -11 -152 -11h-68v662h-196v-621q0 -24 -10 -30q-17 -11 -152 -11h-68z" />
<glyph unicode="I" horiz-adv-x="356" d="M61 0v1333q0 75 31 88t203 13v-1393q0 -31 -30 -36t-204 -5z" />
<glyph unicode="J" horiz-adv-x="616" d="M20 119q0 12 1 23.5t3 22.5t4 18.5t6 18t5.5 15t6 14.5t5.5 13q81 -60 164 -60q66 0 86.5 37t20.5 154v958q0 75 29.5 88t203.5 13v-1104q0 -176 -72 -262t-235 -86q-71 0 -118.5 11t-70 32t-31 42.5t-8.5 51.5z" />
<glyph unicode="K" horiz-adv-x="794" d="M57 0v1393q0 31 29.5 36t204.5 5v-586l223 571q78 17 148 17q62 0 86 -14q16 -9 16 -26q0 -8 -4 -18l-234 -557q111 -103 166.5 -302.5t55.5 -475.5q0 -28 -18.5 -37.5t-78.5 -9.5q-79 0 -164 6q0 223 -27.5 379t-107.5 246q-27 30 -61 45v-631q0 -31 -29.5 -36 t-204.5 -5z" />
<glyph unicode="L" horiz-adv-x="610" d="M61 0v1376q0 43 30.5 50.5t199.5 7.5v-1219h289v-174q0 -23 -10.5 -32t-30.5 -9h-478z" />
<glyph unicode="M" horiz-adv-x="976" d="M61 0v1393q0 28 9.5 34.5t31.5 6.5h174l162 -504q18 -56 32 -108t19 -76l5 -23q12 82 49 203l139 467q8 25 15.5 33t25.5 8h3h3h3h3h3h3h3h3h3h3h3h3h3h3h3h3h3h3h3h3h3h3h3h3h3h3h3h3h3h3h3h3h3h3h3h3h3h3h3h3h3h3h3h3h3h3h3h3h2h3h3h3h3h3h3h3h3h3h3h3h2h3h8v-1393 q0 -24 -10 -30q-19 -11 -158 -11h-67l10 389q4 148 19 301t28 232l13 79l-7 5q-72 -284 -102 -377l-98 -273q-5 -14 -23 -14h-94l-96 287q-20 64 -99 377l-8 -5q6 -31 15.5 -85.5t26 -215t18.5 -309.5l6 -350q0 -30 -32.5 -35.5t-195.5 -5.5z" />
<glyph unicode="N" horiz-adv-x="880" d="M61 0v1393q0 22 9.5 31.5t31.5 9.5h183l213 -539q55 -139 118 -424q-26 221 -26 444v478q0 31 29.5 36t199.5 5v-1393q0 -41 -41 -41h-178l-217 549q-60 153 -121 450q29 -294 29 -467v-491q0 -31 -29.5 -36t-200.5 -5z" />
<glyph unicode="O" horiz-adv-x="837" d="M41 725q0 208 23.5 348.5t73.5 224t121 119t173 35.5q138 0 214.5 -62t113.5 -218t37 -439q0 -286 -42 -451t-124.5 -232.5t-220.5 -67.5q-105 0 -171.5 30.5t-113 113.5t-65.5 227t-19 372zM303 674q0 -257 22.5 -356t96.5 -99q73 0 98 112t25 394q0 289 -21 390.5 t-100 101.5q-70 0 -95.5 -119t-25.5 -424z" />
<glyph unicode="P" horiz-adv-x="714" d="M61 0v1393q0 23 8 32t33 9h193q102 0 172 -19t123.5 -65.5t78.5 -130t25 -207.5q0 -107 -22.5 -189.5t-59 -132.5t-89 -82t-105 -43.5t-113.5 -11.5h-14v-512q0 -31 -29.5 -36t-200.5 -5zM291 764h41q34 0 55.5 20t35 83t13.5 173q0 99 -21.5 147t-68.5 48h-55v-471z" />
<glyph unicode="Q" horiz-adv-x="837" d="M41 725q0 208 23.5 348.5t73.5 224t121 119t173 35.5q138 0 214.5 -62t113.5 -218t37 -439q0 -302 -45.5 -468.5t-143.5 -231.5q9 -72 30.5 -103.5t63.5 -31.5q70 0 123 34q14 -23 22.5 -58.5t8.5 -61.5q0 -31 -21.5 -53t-56 -32t-64.5 -14t-59 -4q-120 0 -193.5 66.5 t-115.5 208.5q-115 13 -179 81t-95 224.5t-31 435.5zM303 674q0 -257 22.5 -356t96.5 -99q73 0 98 112t25 394q0 289 -21 390.5t-100 101.5q-70 0 -95.5 -119t-25.5 -424z" />
<glyph unicode="R" horiz-adv-x="747" d="M61 0v1393q0 5 1 11.5t11.5 18t28.5 11.5h148h45q102 0 172 -19t123.5 -65.5t78.5 -130t25 -207.5q0 -273 -143 -385q164 -211 176 -582q0 -22 -6.5 -31.5t-32 -14.5t-80.5 -5q-58 0 -135 6q-7 372 -133 555q-10 -2 -35 -2h-14v-512q0 -31 -30 -36t-200 -5zM291 764h41 q34 0 55.5 19.5t35 78.5t13.5 162q0 110 -21.5 160.5t-68.5 50.5h-55v-471z" />
<glyph unicode="S" horiz-adv-x="704" d="M31 1141q0 143 93.5 228t270.5 85q149 0 214 -29t65 -86q0 -71 -53 -129q-20 14 -72.5 27.5t-106.5 13.5q-161 0 -161 -104q0 -46 16 -85.5t57 -96.5l197 -252q71 -91 97 -166.5t26 -167.5q0 -399 -373 -399q-131 0 -199.5 39.5t-68.5 97.5q0 89 51 166q33 -30 84.5 -49 t105.5 -19q81 0 115.5 40.5t34.5 117.5q0 54 -19.5 101t-72.5 116l-187 250q-66 88 -90 157t-24 144z" />
<glyph unicode="T" horiz-adv-x="778" d="M20 1221v172q0 22 9.5 31.5t31.5 9.5h697v-172q0 -24 -9 -32.5t-32 -8.5h-217v-1180q0 -31 -30 -36t-200 -5v1221h-250z" />
<glyph unicode="U" horiz-adv-x="841" d="M61 393v998q0 32 29.5 37.5t208.5 5.5v-1049q0 -106 26.5 -150.5t102.5 -44.5q71 0 119 25v1176q0 32 29 37.5t204 5.5v-1377q-44 -29 -138.5 -53t-213.5 -24q-94 0 -161.5 22t-107 57t-62 91.5t-29.5 111.5t-7 131z" />
<glyph unicode="V" horiz-adv-x="860" d="M14 1374q-3 15 -3 26q0 15 5 22q8 12 50 12h192l102 -668q33 -219 76 -578q28 318 68 578l88 606q5 35 15.5 48.5t39.5 13.5h203l-270 -1434q-105 -12 -201 -12q-104 0 -129 121q-32 145 -91 461t-102 560z" />
<glyph unicode="W" horiz-adv-x="1368" d="M14 1374q-2 14 -2 24q0 16 6 24q10 12 48 12h192l100 -668q43 -283 58 -533h16q6 257 51 533l88 545q5 35 15.5 48t40.5 13h161l105 -606q34 -198 59 -533h17q11 270 49 533l86 606q5 35 15.5 48.5t39.5 13.5h199l-244 -1434q-110 -12 -201 -12q-52 0 -80.5 32.5 t-41.5 96.5l-46 221q-31 154 -67 530q-36 -366 -64 -530l-55 -338q-100 -10 -219 -10q-44 0 -72 35t-39 92q-30 148 -84 462t-93 555z" />
<glyph unicode="X" horiz-adv-x="862" d="M14 0l277 735l-221 660q-7 22 10 29q24 10 213 10h1h1h1h1h1h1h1h1h1h1h1h1h1h1h1h1h1h1h1h1h1h1h1h1h1h1h1h1h1h1h1h1h1h1h1h1h1h1h1h1h1h1h9l59 -215q38 -136 56 -234q31 151 57 234l53 178q7 28 38 32.5t206 4.5l-227 -670l252 -731q5 -10 5 -16q0 -17 -28 -17h-254 l-78 238q-34 104 -69 243q-31 -124 -76 -243l-78 -209q-9 -17 -18.5 -23t-28.5 -6h-199z" />
<glyph unicode="Y" horiz-adv-x="753" d="M12 1399q-2 7 -2 12q0 10 7 13q20 10 195 10h62l60 -269q36 -155 57 -393q6 67 25 193t35 202l49 226q9 31 39.5 36t205.5 5l-247 -832v-561q0 -24 -10 -30q-17 -11 -152 -11h-68v588z" />
<glyph unicode="Z" horiz-adv-x="770" d="M27 88q0 48 18 96l422 1047h-320q-60 0 -96 -10v170q0 20 12 31.5t31 11.5h615q20 -33 20 -72q0 -46 -20 -98l-433 -1061h318q88 0 137 20v-182q0 -20 -9 -30.5t-32 -10.5h-633q-30 34 -30 88z" />
<glyph unicode="[" horiz-adv-x="716" d="M178 -410v2026q0 32 7.5 42.5t43 16.5t125.5 6h346q0 -146 -9.5 -180.5t-55.5 -34.5h-223v-1661h288q0 -157 -9 -186t-56 -29h-457z" />
<glyph unicode="\" horiz-adv-x="737" d="M25 1507q-10 33 4 43q23 16 174 17h49l461 -1575q8 -31 -6 -39q-20 -13 -164 -14h-60z" />
<glyph unicode="]" horiz-adv-x="716" d="M16 -410q0 145 10 180t56 35h223v1663h-289q0 156 9.5 185.5t56.5 29.5h457v-2027q0 -32 -8 -43t-44 -17t-125 -6h-346z" />
<glyph unicode="^" horiz-adv-x="880" d="M76 530l381 314l307 -258q39 -31 39 -72q0 -39 -31.5 -69.5t-77.5 -36.5l-264 139l-190 -113q-39 -20 -60 -20q-46 0 -74 35.5t-30 80.5z" />
<glyph unicode="_" horiz-adv-x="757" d="M20 -260q0 117 6.5 157t34.5 40h676q0 -117 -6.5 -157t-34.5 -40h-676z" />
<glyph unicode="`" horiz-adv-x="372" d="M0 1337q10 63 39 115.5t65 52.5q21 0 120.5 -87t148.5 -154q-1 -5 -3.5 -13.5t-10.5 -30t-17.5 -38t-24.5 -30t-32 -13.5q-19 0 -134 78t-151 120z" />
<glyph unicode="a" horiz-adv-x="692" d="M41 299q0 101 19 170.5t54 104.5t73.5 49t88.5 14q86 0 132 -31v142q0 40 -19.5 57.5t-66.5 17.5q-129 0 -246 -43q-31 58 -31 133q0 49 29 72q26 21 110 40t195 19q142 0 200 -56t58 -193v-97q0 -501 -10 -653q-111 -65 -295 -65q-52 0 -89.5 5.5t-78 25t-65.5 53 t-41.5 93t-16.5 142.5zM283 305q0 -75 14 -106t51 -31q38 0 55 20q5 56 5 265q-19 16 -54 16q-36 0 -53.5 -35.5t-17.5 -128.5z" />
<glyph unicode="b" horiz-adv-x="747" d="M72 41v1362q0 73 37.5 87.5t191.5 14.5v-520q69 59 174 59q123 0 177.5 -94t54.5 -321q0 -121 -13 -219t-34.5 -164.5t-53.5 -116t-65 -77.5t-75 -45t-77.5 -22t-77.5 -5q-165 0 -239 61zM301 197q17 -17 45 -17q13 0 25.5 8.5t26.5 35.5t24 70t17 119t7 175 q0 137 -18.5 194.5t-58.5 57.5q-39 0 -68 -29v-614z" />
<glyph unicode="c" horiz-adv-x="595" d="M41 489q0 142 22.5 246t56.5 162.5t85 92.5t97 44t104 10q76 0 122.5 -27.5t46.5 -76.5q0 -62 -20 -123q-64 27 -129 27q-25 0 -44 -6.5t-39 -27.5t-32.5 -58t-21 -102.5t-8.5 -155.5q0 -180 28 -246t109 -66q71 0 131 29q18 -77 18 -121q0 -50 -62 -80t-161 -30 q-67 0 -113 12.5t-84.5 44.5t-60.5 89.5t-33.5 146.5t-11.5 216z" />
<glyph unicode="d" horiz-adv-x="733" d="M41 465q0 299 76 439t205 140q75 0 120 -36v397q0 71 39 85.5t191 14.5v-1464q-138 -61 -299 -61q-59 0 -102 8.5t-89 37.5t-75 80.5t-47.5 142t-18.5 216.5zM299 494q0 -178 17.5 -245t58.5 -67q40 0 67 21v635q-15 10 -43 10q-16 0 -26.5 -4t-26 -23.5t-24.5 -55 t-16 -105t-7 -166.5z" />
<glyph unicode="e" horiz-adv-x="704" d="M41 463q0 144 19.5 250.5t51 169t80 99.5t97.5 49.5t112 12.5q263 0 263 -333q0 -175 -29 -291q-122 -24 -354 -29q5 -102 33.5 -145t99.5 -43q100 0 217 57q18 -62 18 -154q0 -59 -83 -92.5t-208 -33.5q-59 0 -105 12.5t-87 45.5t-67.5 86.5t-42 139t-15.5 199.5z M281 569q107 0 149 19q10 31 10 106q0 95 -14.5 123.5t-54.5 28.5q-45 0 -66 -67.5t-24 -209.5z" />
<glyph unicode="f" horiz-adv-x="536" d="M20 834q0 136 7.5 163t48.5 27h67v117q0 91 22 159.5t55.5 108t82.5 63.5t95.5 31.5t101.5 7.5q98 0 151.5 -26.5t53.5 -79.5q0 -61 -23 -125q-55 27 -139 27t-127 -30.5t-43 -111.5v-141h147q0 -72 -1 -105.5t-6 -55t-12.5 -25.5t-23.5 -4h-104v-793q0 -5 -1 -11.5 t-11.5 -18t-28.5 -11.5h-189v834h-123z" />
<glyph unicode="g" horiz-adv-x="782" d="M20 -172q0 135 138 231q-109 35 -109 113q0 88 127 195q-121 83 -121 297q0 107 23.5 182t69.5 117.5t107.5 61.5t145.5 19q49 0 101 -18h246q24 -50 24 -113q0 -42 -19.5 -63t-52.5 -21q-15 0 -43 7q50 -73 50 -187q0 -169 -78.5 -251.5t-253.5 -82.5q-37 0 -53 2 q-27 -35 -27 -57q0 -15 18.5 -21.5t74 -11.5t83.5 -10q138 -23 204 -80.5t66 -173.5q0 -162 -96.5 -263t-292.5 -101q-332 0 -332 229zM258 -113q0 -40 26.5 -60t92.5 -20q68 0 99.5 38.5t31.5 84.5q0 35 -9 52.5t-47 32t-116 22.5q-35 -29 -56.5 -69t-21.5 -81zM299 674 q0 -109 18.5 -149t67.5 -40t69.5 46.5t20.5 179.5q0 96 -19 134t-65 38q-45 0 -68.5 -47t-23.5 -162z" />
<glyph unicode="h" horiz-adv-x="739" d="M68 0v1405q0 71 39 85.5t190 14.5v-532q34 34 87.5 52.5t107.5 18.5q112 0 150 -61.5t38 -202.5v-739q0 -30 -33.5 -35.5t-204.5 -5.5v709q0 28 -2 46t-7.5 38.5t-19.5 30.5t-36 10q-40 0 -80 -25v-768q0 -31 -28.5 -36t-200.5 -5z" />
<glyph unicode="i" horiz-adv-x="368" d="M68 0v924q0 71 40.5 85.5t192.5 14.5v-983q0 -31 -29.5 -36t-203.5 -5zM78 1323q0 74 31.5 117t93.5 43t85 -33t23 -117t-31.5 -130t-91.5 -46q-55 0 -82.5 37t-27.5 129z" />
<glyph unicode="j" horiz-adv-x="382" d="M-184 -281q0 75 30 113q63 -27 148 -27q55 0 72.5 30.5t17.5 121.5v967q0 71 39.5 85.5t189.5 14.5v-1098q0 -70 -12.5 -125t-42.5 -103t-88 -74.5t-141 -26.5q-116 0 -164.5 29t-48.5 93zM88 1323q0 74 31.5 117t93.5 43t85.5 -33t23.5 -117t-31.5 -130t-91.5 -46 q-55 0 -83 37t-28 129z" />
<glyph unicode="k" horiz-adv-x="739" d="M68 0v1405q0 71 39.5 85.5t191.5 14.5v-518q101 57 217 57q94 0 132 -50.5t38 -123.5q0 -103 -36.5 -182t-82.5 -127q145 -106 148 -387q0 -68 -6 -139q-3 -26 -36.5 -30.5t-226.5 -4.5q11 128 11 207q0 128 -23 192q-20 55 -65 55q-7 0 -15 -1q-15 -3 -28.5 -10 t-19.5 -13l-7 -6v-383v-1q0 -30 -29 -35t-202 -5zM299 578q65 37 97 85t32 121q0 56 -41 56q-47 0 -88 -58v-204z" />
<glyph unicode="l" horiz-adv-x="364" d="M68 0v1405q0 71 39.5 85.5t189.5 14.5v-1464q0 -31 -28.5 -36t-200.5 -5z" />
<glyph unicode="m" horiz-adv-x="1085" d="M68 0v977q141 67 315 67q111 0 170 -53q116 53 242 53q77 0 124 -17.5t70 -57t30 -84t7 -119.5v-725q0 -30 -30.5 -35.5t-198.5 -5.5v760q0 48 -12.5 66t-47.5 18q-39 0 -75 -19v-784q0 -24 -9 -30q-18 -11 -149 -11h-66h-2h-4v768q0 51 -10.5 65.5t-46.5 14.5 q-37 0 -78 -25v-782q0 -30 -30 -35.5t-199 -5.5z" />
<glyph unicode="n" horiz-adv-x="739" d="M68 0v977q50 24 146.5 45.5t170.5 21.5q160 0 227.5 -57t67.5 -207v-739q0 -30 -31.5 -35.5t-206.5 -5.5v709q0 82 -12.5 110.5t-54.5 28.5t-78 -25v-782q0 -31 -29.5 -36t-199.5 -5z" />
<glyph unicode="o" horiz-adv-x="741" d="M41 514q0 530 340 530q115 0 181.5 -43.5t102 -158.5t35.5 -320q0 -289 -82.5 -415.5t-252.5 -126.5q-50 0 -87.5 5.5t-73 20t-60 40t-45.5 65.5t-33 96.5t-18.5 132.5t-6.5 174zM293 516q0 -154 10 -231.5t24.5 -96t43.5 -18.5q14 0 23.5 5.5t20.5 26t18 56.5 t11.5 101.5t4.5 156.5q0 148 -7.5 218.5t-22 92t-46.5 21.5q-19 0 -32 -11.5t-24.5 -44.5t-17.5 -102t-6 -174z" />
<glyph unicode="p" horiz-adv-x="741" d="M68 -303v1268q129 79 303 79q78 0 134.5 -18t102.5 -63t69 -128t23 -206q0 -160 -14 -278t-37.5 -188t-59 -112t-72.5 -56.5t-85 -14.5q-89 0 -135 38v-403q-52 -18 -119 -18q-62 0 -86 20.5t-24 79.5zM297 219q25 -37 57 -37q15 0 26 7t23.5 33t20.5 71.5t13 127 t5 193.5q0 97 -9 148.5t-26 68.5t-49 17t-61 -25v-604z" />
<glyph unicode="q" horiz-adv-x="743" d="M41 440q0 604 426 604q124 0 215 -61v-1288q0 -65 -24.5 -82t-110.5 -19q-28 0 -98 9v446q-43 -69 -154 -69q-43 0 -77 10.5t-68.5 40.5t-57.5 79.5t-37 133.5t-14 196zM303 451q0 -158 18.5 -215.5t59.5 -57.5q50 0 68 72v577q-18 21 -46 21q-33 0 -53.5 -32t-33.5 -122 t-13 -243z" />
<glyph unicode="r" horiz-adv-x="509" d="M68 0v952q135 92 284 92q80 0 108.5 -23.5t28.5 -78.5q0 -71 -22 -133q-33 16 -76 16q-50 0 -90 -32v-752q0 -31 -29 -36t-204 -5z" />
<glyph unicode="s" horiz-adv-x="651" d="M37 791q0 253 338 253q66 0 114 -9t74 -21.5t41 -31.5t19 -34t4 -33q0 -58 -45 -110q-76 43 -176 43q-97 0 -97 -62q0 -40 60 -102l151 -154q60 -69 81.5 -123.5t21.5 -132.5q0 -137 -93 -215.5t-251 -78.5q-240 0 -240 120q0 62 37 129q83 -45 178 -45q52 0 78 23t26 63 q0 63 -45 115l-178 188q-50 53 -74 111t-24 107z" />
<glyph unicode="t" horiz-adv-x="581" d="M18 829q0 72 1 105t6.5 56.5t14 28.5t26.5 5h75v297q0 51 40.5 61.5t189.5 10.5v-369h168q0 -134 -6.5 -164.5t-38.5 -30.5h-123v-557q0 -24 1 -36.5t5 -29.5t15 -24.5t28 -7.5q48 0 106 27q15 -73 16 -111q0 -110 -188 -110q-66 0 -109 18.5t-65.5 58t-30.5 88.5t-8 123 v561h-123z" />
<glyph unicode="u" horiz-adv-x="733" d="M59 287v696v1q0 30 29.5 35t208.5 5v-752q0 -51 14 -73.5t54 -22.5q46 0 77 27v780q0 24 10 30q17 11 152 11h68v-967q-55 -32 -136 -54.5t-167 -22.5q-91 0 -152 20t-95.5 61.5t-48.5 95.5t-14 130z" />
<glyph unicode="v" horiz-adv-x="675" d="M20 956q-2 12 -2 22q0 32 24 38q32 8 228 8l37 -295q10 -78 20.5 -200.5t15.5 -205.5l5 -83h4q19 313 39 489l29 250q4 34 34.5 39.5t207.5 5.5l-205 -1024q-59 -10 -166 -10q-75 0 -96 102z" />
<glyph unicode="w" horiz-adv-x="1077" d="M12 981v6q0 26 32 31q36 6 222 6l39 -287q12 -88 22.5 -210t15.5 -199l5 -78h17q1 11 4 74.5t7.5 120.5t10.5 102l55 411q5 30 17 38t57 8h152l69 -457q6 -39 12.5 -113.5t9.5 -129.5l3 -54h16q12 298 37 487l31 242q4 33 34 39t187 6q-191 -1024 -205 -1024 q-43 -10 -149 -10q-41 0 -75 25t-42 77l-21 135q-14 100 -26 316q-11 -210 -29 -316l-37 -227q-116 -10 -198 -10q-73 0 -95 100q-24 108 -68.5 331t-77.5 391z" />
<glyph unicode="x" horiz-adv-x="776" d="M14 0l240 530l-209 457q-9 21 -1 27q16 10 168 10h75l45 -113q32 -80 71 -215q56 171 74 215l29 74q12 29 44.5 34t205.5 5l-226 -477l222 -498q8 -17 8 -27q0 -7 -4 -9q-13 -12 -140 -13h-120l-41 98q-34 80 -86 238q-58 -175 -80 -238l-21 -55q-12 -31 -51 -37t-203 -6 z" />
<glyph unicode="y" horiz-adv-x="696" d="M-23 -293q0 75 29 125q49 -35 139 -35q85 0 103 170l-223 998q-8 35 0 43q14 15 120 16h105l59 -354q14 -79 26.5 -182.5t18.5 -167.5l6 -64q18 234 43 414l39 291q6 47 38 55t206 8l-229 -1071q-43 -201 -104.5 -274.5t-186.5 -73.5q-106 0 -147.5 27t-41.5 75z" />
<glyph unicode="z" horiz-adv-x="614" d="M20 113q0 40 19 82l299 639h-166q-71 0 -135 -11q-8 47 -8 105q0 52 16 74t55 22h471q23 -23 23 -68q0 -46 -27 -108l-278 -637h112q109 0 181 29q8 -33 8 -99q-2 -76 -20 -108.5t-72 -32.5h-439q-4 4 -10.5 11.5t-17.5 36.5t-11 65z" />
<glyph unicode="{" horiz-adv-x="544" d="M57 594q0 76 41 106q22 16 31.5 25t23.5 29.5t19.5 52.5t5.5 78q0 72 -14 208t-14 185q0 120 86.5 182t230.5 64q45 -62 45 -144q0 -68 -35 -77q-92 -13 -92 -150q0 -44 8 -162t8 -184q0 -89 -23.5 -131t-72.5 -64q50 -24 73 -66t23 -130q0 -64 -8 -174.5t-8 -155.5 q0 -89 25.5 -129t85.5 -51q6 -56 6 -86q0 -57 -21 -91t-57 -34q-147 0 -210.5 73t-63.5 205q0 69 14 188t14 187q0 77 -23 111t-79 45q-19 42 -19 90z" />
<glyph unicode="|" horiz-adv-x="589" d="M178 -410v2020q0 42 31.5 50.5t202.5 8.5v-2025q0 -40 -30 -47t-204 -7z" />
<glyph unicode="}" horiz-adv-x="544" d="M35 -162q0 68 35 76q92 13 92 149q0 46 -8.5 163.5t-8.5 183.5q0 89 23 131.5t72 64.5q-48 22 -71.5 65.5t-23.5 131.5q0 63 8.5 173.5t8.5 156.5q0 87 -26 127.5t-85 52.5q-8 47 -8 86q0 56 22 90.5t58 34.5q272 0 272 -279q0 -68 -14 -187.5t-14 -189.5 q0 -77 23 -110.5t79 -44.5q20 -44 20 -88q0 -76 -43 -107q-29 -22 -41.5 -35t-25 -51.5t-12.5 -99.5q0 -72 14 -208t14 -185q0 -119 -87 -181.5t-230 -62.5q-43 61 -43 143z" />
<glyph unicode="~" d="M18 559q33 49 114.5 89t170.5 40q47 0 83 -11.5t54 -25.5t45.5 -25.5t61.5 -11.5q54 0 125 58q51 30 91 -13t42 -120q-34 -48 -111.5 -89.5t-167.5 -41.5q-59 0 -100 19t-73 37.5t-70 18.5q-39 0 -95.5 -36t-83.5 -33q-36 5 -60.5 43.5t-25.5 101.5z" />
<glyph unicode="&#xa2;" d="M150 475q0 465 237 549v135q0 53 50.5 72.5t158.5 19.5v-219q38 -11 62 -28t24 -35q0 -105 -20 -162q-64 27 -130 27q-26 0 -45 -5.5t-41 -25.5t-36 -56t-23.5 -101.5t-9.5 -156.5q0 -84 5 -137.5t13.5 -86.5t27 -49t38.5 -21t55 -5q30 0 72.5 8.5t66.5 20.5 q19 -65 19 -141q0 -30 -39 -57.5t-94 -36.5v-156q0 -52 -48.5 -68t-160.5 -16v250q-62 17 -100 63t-60 148.5t-22 269.5z" />
<glyph unicode="&#xa3;" horiz-adv-x="708" d="M31 563q0 117 6.5 157t34.5 40h65q15 237 98 348t232 111q87 0 146 -29.5t59 -95.5q0 -56 -27 -136q-60 29 -119 29q-70 0 -110.5 -50.5t-50.5 -176.5h223q0 -117 -6.5 -157t-34.5 -40h-185q3 -215 15 -338l256 -16q16 -52 16 -105q0 -104 -96 -104h-393q-23 233 -27 563 h-102z" />
<glyph unicode="&#xa5;" d="M43 1399q-6 20 5 25q20 10 195 10h62l57 -269q45 -191 54 -331q14 166 57 333l57 226q9 31 40 36t206 5l-162 -545h168q0 -108 -15.5 -148.5t-68.5 -40.5h-141l-29 -98v-61h254q0 -108 -15.5 -148.5t-68.5 -40.5h-170v-311v-2q0 -29 -28.5 -34t-200.5 -5v352h-252 q0 108 15.5 148.5t68.5 40.5h168v47l-35 112h-217q0 108 15.5 148.5t68.5 40.5h74z" />
<glyph unicode="&#xa8;" horiz-adv-x="544" d="M0 1284q0 53 33.5 90t91.5 37q125 0 125 -127q0 -54 -34 -89.5t-91 -35.5q-69 0 -97 31t-28 94zM297 1284q0 53 33.5 90t89.5 37q125 0 125 -127q0 -54 -33.5 -89.5t-91.5 -35.5q-69 0 -96 30.5t-27 94.5z" />
<glyph unicode="&#xa9;" horiz-adv-x="983" d="M66 1110q0 225 112.5 334.5t325.5 109.5q217 0 315.5 -101.5t98.5 -336.5q0 -222 -111 -342.5t-324 -120.5q-214 0 -315.5 113t-101.5 344zM233 1116q0 -163 63 -233t191 -70q53 0 97 15t82 47.5t60 94t22 146.5q0 143 -59.5 217t-188.5 74q-126 0 -196.5 -67t-70.5 -224 zM334 1094q0 66 11.5 115t29.5 76.5t44 44t49 21.5t52 5t58.5 -11.5t29.5 -23.5q0 -40 -10 -78q-45 10 -68 10q-17 0 -28 -4.5t-23 -19t-18 -49.5t-6 -90t7.5 -80t19.5 -31t40 -6q16 0 70 12q12 -28 12 -74q0 -18 -29 -29.5t-65 -11.5q-52 0 -82 7.5t-53 31.5t-32 68t-9 117 z" />
<glyph unicode="&#xab;" horiz-adv-x="847" d="M12 512q0 40 73 168t145 236l73 108q25 0 48 -12t38 -29t26.5 -34.5t16.5 -29.5l6 -12q0 -29 -22 -80.5t-53 -104t-62.5 -101t-53.5 -79.5l-22 -30q9 -11 23.5 -30t51.5 -72.5t65.5 -99.5t51.5 -98t23 -83q-2 -5 -6 -14t-17 -31t-28 -39t-38 -31t-48 -14 q-12 17 -31.5 45.5t-69.5 106t-88.5 141.5t-70 128.5t-31.5 90.5zM389 514q0 38 71.5 153.5t142.5 211.5l71 96q37 0 70 -27.5t47 -54.5l14 -27q0 -44 -50.5 -132t-100.5 -154l-50 -66q8 -10 22 -26.5t49 -62.5t61.5 -86.5t48.5 -87t22 -75.5q-2 -5 -6 -13t-17 -29t-27 -37 t-36.5 -29t-46.5 -13q-32 42 -79.5 106t-126.5 189t-79 164z" />
<glyph unicode="&#xad;" horiz-adv-x="540" d="M61 479q0 117 6.5 157t34.5 40h377q0 -117 -6.5 -157t-34.5 -40h-377z" />
<glyph unicode="&#xae;" horiz-adv-x="983" d="M66 1110q0 225 112.5 334.5t325.5 109.5q217 0 315.5 -101.5t98.5 -336.5q0 -222 -111 -342.5t-324 -120.5q-214 0 -315.5 113t-101.5 344zM233 1116q0 -163 63 -233t191 -70q53 0 97 15t82 47.5t60 94t22 146.5q0 143 -59.5 217t-188.5 74q-126 0 -196.5 -67t-70.5 -224 zM373 866v480q0 12 16 12h60h16q162 0 162 -150q0 -82 -52 -127q61 -57 66 -196q0 -13 -7.5 -18t-35.5 -5q-19 0 -59 4q-2 129 -43 181q-12 -3 -25 -3h-6v-161q0 -12 -12 -14.5t-80 -2.5zM465 1133q6 -3 16 -3q43 0 43 89q0 59 -39 59h-20v-145z" />
<glyph unicode="&#xb4;" horiz-adv-x="372" d="M0 1270q49 68 148 154.5t120 86.5q36 0 65.5 -52.5t39.5 -115.5q-36 -42 -151 -120t-134 -78q-26 0 -48 31.5t-31 62.5z" />
<glyph unicode="&#xb8;" horiz-adv-x="307" d="M0 -422q19 91 33 105q6 6 19 -0.5t34 -16.5t41 -10q57 0 57 65q0 66 -53 66q-28 0 -51 -3t-32 -6l-9 -3l39 229h115l-23 -121h33q44 0 74 -36.5t30 -108.5q0 -80 -50 -136.5t-134 -56.5q-31 0 -62 8.5t-46 16.5z" />
<glyph unicode="&#xbb;" horiz-adv-x="847" d="M41 176q0 48 50.5 132t100.5 144l50 60q6 0 -42 65t-102.5 154.5t-54.5 134.5q0 22 12.5 42.5t30.5 33.5t35.5 22.5t30.5 13.5l12 5q12 -15 31.5 -41.5t69.5 -97t88.5 -129t70 -118.5t31.5 -85q0 -42 -72.5 -158t-145.5 -212l-73 -95q-5 2 -13.5 5t-29.5 14t-37 24.5 t-29.5 36.5t-13.5 49zM408 129q0 48 54 144t108 167l53 72q-24 33 -59.5 84t-94.5 158t-59 153q0 36 34 65t68 40l33 12q12 -17 31.5 -46t69.5 -106.5t88.5 -141.5t70 -128.5t31.5 -89.5q0 -42 -73 -170t-145 -235l-73 -107l-15 5t-32.5 14t-41.5 24.5t-33 36.5t-15 49z" />
<glyph unicode="&#x2c6;" horiz-adv-x="542" d="M0 1208l233 275q21 6 46 6q37 0 63 -29q8 -8 21.5 -22.5t48.5 -52.5t61.5 -70t48 -65t21.5 -48q0 -55 -158 -55q-68 61 -109 139q-9 -15 -23 -38t-47.5 -61t-55.5 -38q-110 0 -150 59z" />
<glyph unicode="&#x2da;" horiz-adv-x="428" d="M0 1337q0 215 221 215q110 0 158.5 -46t48.5 -165q0 -217 -219 -217q-109 0 -159 46.5t-50 166.5zM158 1337q0 -65 55 -65q61 0 61 67q0 64 -53 64q-63 0 -63 -66z" />
<glyph unicode="&#x2dc;" horiz-adv-x="620" d="M0 1278q50 84 121.5 127t134.5 43q28 0 51 -14t36 -30t34.5 -30t46.5 -14q30 0 51 10t29.5 21.5t19.5 21.5t23 10q19 0 37.5 -31.5t27.5 -63.5l9 -32q-5 -6 -13 -16.5t-34.5 -37t-53.5 -46.5t-66 -36.5t-75 -16.5q-34 0 -57 13.5t-33 29.5t-28 29.5t-44 13.5 q-27 0 -48 -16t-36 -32t-27 -16q-27 0 -53.5 28.5t-39.5 56.5z" />
<glyph unicode="&#x401;" horiz-adv-x="614" d="M61 0v1393q0 5 1.5 11.5t12 18t27.5 11.5h492q0 -143 -5.5 -174t-35.5 -31h-262v-348h248q0 -138 -5.5 -173.5t-33.5 -35.5h-209v-467h289q0 -148 -5.5 -176.5t-35.5 -28.5h-478zM82 1694q0 53 33.5 90t91.5 37q125 0 125 -127q0 -54 -34 -89.5t-91 -35.5q-69 0 -97 31 t-28 94zM379 1694q0 53 33.5 90t89.5 37q125 0 125 -127q0 -54 -33.5 -89.5t-91.5 -35.5q-69 0 -96 30.5t-27 94.5z" />
<glyph unicode="&#x410;" horiz-adv-x="894" d="M4 4l342 1391q8 43 92 43q70 0 109 -8l342 -1393q5 -22 -16 -31.5t-87 -9.5q-74 0 -133 4l-67 326h-273l-59 -287q-5 -25 -22.5 -34t-81.5 -9q-75 0 -146 8zM356 532h187l-39 191q-30 144 -53 387q-27 -250 -56 -387z" />
<glyph unicode="&#x411;" horiz-adv-x="731" d="M61 0v1393q0 5 1.5 11.5t12 18t27.5 11.5h541q0 -141 -5.5 -168t-35.5 -27h-307v-348h57q188 0 273.5 -102.5t85.5 -317.5q0 -234 -102 -352.5t-271 -118.5h-277zM295 203q14 -4 41 -4q48 0 75 73t27 207q0 113 -23.5 155t-74.5 42l-45 -4v-469z" />
<glyph unicode="&#x412;" horiz-adv-x="733" d="M61 0v1393q0 21 13 31t45 10h200q347 0 347 -322q0 -146 -57 -232t-132 -96q236 -24 236 -297q0 -105 -21.5 -191t-66 -153.5t-120 -105t-175.5 -37.5h-269zM295 199h41q47 0 74.5 71t27.5 197q0 89 -12.5 136t-31.5 60t-54 13h-45v-477zM295 868h39q36 0 57 53t21 142 q0 68 -10.5 107t-24.5 51t-35 12h-47v-365z" />
<glyph unicode="&#x413;" horiz-adv-x="636" d="M61 0v1393q0 5 1.5 11.5t12 18t27.5 11.5h529q0 -141 -5.5 -168t-35.5 -27h-299v-1198v-4.5t-2 -9.5t-5.5 -12.5t-11.5 -10t-18 -4.5h-193z" />
<glyph unicode="&#x414;" horiz-adv-x="921" d="M10 174v-475q91 0 126.5 9.5t49.5 45.5q33 81 50 246h428q2 -21 5 -41t6.5 -40.5t6 -35.5t8 -35.5t8 -30.5t8.5 -32t8 -28.5t9 -30t8 -27.5q104 0 129 10q31 13 31 55v451h-86v1219h-332q-172 0 -200.5 -5t-28.5 -34v-2q-16 -517 -46 -780.5t-98 -397.5q-65 -2 -75 -7 q-15 -7 -15 -34zM330 215q62 173 91.5 406t43.5 598h115v-1004h-250z" />
<glyph unicode="&#x415;" horiz-adv-x="614" d="M61 0v1393q0 5 1.5 11.5t12 18t27.5 11.5h492q0 -143 -5.5 -174t-35.5 -31h-262v-348h248q0 -138 -5.5 -173.5t-33.5 -35.5h-209v-467h289q0 -148 -5.5 -176.5t-35.5 -28.5h-478z" />
<glyph unicode="&#x416;" horiz-adv-x="1208" d="M35 1378q-10 29 9.5 41.5t64.5 12.5q108 0 165 -13l213 -573v547q0 31 29.5 36t204.5 5v-588l215 573q57 13 164 13q47 0 66 -12.5t8 -41.5l-213 -557q65 -76 109.5 -184t62 -208t25 -189.5t5.5 -143.5l-2 -53q0 -28 -13 -37.5t-54 -9.5q-130 0 -185 4q0 70 -1.5 124.5 t-7.5 132.5t-18.5 138t-32.5 119.5t-52.5 101t-75.5 60.5v-635q0 -31 -29.5 -36t-204.5 -5v676q-43 -19 -75.5 -60.5t-52 -101.5t-32 -119.5t-18 -138t-7 -132t-1.5 -124.5q-57 -4 -186 -4q-40 0 -54 9.5t-14 37.5q-1 11 -1.5 29.5t1 76.5t6 115t18.5 136t35 148.5t57.5 143 t84.5 129.5z" />
<glyph unicode="&#x417;" horiz-adv-x="657" d="M20 1335q0 41 69.5 84t197.5 43q151 0 235 -86t84 -241q0 -246 -123 -330q-1 -1 -9.5 -7t-14 -9.5t-18 -8t-27.5 -6.5q38 0 61 -10q66 -27 114 -97t48 -194q0 -108 -22 -195t-58.5 -143.5t-87.5 -94t-105.5 -53.5t-115.5 -16q-99 0 -162 45.5t-63 108.5q0 61 40 170 q79 -82 166 -82q65 0 114.5 62t49.5 192q0 55 -20.5 92t-61 55t-83 25t-103.5 8v184q35 4 54.5 7.5t49 11t46 18t36 29t30 43t17.5 60.5t7 81q0 162 -125 162q-101 0 -174 -63q-46 83 -46 155z" />
<glyph unicode="&#x418;" horiz-adv-x="884" d="M63 0v1393q0 24 10 30q17 11 152 11h68v-539q0 -103 -25 -420q12 43 38.5 143t45.5 169t27 92l196 499q17 41 49 48.5t197 7.5v-1393v-2q0 -29 -28.5 -34t-200.5 -5v526q0 70 9.5 224.5t19.5 244.5q-87 -370 -121 -446l-195 -494q-14 -33 -26 -41q-22 -13 -132 -14h-84z " />
<glyph unicode="&#x419;" horiz-adv-x="884" d="M63 0v1393q0 24 10 30q17 11 152 11h68v-539q0 -103 -25 -420q12 43 38.5 143t45.5 169t27 92l196 499q17 41 49 48.5t197 7.5v-1393v-2q0 -29 -28.5 -34t-200.5 -5v526q0 70 9.5 224.5t19.5 244.5q-87 -370 -121 -446l-195 -494q-14 -33 -26 -41q-22 -13 -132 -14h-84z M193 1769q0 45 24 74.5t86 54.5q22 -55 62 -98t94 -43q28 0 50.5 9t41 29.5t27 33t24.5 39.5q24 30 55 21t59.5 -44.5t35.5 -72.5q-85 -232 -295 -232q-97 0 -180.5 71.5t-83.5 157.5z" />
<glyph unicode="&#x41a;" horiz-adv-x="794" d="M57 0v1393q0 31 29.5 36t204.5 5v-586l223 571q78 17 148 17q62 0 86 -14t12 -44l-234 -557q111 -103 166.5 -302.5t55.5 -475.5q0 -28 -18.5 -37.5t-78.5 -9.5q-79 0 -164 6q0 223 -27.5 379t-107.5 246q-27 30 -61 45v-631q0 -31 -29.5 -36t-204.5 -5z" />
<glyph unicode="&#x41b;" horiz-adv-x="923" d="M-2 68q0 -36 52 -57t110 -21q188 0 245.5 245.5t96.5 983.5h129v-1219q172 0 200.5 5t28.5 34v2v1393h-352q-172 0 -200.5 -5t-28.5 -34v-2q-4 -260 -12 -448.5t-25 -369t-47.5 -274.5t-73.5 -94q-58 0 -90 18q-33 -71 -33 -157z" />
<glyph unicode="&#x41c;" horiz-adv-x="976" d="M61 0v1393q0 28 9.5 34.5t31.5 6.5h174l162 -504q18 -56 32 -108t19 -76l5 -23q12 82 49 203l139 467q8 25 15.5 33t25.5 8h3h3h3h3h3h3h3h3h3h3h3h3h3h3h3h3h3h3h3h3h3h3h3h3h3h3h3h3h3h3h3h3h3h3h3h3h3h3h3h3h3h3h3h3h3h3h3h3h2h3h3h3h3h3h3h3h3h3h3h3h2h3h8v-1393 q0 -24 -10 -30q-19 -11 -158 -11h-67l10 389q4 148 19 301t28 232l13 79l-7 5q-72 -284 -102 -377l-98 -273q-5 -14 -23 -14h-94l-96 287q-20 64 -99 377l-8 -5q6 -31 15.5 -85.5t26 -215t18.5 -309.5l6 -350q0 -30 -32.5 -35.5t-195.5 -5.5z" />
<glyph unicode="&#x41d;" horiz-adv-x="782" d="M63 0v1393q0 24 10 30q17 11 152 11h68v-564h196v523q0 24 10 30q17 11 152 11h68v-1393q0 -24 -10 -30q-17 -11 -152 -11h-68v662h-196v-621q0 -24 -10 -30q-17 -11 -152 -11h-68z" />
<glyph unicode="&#x41e;" horiz-adv-x="837" d="M41 725q0 208 23.5 348.5t73.5 224t121 119t173 35.5q138 0 214.5 -62t113.5 -218t37 -439q0 -286 -42 -451t-124.5 -232.5t-220.5 -67.5q-105 0 -171.5 30.5t-113 113.5t-65.5 227t-19 372zM303 674q0 -257 22.5 -356t96.5 -99q73 0 98 112t25 394q0 289 -21 390.5 t-100 101.5q-70 0 -95.5 -119t-25.5 -424z" />
<glyph unicode="&#x41f;" horiz-adv-x="778" d="M63 0v1393q0 31 30 36t200 5h422v-1393q0 -31 -29.5 -36t-200.5 -5v1219h-192v-1178q0 -31 -29.5 -36t-200.5 -5z" />
<glyph unicode="&#x420;" horiz-adv-x="714" d="M61 0v1393q0 23 8 32t33 9h193q102 0 172 -19t123.5 -65.5t78.5 -130t25 -207.5q0 -107 -22.5 -189.5t-59 -132.5t-89 -82t-105 -43.5t-113.5 -11.5h-14v-512q0 -31 -29.5 -36t-200.5 -5zM291 764h41q34 0 55.5 20t35 83t13.5 173q0 99 -21.5 147t-68.5 48h-55v-471z" />
<glyph unicode="&#x421;" horiz-adv-x="665" d="M41 670q0 194 25.5 340t65 230.5t96 136.5t109.5 69.5t114 17.5q62 0 103 -9.5t59.5 -28.5t25 -37.5t6.5 -45.5q0 -65 -33 -137q-49 35 -106 35q-223 0 -223 -553q0 -179 16 -279.5t50 -142t93 -41.5q100 0 160 31q31 -68 31 -135q0 -72 -66.5 -112t-183.5 -40 q-73 0 -125 18t-95 64t-68.5 125t-39.5 201t-14 293z" />
<glyph unicode="&#x422;" horiz-adv-x="778" d="M20 1221v172q0 22 9.5 31.5t31.5 9.5h697v-172q0 -24 -9 -32.5t-32 -8.5h-217v-1180q0 -31 -30 -36t-200 -5v1221h-250z" />
<glyph unicode="&#x423;" horiz-adv-x="768" d="M14 1401q0 -14 19 -88q54 -224 151 -575t138 -449q-12 -96 -54 -96q-34 0 -100 36q-50 -107 -39 -163q6 -33 60 -55.5t122 -20.5q26 0 48.5 5t40 12t32.5 23t26 29.5t21.5 39t17 44t15 53t13 57t12.5 64.5q19 82 120 590.5t101 526.5h-164q-37 0 -52.5 -17t-23.5 -59 l-49 -295q-59 -357 -61 -518q-9 72 -39 249t-43 269l-86 371h-164q-33 0 -47.5 -7t-14.5 -26z" />
<glyph unicode="&#x424;" horiz-adv-x="1132" d="M25 725q0 154 44.5 275.5t141.5 206t240 110.5v37q0 75 29.5 87.5t201.5 12.5v-133q111 -18 193.5 -68t133 -127.5t75 -176t24.5 -218.5q0 -159 -44 -284t-141.5 -211.5t-240.5 -110.5v-105v-1q0 -29 -26.5 -34t-186.5 -5h-16v137q-115 14 -198 63t-133 129t-73.5 182.5 t-23.5 233.5zM264 700q0 -306 189 -364v764q-95 -35 -142 -143.5t-47 -256.5zM680 344q94 35 137 137.5t43 245.5q0 72 -8.5 130t-28.5 109t-56 86.5t-87 51.5v-760z" />
<glyph unicode="&#x425;" horiz-adv-x="862" d="M14 0l277 735l-221 660q-7 22 10 29q24 10 213 10h1h1h1h1h1h1h1h1h1h1h1h1h1h1h1h1h1h1h1h1h1h1h1h1h1h1h1h1h1h1h1h1h1h1h1h1h1h1h1h1h1h1h9l59 -215q38 -136 56 -234q31 151 57 234l53 178q7 28 38 32.5t206 4.5l-227 -670l252 -731q16 -33 -23 -33h-254l-78 238 q-34 104 -69 243q-31 -124 -76 -243l-78 -209q-9 -17 -18.5 -23t-28.5 -6h-199z" />
<glyph unicode="&#x426;" horiz-adv-x="839" d="M63 0v1393q0 31 29.5 36t200.5 5v-1219h190v1178q0 31 30 36t200 5v-1219h96v-451q0 -45 -31 -55t-124 -10h-5q-50 148 -67 301h-519z" />
<glyph unicode="&#x427;" horiz-adv-x="729" d="M23 909v484q0 31 28.5 36t196.5 5v-496q0 -61 7 -101t31 -68t66 -28q43 0 86 19v633q0 31 30 36t198 5v-1393q0 -31 -29 -36t-199 -5v549q-67 -17 -141 -17q-134 0 -204 94.5t-70 282.5z" />
<glyph unicode="&#x428;" horiz-adv-x="1099" d="M63 0v1393v3q0 29 28 33.5t198 4.5v-1219h149v1178v4q0 28 28 32.5t196 4.5v-1219h151v1178q0 24 7 29q14 11 130 12h86v-1328v-5q0 -76 -28.5 -88.5t-200.5 -12.5h-744z" />
<glyph unicode="&#x429;" horiz-adv-x="1161" d="M63 0v1393v3q0 29 28 33.5t198 4.5v-1219h149v1178v4q0 28 28 32.5t196 4.5v-1219h151v1178q0 24 7 29q14 11 130 12h86v-1219h94v-451q0 -45 -30.5 -55t-123.5 -10h-5q-46 138 -66 301h-842z" />
<glyph unicode="&#x42a;" horiz-adv-x="894" d="M20 1239v135q0 60 54 60h385v-543h57q188 0 273 -102.5t85 -317.5q0 -234 -101.5 -352.5t-270.5 -118.5h-277v1239h-205zM459 203q14 -4 41 -4q48 0 75 73t27 207q0 113 -23.5 155t-74.5 42l-45 -4v-469z" />
<glyph unicode="&#x42b;" horiz-adv-x="1054" d="M61 0v1393q0 31 29.5 36t204.5 5v-543h55q182 0 264 -102.5t82 -317.5q0 -234 -98.5 -352.5t-261.5 -118.5h-275zM295 203q14 -4 39 -4q41 0 65.5 74t24.5 206q0 112 -21.5 154.5t-64.5 42.5l-43 -4v-469zM760 0q4 356 4 717l-4 616q0 75 30.5 88t202.5 13 q-4 -413 -4 -717l4 -676q0 -31 -29.5 -36t-203.5 -5z" />
<glyph unicode="&#x42c;" horiz-adv-x="731" d="M61 0v1393q0 31 29.5 36t204.5 5v-543h57q188 0 273.5 -102.5t85.5 -317.5q0 -234 -102 -352.5t-271 -118.5h-277zM295 203q14 -4 41 -4q48 0 75 73t27 207q0 113 -23.5 155t-74.5 42l-45 -4v-469z" />
<glyph unicode="&#x42d;" horiz-adv-x="651" d="M31 106q0 94 30 160q58 -30 160 -30q73 0 110.5 91.5t45.5 288.5h-227q-28 0 -33.5 35.5t-5.5 173.5h268q-3 111 -15.5 188.5t-29 119.5t-45 64.5t-53.5 28t-64 5.5q-57 0 -106 -35q-33 58 -33 133q0 54 53.5 87.5t167.5 33.5q64 0 114.5 -16.5t100 -63.5t82 -124 t52.5 -205.5t20 -301.5q0 -188 -17 -324t-47 -219.5t-79 -132t-103 -66t-129 -17.5q-93 0 -155 35.5t-62 90.5z" />
<glyph unicode="&#x42e;" horiz-adv-x="1163" d="M70 0v1393v2q0 29 28.5 34t200.5 5v-596h82q7 232 51.5 368.5t122.5 192t203 55.5q136 0 212.5 -62.5t114 -219.5t37.5 -439q0 -286 -41.5 -451.5t-122.5 -233.5t-217 -68q-78 0 -133 17t-99 59.5t-70.5 117t-41.5 186t-18 269.5h-80v-588v-2q0 -29 -28.5 -34t-200.5 -5z M635 674q0 -257 22 -357t93 -100q69 0 92.5 112t23.5 396q0 289 -20 391.5t-94 102.5q-67 0 -92 -120.5t-25 -424.5z" />
<glyph unicode="&#x42f;" horiz-adv-x="735" d="M25 0q0 223 47.5 375t111.5 235q-69 54 -113 156.5t-44 245.5q0 124 27.5 207.5t83.5 130t128 65.5t174 19h193q18 0 28.5 -10t11.5 -20l1 -11v-1393q-173 0 -201.5 5t-28.5 34v2v496h-24h-25q-30 -47 -49 -91.5t-39.5 -149t-27.5 -251.5q0 -31 -18 -41t-87 -10 q-72 0 -149 6zM285 1040q0 -250 88 -286q15 -6 30 -6q12 0 22.5 2t14.5 4l4 2v473q-22 6 -55 6q-49 0 -76.5 -49.5t-27.5 -145.5z" />
<glyph unicode="&#x430;" horiz-adv-x="692" d="M41 299q0 101 19 170.5t54 104.5t73.5 49t88.5 14q86 0 132 -31v142q0 40 -19.5 57.5t-66.5 17.5q-129 0 -246 -43q-31 58 -31 133q0 49 29 72q26 21 110 40t195 19q142 0 200 -56t58 -193v-97q0 -501 -10 -653q-111 -65 -295 -65q-52 0 -89.5 5.5t-78 25t-65.5 53 t-41.5 93t-16.5 142.5zM283 305q0 -75 14 -106t51 -31q38 0 55 20q5 56 5 265q-19 16 -54 16q-36 0 -53.5 -35.5t-17.5 -128.5z" />
<glyph unicode="&#x431;" horiz-adv-x="735" d="M41 555v68q3 211 25 338q50 347 190 401l332 131q54 -140 35 -199q-9 -20 -35 -32l-228 -93q-28 -11 -51 -39t-36.5 -59t-25.5 -79t-17.5 -81.5t-12.5 -83.5q43 124 97 170.5t143 46.5q131 0 190.5 -124.5t59.5 -417.5q0 -266 -80 -394t-248 -128q-84 0 -144.5 26.5 t-97.5 72.5t-59 121t-29.5 157.5t-7.5 197.5zM260 575q0 -213 25.5 -301t89.5 -88q108 0 108 283q0 171 -21 256.5t-81 85.5q-51 0 -86 -55.5t-35 -180.5z" />
<glyph unicode="&#x432;" horiz-adv-x="706" d="M68 0v983q0 21 12.5 31t44.5 10h184q328 0 328 -236q0 -64 -18 -113t-47 -75t-56.5 -39.5t-56.5 -17.5q31 0 55 -4q14 -2 27.5 -5.5t41 -18t47 -35t35 -60.5t15.5 -92q0 -67 -20 -124.5t-61.5 -104t-112.5 -73t-164 -26.5h-254zM287 184q10 -2 39 -2q94 0 94 170 q0 64 -21 85.5t-69 21.5l-43 -4v-271zM287 608q8 -2 37 -2t51 35t22 102q0 62 -17.5 84.5t-47.5 22.5l-45 -4v-238z" />
<glyph unicode="&#x433;" horiz-adv-x="561" d="M68 0v829q0 134 7 164.5t40 30.5h434q0 -134 -6.5 -164.5t-38.5 -30.5h-207v-788v-2q0 -29 -28.5 -34t-200.5 -5z" />
<glyph unicode="&#x434;" horiz-adv-x="854" d="M10 172v-434q96 0 129.5 8t44.5 43q31 96 47 211h365q10 -91 66 -262q35 0 50.5 0.5t38 2t31.5 5.5t19 11t13 17.5t3 26.5v412h-80v811h-305q-172 0 -200.5 -4.5t-28.5 -33.5v-3q-16 -565 -101 -770q-67 -3 -79.5 -8t-12.5 -33zM324 213q69 204 94 616h84v-616h-178z" />
<glyph unicode="&#x435;" horiz-adv-x="704" d="M41 463q0 144 19.5 250.5t51 169t80 99.5t97.5 49.5t112 12.5q263 0 263 -333q0 -175 -29 -291q-122 -24 -354 -29q5 -102 33.5 -145t99.5 -43q100 0 217 57q18 -62 18 -154q0 -59 -83 -92.5t-208 -33.5q-59 0 -105 12.5t-87 45.5t-67.5 86.5t-42 139t-15.5 199.5z M281 569q107 0 149 19q10 31 10 106q0 95 -14.5 123.5t-54.5 28.5q-45 0 -66 -67.5t-24 -209.5z" />
<glyph unicode="&#x436;" horiz-adv-x="1032" d="M38.5 1005.5q15.5 18.5 70.5 18.5q92 0 131 -8l161 -408v375q0 24 7 29q10 8 50.5 10t172.5 2v-416l164 408q37 8 129 8q55 0 70.5 -18.5t-3.5 -65.5l-160 -346q160 -160 160 -531q0 -63 -78 -63h-145q-9 178 -20 239q-29 173 -117 201v-399q0 -24 -10 -30 q-17 -11 -152 -11h-68v440q-54 -18 -85.5 -96t-38 -137.5t-11.5 -172.5q-1 -23 -2 -34q-15 0 -54 -1.5t-63.5 -1.5t-50.5 3.5t-35 11.5q-18 15 -18 51q0 44 4.5 95.5t18 137t48.5 166t87 132.5l-158 346q-20 47 -4.5 65.5z" />
<glyph unicode="&#x437;" horiz-adv-x="655" d="M27 905q0 47 65 93t201 46q305 0 305 -251q0 -65 -20 -115t-46 -74.5t-57 -39.5t-46.5 -18t-20.5 -3q39 0 76 -11.5t70.5 -36t54 -68.5t20.5 -103q0 -159 -87.5 -251.5t-260.5 -92.5q-115 0 -181.5 35.5t-66.5 88.5q0 69 37 144q112 -62 194 -62q67 0 101 41.5t34 112.5 q0 60 -55 78t-190 18v156q223 0 223 174q0 76 -117 76q-87 0 -174 -66q-24 30 -41.5 67.5t-17.5 61.5z" />
<glyph unicode="&#x438;" horiz-adv-x="747" d="M66 0v983q0 30 28.5 35.5t171.5 5.5v-377q0 -28 -6 -82.5t-16 -127t-13 -97.5q19 57 59.5 161.5t53.5 133.5l152 336q16 34 29 41q20 12 120 12h39v-983v-2q0 -28 -26.5 -33.5t-174.5 -5.5v387q0 30 17 156.5t20 167.5q-12 -44 -54.5 -159.5t-57.5 -152.5l-158 -346 q-16 -34 -29 -41q-20 -12 -119 -12h-36z" />
<glyph unicode="&#x439;" horiz-adv-x="747" d="M66 0v983q0 30 28.5 35.5t171.5 5.5v-377q0 -28 -6 -82.5t-16 -127t-13 -97.5q19 57 59.5 161.5t53.5 133.5l152 336q16 34 29 41q20 12 120 12h39v-983v-2q0 -28 -26.5 -33.5t-174.5 -5.5v387q0 30 17 156.5t20 167.5q-12 -44 -54.5 -159.5t-57.5 -152.5l-158 -346 q-16 -34 -29 -41q-20 -12 -119 -12h-36zM121 1360q0 45 24 74.5t86 54.5q22 -55 62 -98t94 -43q28 0 50.5 9t41 29t27 32.5t24.5 39.5q24 30 55 21t59.5 -44.5t35.5 -72.5q-85 -232 -295 -232q-97 0 -180.5 72t-83.5 158z" />
<glyph unicode="&#x43a;" horiz-adv-x="724" d="M70 0v983v5q0 27 28.5 31.5t200.5 4.5v-416l168 408q39 8 135 8q58 0 74.5 -18.5t-4.5 -65.5l-172 -346q60 -48 99 -114.5t55 -145.5t21 -137t5 -134q0 -35 -20.5 -49t-61.5 -14h-152q-2 47 -4 70.5t-6.5 73.5t-10.5 80t-17.5 71t-25.5 66.5t-35.5 47.5t-47.5 31v-399 q0 -23 -8 -29q-11 -8 -51.5 -10t-169.5 -2z" />
<glyph unicode="&#x43b;" horiz-adv-x="825" d="M-4 76q0 66 27 125q34 -15 79 -15q30 0 52 78q52 186 61 719v3q0 29 28.5 33.5t200.5 4.5h312v-983q0 -24 -10 -30q-18 -11 -155 -11h-73v829h-94q-11 -185 -17 -273.5t-23 -206t-42 -187.5q-58 -172 -190 -172q-23 0 -40 1t-40.5 6t-38.5 13.5t-26 25.5t-11 40z" />
<glyph unicode="&#x43c;" horiz-adv-x="935" d="M68 0v995q0 3 1 8t10 13t25 8h166l150 -360q16 -40 29.5 -77t18.5 -54l5 -17q10 60 45 146l129 333q6 12 9 17t10.5 8.5t19.5 3.5h182v-995q0 -22 -27.5 -25.5t-193.5 -3.5l8 346q0 77 14.5 169.5t28.5 146.5l13 53q-10 0 -89 -223l-14 -43l-90 -197q-8 -8 -20 -8h-88 l-91 205q-10 18 -25 60.5t-36 108t-33 99.5l-2 -2q49 -195 51 -365l7 -321q0 -21 -30 -25t-183 -4z" />
<glyph unicode="&#x43d;" horiz-adv-x="751" d="M70 0v983v5q0 27 28.5 31.5t200.5 4.5v-414h145v373q0 31 31 36t207 5v-983q0 -24 -10 -30q-18 -11 -155 -11h-73v416h-145v-375v-2q0 -29 -28.5 -34t-200.5 -5z" />
<glyph unicode="&#x43e;" horiz-adv-x="741" d="M41 514q0 530 340 530q115 0 181.5 -43.5t102 -158.5t35.5 -320q0 -289 -82.5 -415.5t-252.5 -126.5q-50 0 -87.5 5.5t-73 20t-60 40t-45.5 65.5t-33 96.5t-18.5 132.5t-6.5 174zM293 516q0 -154 10 -231.5t24.5 -96t43.5 -18.5q14 0 23.5 5.5t20.5 26t18 56.5 t11.5 101.5t4.5 156.5q0 148 -7.5 218.5t-22 92t-46.5 21.5q-19 0 -32 -11.5t-24.5 -44.5t-17.5 -102t-6 -174z" />
<glyph unicode="&#x43f;" horiz-adv-x="747" d="M70 0v983v5q0 27 28.5 31.5t200.5 4.5h379v-983q0 -24 -10 -30q-18 -11 -155 -11h-73v829h-141v-788v-2q0 -29 -28.5 -34t-200.5 -5z" />
<glyph unicode="&#x440;" horiz-adv-x="741" d="M68 -303v1268q129 79 303 79q78 0 134.5 -18t102.5 -63t69 -128t23 -206q0 -160 -14 -278t-37.5 -188t-59 -112t-72.5 -56.5t-85 -14.5q-89 0 -135 38v-403q-52 -18 -119 -18q-62 0 -86 20.5t-24 79.5zM297 219q25 -37 57 -37q15 0 26 7t23.5 33t20.5 71.5t13 127 t5 193.5q0 97 -9 148.5t-26 68.5t-49 17t-61 -25v-604z" />
<glyph unicode="&#x441;" horiz-adv-x="595" d="M41 489q0 142 22.5 246t56.5 162.5t85 92.5t97 44t104 10q76 0 122.5 -27.5t46.5 -76.5q0 -62 -20 -123q-64 27 -129 27q-25 0 -44 -6.5t-39 -27.5t-32.5 -58t-21 -102.5t-8.5 -155.5q0 -180 28 -246t109 -66q71 0 131 29q18 -77 18 -121q0 -50 -62 -80t-161 -30 q-67 0 -113 12.5t-84.5 44.5t-60.5 89.5t-33.5 146.5t-11.5 216z" />
<glyph unicode="&#x442;" horiz-adv-x="645" d="M16 829q0 133 6.5 164t40.5 31h566q0 -133 -6.5 -164t-38.5 -31h-146v-788v-2q0 -29 -28.5 -34t-200.5 -5v829h-193z" />
<glyph unicode="&#x443;" horiz-adv-x="696" d="M-23 -293q0 75 29 125q49 -35 139 -35q85 0 103 170l-223 998q-8 35 0 43q14 15 120 16h105l59 -354q14 -79 26.5 -182.5t18.5 -167.5l6 -64q18 234 43 414l39 291q6 47 38 55t206 8l-229 -1071q-43 -201 -104.5 -274.5t-186.5 -73.5q-106 0 -147.5 27t-41.5 75z" />
<glyph unicode="&#x444;" horiz-adv-x="1060" d="M29 469q0 144 18 252t44.5 168t65.5 96.5t74 47.5t76 11q53 0 111 -34v336q0 72 35.5 86t185.5 14v-438q55 36 113 36q64 0 113 -23.5t88 -76.5t59 -147t20 -226q0 -136 -20 -243t-50.5 -171t-71.5 -105.5t-79 -56.5t-76 -15q-55 0 -96 24v-395q-55 -19 -129 -19 q-60 0 -76 19.5t-16 81.5v319q-52 -30 -94 -30q-85 0 -153 65.5t-105 177t-37 246.5zM266 489q0 -132 35 -210t82 -78q20 0 35 10v604q-24 12 -35 12q-15 0 -29.5 -7t-31 -29t-28.5 -57t-20 -98.5t-8 -146.5zM639 215q13 -10 31 -10q13 0 27 7t31.5 30t31 59t22.5 101.5 t9 150.5q0 132 -28.5 203t-76.5 71q-26 0 -47 -12v-600z" />
<glyph unicode="&#x445;" horiz-adv-x="776" d="M14 0l240 530l-209 457q-9 21 -1 27q16 10 168 10h75l45 -113q32 -80 71 -215q56 171 74 215l29 74q12 29 44.5 34t205.5 5l-226 -477l222 -498q13 -29 4 -36q-13 -12 -140 -13h-120l-41 98q-34 80 -86 238q-58 -175 -80 -238l-21 -55q-12 -31 -51 -37t-203 -6z" />
<glyph unicode="&#x446;" horiz-adv-x="806" d="M70 0v983v1q0 30 29.5 35t207.5 5v-811h139v770q0 24 10 30q17 11 152 11h68v-811h94v-412q0 -16 -3 -26.5t-13.5 -17.5t-19.5 -11t-31.5 -5.5t-38.5 -2t-52 -0.5q-52 158 -63 262h-479z" />
<glyph unicode="&#x447;" horiz-adv-x="708" d="M33 637v346v5q0 27 28.5 31.5t200.5 4.5v-365q0 -67 13.5 -101t52.5 -34q36 0 73 19v440q0 31 31 36t207 5v-983q0 -24 -10 -30q-18 -11 -155 -11h-73v352q-78 -24 -129 -24q-110 0 -174.5 81t-64.5 228z" />
<glyph unicode="&#x448;" horiz-adv-x="1132" d="M70 0v983v2q0 29 29.5 34t205.5 5v-811h144v770q0 31 30 36t205 5v-811h143v770q0 31 30.5 36t205.5 5v-983v-5q0 -27 -28.5 -31.5t-200.5 -4.5h-764z" />
<glyph unicode="&#x449;" horiz-adv-x="1191" d="M70 0v983v2q0 29 29.5 34t205.5 5v-811h144v770q0 31 30 36t205 5v-811h143v770q0 31 30.5 36t205.5 5v-811h92v-412q0 -16 -3 -26.5t-14 -17.5t-20 -11t-31.5 -5.5t-38.5 -2t-51 -0.5q-52 158 -63 262h-864z" />
<glyph unicode="&#x44a;" horiz-adv-x="835" d="M16 829q0 139 6 167t37 28h357v-377h67q170 0 248 -61.5t78 -223.5q0 -176 -90.5 -269t-245.5 -93h-276v829h-181zM416 184q12 -2 39 -2q94 0 94 170q0 80 -20.5 102.5t-69.5 22.5l-43 -4v-289z" />
<glyph unicode="&#x44b;" horiz-adv-x="1013" d="M68 0v922q0 21 0.5 33t5 24.5t8.5 18t17.5 12t26 8.5t39.5 4t52 2h70v-377h63q165 0 239.5 -61.5t74.5 -223.5q0 -176 -86.5 -269t-235.5 -93h-274zM287 184q12 -2 37 -2q82 0 82 170q0 57 -9.5 84.5t-24.5 34t-46 6.5l-39 -4v-289zM715 0v924q0 71 39 85.5t190 14.5 v-983v-1q0 -30 -28.5 -35t-200.5 -5z" />
<glyph unicode="&#x44c;" horiz-adv-x="706" d="M68 0v922q0 51 14 71q16 22 55.5 26.5t149.5 4.5v-377h67q170 0 248 -61.5t78 -223.5q0 -109 -30.5 -182t-91 -111.5t-133 -53.5t-173.5 -15h-184zM287 184q12 -2 39 -2q94 0 94 170q0 43 -5 69t-18.5 38t-27 15t-39.5 3l-43 -4v-289z" />
<glyph unicode="&#x44d;" horiz-adv-x="589" d="M27 979q0 28 54 52t116 24q43 0 74.5 -3t71.5 -15t69 -33.5t59 -60.5t48.5 -93.5t30 -135.5t11.5 -184q0 -139 -12 -235t-36 -160.5t-66.5 -100.5t-96.5 -50.5t-133 -14.5q-69 0 -125.5 28.5t-56.5 65.5q0 61 18 138q24 -12 67 -20.5t73 -8.5q63 0 90.5 53t33.5 189h-221 q0 133 7 163.5t40 30.5h176q-3 69 -13 117.5t-21.5 73t-32 37.5t-35.5 15.5t-41 2.5q-65 0 -129 -27q-20 70 -20 152z" />
<glyph unicode="&#x44e;" horiz-adv-x="1050" d="M70 0v983v5q0 27 28.5 31.5t200.5 4.5v-420h76q29 449 332 449q113 0 179.5 -46t101 -163t34.5 -322q0 -291 -82.5 -425t-249.5 -134q-80 0 -133 18.5t-94 67t-62 138t-26 227.5h-76v-373v-2q0 -29 -28.5 -34t-200.5 -5zM623 516q0 -117 4.5 -190.5t14.5 -110.5t22.5 -49 t31.5 -12q13 0 23 7t20.5 30t17 61.5t11 105.5t4.5 158q0 148 -7 220t-22 96t-45 24q-23 0 -38 -22.5t-26 -101t-11 -216.5z" />
<glyph unicode="&#x44f;" horiz-adv-x="696" d="M41 709q0 156 89.5 235.5t248.5 79.5h250v-983q0 -31 -27.5 -36t-193.5 -5v381h-41q-73 -95 -80 -324q-3 -63 -97 -63q-92 0 -141 6q0 305 133 453q-66 40 -103.5 98t-37.5 158zM287 717q0 -81 23 -119.5t59 -38.5l41 2v285q-19 6 -50 6q-30 0 -51.5 -38t-21.5 -97z" />
<glyph unicode="&#x451;" horiz-adv-x="704" d="M41 463q0 144 19.5 250.5t51 169t80 99.5t97.5 49.5t112 12.5q263 0 263 -333q0 -175 -29 -291q-122 -24 -354 -29q5 -102 33.5 -145t99.5 -43q100 0 217 57q18 -62 18 -154q0 -59 -83 -92.5t-208 -33.5q-59 0 -105 12.5t-87 45.5t-67.5 86.5t-42 139t-15.5 199.5z M115 1284q0 53 33.5 90t91.5 37q125 0 125 -127q0 -54 -34 -89.5t-91 -35.5q-69 0 -97 31t-28 94zM281 569q107 0 149 19q10 31 10 106q0 95 -14.5 123.5t-54.5 28.5q-45 0 -66 -67.5t-24 -209.5zM412 1284q0 53 33.5 90t89.5 37q124 0 124 -127q0 -54 -33 -89.5t-91 -35.5 q-69 0 -96 30.5t-27 94.5z" />
<glyph unicode="&#x49a;" horiz-adv-x="833" d="M57 0v1393q0 31 29.5 36t204.5 5v-586l223 571q78 17 148 17q62 0 86 -14t12 -44l-234 -557q184 -172 215 -606h95v-451q0 -42 -29.5 -53.5t-130.5 -11.5q-55 178 -66 297q-58 3 -123 6q0 223 -27.5 379t-107.5 246q-27 30 -61 45v-631q0 -31 -29.5 -36t-204.5 -5z" />
<glyph unicode="&#x49b;" horiz-adv-x="768" d="M70 0v983v5q0 27 28.5 31.5t200.5 4.5v-416l168 408q39 8 135 8q58 0 74.5 -18.5t-4.5 -65.5l-172 -346q151 -120 174 -379h96v-451q0 -42 -29.5 -53.5t-130.5 -11.5q-54 178 -65 301h-27h-72q-2 47 -4 70.5t-6.5 73.5t-10.5 80t-17.5 71t-25.5 66.5t-35.5 47.5t-47.5 31 v-399q0 -23 -8 -29q-11 -8 -51.5 -10t-169.5 -2z" />
<glyph unicode="&#x4a2;" horiz-adv-x="835" d="M63 0v1393q0 24 10 30q17 11 152 11h68v-564h196v523q0 24 10 30q17 11 152 11h68v-1219h117v-451q0 -42 -29.5 -53.5t-130.5 -11.5q-56 183 -66 301h-26h-95v662h-196v-621q0 -24 -10 -30q-17 -11 -152 -11h-68z" />
<glyph unicode="&#x4a3;" horiz-adv-x="790" d="M70 0v983v5q0 27 28.5 31.5t200.5 4.5v-414h145v373q0 31 31 36t207 5v-809h113v-451q0 -42 -29.5 -53.5t-130.5 -11.5q-56 183 -66 301h-26h-99v416h-145v-375v-2q0 -29 -28.5 -34t-200.5 -5z" />
<glyph unicode="&#x2000;" horiz-adv-x="949" />
<glyph unicode="&#x2001;" horiz-adv-x="1898" />
<glyph unicode="&#x2002;" horiz-adv-x="949" />
<glyph unicode="&#x2003;" horiz-adv-x="1898" />
<glyph unicode="&#x2004;" horiz-adv-x="632" />
<glyph unicode="&#x2005;" horiz-adv-x="474" />
<glyph unicode="&#x2006;" horiz-adv-x="316" />
<glyph unicode="&#x2007;" horiz-adv-x="316" />
<glyph unicode="&#x2008;" horiz-adv-x="237" />
<glyph unicode="&#x2009;" horiz-adv-x="379" />
<glyph unicode="&#x200a;" horiz-adv-x="105" />
<glyph unicode="&#x2010;" horiz-adv-x="540" d="M61 479q0 117 6.5 157t34.5 40h377q0 -117 -6.5 -157t-34.5 -40h-377z" />
<glyph unicode="&#x2011;" horiz-adv-x="540" d="M61 479q0 117 6.5 157t34.5 40h377q0 -117 -6.5 -157t-34.5 -40h-377z" />
<glyph unicode="&#x2012;" horiz-adv-x="540" d="M61 479q0 117 6.5 157t34.5 40h377q0 -117 -6.5 -157t-34.5 -40h-377z" />
<glyph unicode="&#x2013;" horiz-adv-x="839" d="M61 479q0 117 6.5 157t34.5 40h676q0 -117 -6.5 -157t-34.5 -40h-676z" />
<glyph unicode="&#x2014;" horiz-adv-x="1433" d="M12 479q0 117 6.5 157t34.5 40h1368q0 -117 -6.5 -157t-34.5 -40h-1368z" />
<glyph unicode="&#x2018;" horiz-adv-x="395" d="M59 1317q0 60 23.5 121.5t55 103t62.5 68t48 26.5q72 0 86 -59q-7 -12 -13 -22.5t-10 -19t-8 -17.5t-6.5 -14.5t-5 -14t-3.5 -12t-2.5 -13t-2 -12.5t-2 -14.5t-2.5 -14.5q57 -34 57 -123q0 -56 -37.5 -94.5t-93.5 -38.5q-70 0 -108 39t-38 111z" />
<glyph unicode="&#x2019;" horiz-adv-x="395" d="M59 1505q0 56 37.5 94.5t93.5 38.5q71 0 108.5 -38.5t37.5 -110.5q0 -60 -23.5 -121.5t-55 -103.5t-62.5 -68.5t-48 -26.5q-71 0 -86 60q23 38 34 65.5t14 40t8 47.5q-58 35 -58 123z" />
<glyph unicode="&#x201a;" horiz-adv-x="382" d="M59 98q0 56 37.5 94.5t93.5 38.5q71 0 108.5 -38.5t37.5 -110.5q0 -60 -23.5 -121.5t-55 -103.5t-62.5 -68.5t-48 -26.5q-71 0 -86 60q23 38 34 65.5t14 40t8 47.5q-58 35 -58 123z" />
<glyph unicode="&#x201c;" horiz-adv-x="731" d="M59 1317q0 60 23.5 121.5t55 103t62.5 68t48 26.5q72 0 86 -59q-7 -12 -13 -22.5t-10 -19t-8 -17.5t-6.5 -14.5t-5 -14t-3.5 -12t-2.5 -13t-2 -12.5t-2 -14.5t-2.5 -14.5q57 -34 57 -123q0 -56 -37.5 -94.5t-93.5 -38.5q-70 0 -108 39t-38 111zM395 1317q0 60 23.5 121.5 t55 103t62.5 68t48 26.5q72 0 86 -59q-23 -38 -34 -65.5t-14 -40.5t-8 -48q58 -35 58 -123q0 -56 -37.5 -94.5t-93.5 -38.5q-70 0 -108 39t-38 111z" />
<glyph unicode="&#x201d;" horiz-adv-x="731" d="M59 1505q0 56 37.5 94.5t93.5 38.5q71 0 108.5 -38.5t37.5 -110.5q0 -60 -23.5 -121.5t-55 -103.5t-62.5 -68.5t-48 -26.5q-71 0 -86 60q23 38 34 65.5t14 40t8 47.5q-58 35 -58 123zM395 1505q0 56 37.5 94.5t93.5 38.5q71 0 108.5 -38.5t37.5 -110.5 q0 -60 -23.5 -121.5t-55 -103.5t-62.5 -68.5t-48 -26.5q-71 0 -86 60q23 38 34 65.5t14 40t8 47.5q-58 35 -58 123z" />
<glyph unicode="&#x201e;" horiz-adv-x="720" d="M59 98q0 56 37.5 94.5t93.5 38.5q71 0 108.5 -38.5t37.5 -110.5q0 -60 -23.5 -121.5t-55 -103.5t-62.5 -68.5t-48 -26.5q-71 0 -86 60q23 38 34 65.5t14 40t8 47.5q-58 35 -58 123zM395 98q0 56 37.5 94.5t93.5 38.5q71 0 108.5 -38.5t37.5 -110.5q0 -60 -23.5 -121.5 t-55 -103.5t-62.5 -68.5t-48 -26.5q-71 0 -86 60q23 38 34 65.5t14 40t8 47.5q-58 35 -58 123z" />
<glyph unicode="&#x2022;" horiz-adv-x="481" d="M59 586q0 78 50 133t133 55q99 0 140.5 -48t41.5 -140q0 -78 -48.5 -130.5t-133.5 -52.5q-101 0 -142 45.5t-41 137.5z" />
<glyph unicode="&#x2026;" horiz-adv-x="1150" d="M53 131q0 63 39.5 106.5t106.5 43.5q79 0 112 -38.5t33 -111.5q0 -62 -39 -103.5t-106 -41.5q-81 0 -113.5 36t-32.5 109zM432 131q0 63 39.5 106.5t106.5 43.5q79 0 112 -38.5t33 -111.5q0 -62 -39 -103.5t-106 -41.5q-81 0 -113.5 36t-32.5 109zM811 131 q0 63 39.5 106.5t105.5 43.5q79 0 112.5 -39t33.5 -111q0 -62 -39.5 -103.5t-106.5 -41.5q-81 0 -113 36t-32 109z" />
<glyph unicode="&#x202f;" horiz-adv-x="379" />
<glyph unicode="&#x2039;" horiz-adv-x="481" d="M12 512q0 40 73 168t145 236l73 108q25 0 48 -12t38 -29t26.5 -34.5t16.5 -29.5l6 -12q0 -29 -22 -80.5t-53 -104t-62.5 -101t-53.5 -79.5l-22 -30q9 -11 23.5 -30t51.5 -72.5t65.5 -99.5t51.5 -98t23 -83q-2 -5 -6 -14t-17 -31t-28 -39t-38 -31t-48 -14 q-12 17 -31.5 45.5t-69.5 106t-88.5 141.5t-70 128.5t-31.5 90.5z" />
<glyph unicode="&#x203a;" horiz-adv-x="481" d="M41 129q0 31 22 81.5t53.5 101t63.5 96.5t54 75l22 29q-24 33 -59.5 84t-94.5 158t-59 153q0 22 14 42.5t33.5 33.5t39.5 22.5t34 14.5l14 4q12 -17 31.5 -46t69.5 -106.5t88.5 -141.5t70 -128.5t31.5 -89.5q0 -42 -72.5 -170t-145.5 -235l-73 -107l-15 5t-32.5 14 t-41.5 24.5t-33 36.5t-15 49z" />
<glyph unicode="&#x205f;" horiz-adv-x="474" />
<glyph unicode="&#x20ac;" d="M20 377q0 108 15.5 148t68.5 40h84v4q0 64 2 95h-170q0 108 15.5 148t68.5 40h107q73 391 381 391q61 0 104.5 -8.5t65 -22t30.5 -27.5t9 -30q0 -100 -33 -151q-18 12 -52.5 21t-66.5 9q-129 0 -184 -182h240q0 -108 -15.5 -148t-68.5 -40h-185q-2 -25 -2 -80v-19h213 q0 -108 -15.5 -148t-68.5 -40h-121q11 -103 43.5 -137.5t98.5 -34.5q103 0 159 26q29 -64 29 -141q0 -41 -66.5 -74.5t-168.5 -33.5q-79 0 -133 16t-99 58t-71 121t-37 200h-177z" />
<glyph unicode="&#x2122;" horiz-adv-x="968" d="M49 1337v78q0 8 4.5 12.5t9.5 5.5l5 1h358v-78q0 -8 -4.5 -13t-9.5 -5l-4 -1h-113v-538q0 -13 -9 -15q-13 -4 -96 -4v557h-141zM479 780v635q1 19 21 19h78l73 -230l27 -94q4 37 22 92l64 213q3 11 6.5 15t11.5 4h86v-635q0 -14 -14 -16.5t-92 -2.5l4 221q2 50 8.5 109 t12.5 93l6 34l-2 2q-24 -106 -48 -172l-43 -125q-3 -6 -10 -6h-43l-45 131q-9 31 -45 172l-2 -2q25 -124 29 -233v-205q0 -13 -15.5 -16t-89.5 -3z" />
<glyph unicode="&#x25fc;" horiz-adv-x="1024" d="M0 0v1024h1024v-1024h-1024z" />
</font>
</defs>
</svg>
